<?xml version="1.0" encoding="utf-8"?>
<!-- Generator: Adobe Illustrator 25.4.1, SVG Export Plug-In . SVG Version: 6.00 Build 0)  -->
<svg version="1.1" id="Calque_1" xmlns="http://www.w3.org/2000/svg" xmlns:xlink="http://www.w3.org/1999/xlink" x="0px" y="0px"
	 viewBox="0 0 42 42" style="enable-background:new 0 0 42 42;" xml:space="preserve">
<path d="M39.9,10H2.1c-0.9,0-1.6-0.7-1.6-1.6s0.7-1.6,1.6-1.6h37.8c0.9,0,1.6,0.7,1.6,1.6S40.8,10,39.9,10z"/>
<path d="M39.9,22.6H2.1c-0.9,0-1.6-0.7-1.6-1.6s0.7-1.6,1.6-1.6h37.8c0.9,0,1.6,0.7,1.6,1.6S40.8,22.6,39.9,22.6z"/>
<path d="M39.9,35.2H2.1c-0.9,0-1.6-0.7-1.6-1.6S1.2,32,2.1,32h37.8c0.9,0,1.6,0.7,1.6,1.6S40.8,35.2,39.9,35.2z"/>
</svg>
