<svg width="42" height="42" viewBox="0 0 42 42" fill="none" xmlns="http://www.w3.org/2000/svg">
<path d="M27.48 24.0701H25.28C25.13 24.0701 25.01 24.1901 25.01 24.3401C25.01 24.4901 25.13 24.6101 25.28 24.6101H26.11V28.1501C26.11 28.3001 26.23 28.4201 26.38 28.4201C26.53 28.4201 26.65 28.3001 26.65 28.1501V24.6101H27.48C27.63 24.6101 27.75 24.4901 27.75 24.3401C27.75 24.1901 27.63 24.0701 27.48 24.0701Z" fill="#102345"/>
<path d="M30.8201 23.5201V23.5401C30.7901 23.3601 30.7601 23.1701 30.7201 22.9901C30.6601 22.7001 30.5601 22.4101 30.4301 22.1301C30.3401 21.9401 30.1801 21.8701 30.0001 21.9501C29.8701 22.0101 29.7601 22.1601 29.8501 22.3901C29.8501 22.4101 29.8601 22.4201 29.8701 22.4401C29.8701 22.4401 29.8701 22.4601 29.8801 22.4701C30.1601 23.1201 30.2401 23.8001 30.1101 24.5101C30.0601 24.7901 29.9701 25.0801 29.8501 25.3601C29.7401 25.6101 29.8801 25.7401 29.9501 25.7801C30.0101 25.8101 30.0601 25.8301 30.1201 25.8301C30.1501 25.8301 30.1801 25.8301 30.2001 25.8201C30.2601 25.8001 30.3501 25.7501 30.4201 25.6101C30.6701 25.0701 30.7901 24.4901 30.8001 23.8801V23.5301L30.8201 23.5201Z" fill="#102345"/>
<path d="M22.81 25.3C22.81 25.3 22.8 25.27 22.79 25.25C22.5 24.55 22.43 23.81 22.61 23.05C22.66 22.85 22.73 22.64 22.84 22.37C22.89 22.26 22.88 22.14 22.82 22.05C22.76 21.96 22.67 21.91 22.56 21.91C22.37 21.91 22.3 22.08 22.27 22.14C21.93 22.89 21.82 23.69 21.95 24.52C22.01 24.9 22.12 25.27 22.29 25.62C22.35 25.74 22.46 25.82 22.57 25.82C22.61 25.82 22.66 25.82 22.7 25.79C22.86 25.72 22.93 25.55 22.86 25.38C22.85 25.35 22.84 25.32 22.83 25.3" fill="#102345"/>
<path d="M31.83 24.0701C31.83 23.3901 31.76 22.8801 31.61 22.3701C31.53 22.1201 31.45 21.8901 31.34 21.6801C31.26 21.5201 31.09 21.4501 30.93 21.5301C30.77 21.6001 30.7 21.7701 30.77 21.9401C30.77 21.9601 30.79 21.9801 30.79 22.0001C30.79 22.0001 30.79 22.0201 30.8 22.0301C31.22 22.9801 31.3 23.9801 31.06 25.0001C30.99 25.2701 30.9 25.5301 30.78 25.8001C30.71 25.9601 30.76 26.0801 30.82 26.1401C30.88 26.2201 30.97 26.2601 31.07 26.2601C31.09 26.2601 31.11 26.2601 31.13 26.2601C31.29 26.2301 31.35 26.1001 31.38 26.0301C31.62 25.5001 31.77 24.9301 31.82 24.4101L31.84 24.4301V24.0801L31.83 24.0701Z" fill="#102345"/>
<path d="M21.6201 22.84C21.6801 22.55 21.7801 22.27 21.9201 21.96C21.9701 21.86 21.9701 21.75 21.9201 21.67C21.8801 21.59 21.8101 21.53 21.7101 21.5C21.6201 21.48 21.4401 21.47 21.3301 21.71C21.0201 22.38 20.8601 23.1 20.8601 23.85C20.8601 24.6 21.0101 25.32 21.3101 25.98C21.3901 26.16 21.4901 26.25 21.6201 26.25C21.6601 26.25 21.7101 26.24 21.7501 26.22C21.8301 26.18 21.8901 26.13 21.9201 26.06C21.9701 25.94 21.9201 25.82 21.8801 25.72C21.4801 24.79 21.3801 23.82 21.6101 22.83" fill="#102345"/>
<path d="M27.9601 26.01C27.5501 26.35 27.3601 26.76 27.3801 27.25C27.3801 27.36 27.3801 27.48 27.3801 27.6C27.3801 27.64 27.3801 27.68 27.3801 27.72C27.3801 27.75 27.3501 27.87 27.3501 27.87L25.3201 27.85V27.77C25.3201 27.77 25.3201 27.77 25.3201 27.76L25.2801 26.83C25.2101 26.53 25.0601 26.28 24.8101 26.09C24.3701 25.74 24.0701 25.32 23.9101 24.81C23.6901 24.11 23.7901 23.35 24.1701 22.72C24.5601 22.09 25.1901 21.66 25.9201 21.54C26.6101 21.43 27.3001 21.59 27.8601 22C28.4101 22.41 28.7701 23.01 28.8701 23.69C29.0001 24.63 28.7001 25.41 27.9601 26.02M26.8901 29.72C26.8701 29.72 26.8601 29.74 26.8401 29.75L26.3401 30.07L26.0201 29.84C25.9601 29.81 25.6401 29.57 25.6401 29.57V29.12C25.6401 29.12 25.6401 29.09 25.6401 29.07V28.44C25.6401 28.44 25.6401 28.41 25.6401 28.39C25.8001 28.39 25.9701 28.39 26.1301 28.39H26.5301C26.7001 28.39 26.8701 28.39 27.0301 28.39V29.61L26.8701 29.71L26.8901 29.72ZM29.5001 23.61C29.3801 22.75 28.9401 22 28.2701 21.5C27.5801 20.99 26.7201 20.78 25.8501 20.91C24.8801 21.06 24.0501 21.65 23.5701 22.53C23.0901 23.42 23.0401 24.44 23.4501 25.34C23.6701 25.82 23.9901 26.23 24.4001 26.55C24.6001 26.71 24.7001 26.91 24.7001 27.17C24.7001 27.32 24.7001 27.46 24.7001 27.61V27.74C24.7001 28 24.8201 28.2 25.0401 28.32C25.0401 28.48 25.0401 28.64 25.0401 28.79V29.6C25.0401 29.88 25.1701 30.09 25.4101 30.22C25.5901 30.32 25.7601 30.4 25.9301 30.49C26.0801 30.56 26.2201 30.6 26.3701 30.6C26.5201 30.6 26.6601 30.56 26.8101 30.49C26.8901 30.45 26.9601 30.41 27.0301 30.38C27.1101 30.34 27.2001 30.29 27.2801 30.25C27.5601 30.11 27.7001 29.89 27.6901 29.57C27.6901 29.23 27.6901 28.88 27.6901 28.54V28.33C27.8601 28.23 28.0401 28.04 28.0301 27.67C28.0301 27.62 28.0301 27.56 28.0301 27.5C28.0301 27.43 28.0301 27.35 28.0301 27.27C28.0101 26.96 28.1201 26.72 28.4101 26.48C29.2901 25.74 29.6701 24.75 29.5201 23.62" fill="#102345"/>
<path d="M6.83 12.65C6.85 11.86 6.84 11.06 6.83 10.27C6.83 10.08 6.89 10.04 7.06 10.05C7.45 10.06 7.85 10.07 8.24 10.05C8.43 10.05 8.49 10.1 8.48 10.29C8.44 10.88 8.63 11.39 9.11 11.75C9.64 12.15 10.22 12.22 10.82 11.94C11.41 11.66 11.72 11.17 11.75 10.51C11.78 10.05 11.77 10.05 12.22 10.05H20.4C20.65 10.05 20.78 10.17 20.78 10.42C20.78 11.34 21.46 12.06 22.34 12.1C23.28 12.14 24.04 11.41 24.06 10.45C24.06 10.18 24.2 10.05 24.47 10.05C24.83 10.05 25.19 10.05 25.55 10.05C25.67 10.05 25.71 10.08 25.71 10.21C25.71 11.07 25.71 11.92 25.71 12.78C25.71 12.94 25.63 12.93 25.52 12.93C24.87 12.93 24.22 12.93 23.57 12.93H16.26C13.21 12.93 10.16 12.93 7.11 12.93C6.89 12.93 6.82 12.89 6.82 12.66M9.47 8.81C9.91 8.81 10.34 8.81 10.78 8.81C10.92 8.81 10.95 8.87 10.95 8.99C10.95 9.24 10.95 9.48 10.95 9.73C10.95 9.98 10.95 10.21 10.95 10.45C10.94 10.91 10.59 11.27 10.14 11.27C9.68 11.27 9.32 10.91 9.31 10.44C9.31 9.95 9.31 9.47 9.31 8.98C9.31 8.85 9.35 8.8 9.48 8.81M21.78 8.81C22.21 8.81 22.65 8.81 23.09 8.81C23.23 8.81 23.27 8.86 23.26 8.99C23.26 9.24 23.26 9.48 23.26 9.73C23.26 9.98 23.26 10.23 23.26 10.47C23.24 10.93 22.88 11.28 22.43 11.27C21.99 11.27 21.63 10.92 21.62 10.47C21.61 9.97 21.62 9.48 21.62 8.98C21.62 8.85 21.65 8.8 21.79 8.8M16.73 26.88C13.52 26.88 10.31 26.88 7.09 26.88C6.9 26.88 6.83 26.84 6.83 26.63C6.83 22.42 6.83 18.2 6.83 13.98C6.83 13.77 6.89 13.73 7.09 13.73C10.15 13.73 13.21 13.73 16.27 13.73C19.33 13.73 22.39 13.73 25.45 13.73C25.66 13.73 25.72 13.77 25.72 13.99C25.72 15.82 25.72 17.24 25.72 19.07H26.53C26.53 15.86 26.53 13.05 26.53 9.84C26.53 9.32 26.43 9.22 25.9 9.22C25.37 9.22 24.81 9.22 24.26 9.22C24.12 9.22 24.06 9.18 24.07 9.04C24.08 8.84 24.07 8.63 24.07 8.43C24.07 8.17 23.91 8 23.66 8C22.84 8 22.02 8 21.2 8C20.96 8 20.81 8.16 20.79 8.41C20.79 8.58 20.77 8.75 20.79 8.92C20.82 9.16 20.75 9.23 20.49 9.23C17.68 9.22 14.86 9.23 12.05 9.23C12 9.23 11.95 9.23 11.9 9.23C11.78 9.24 11.75 9.19 11.75 9.08C11.75 8.87 11.75 8.65 11.75 8.44C11.75 8.16 11.59 8 11.32 8C10.51 8 9.71 8 8.91 8C8.63 8 8.48 8.16 8.47 8.45C8.47 8.64 8.46 8.83 8.47 9.02C8.48 9.19 8.43 9.24 8.26 9.23C7.7 9.22 7.15 9.23 6.59 9.23C6.12 9.23 6 9.35 6 9.82V18.47V27.09C6 27.59 6.11 27.7 6.62 27.7C9.98 27.7 13.35 27.7 16.71 27.7V26.89L16.73 26.88Z" fill="#102345"/>
<path d="M15.0501 24.42C15.0501 23.97 14.6901 23.6 14.2401 23.6C13.7801 23.6 13.4101 23.97 13.4101 24.43C13.4101 24.88 13.7801 25.24 14.2301 25.24C14.6801 25.24 15.0501 24.87 15.0501 24.42ZM14.2301 22.77C15.1401 22.77 15.8701 23.51 15.8701 24.42C15.8701 25.32 15.1201 26.06 14.2101 26.05C13.3101 26.05 12.5901 25.31 12.5801 24.41C12.5801 23.5 13.3201 22.76 14.2301 22.76V22.77Z" fill="#102345"/>
<path d="M14.2102 19.4901C13.7602 19.4901 13.4002 19.8701 13.4002 20.3201C13.4002 20.7801 13.7902 21.1501 14.2502 21.1301C14.6902 21.1201 15.0602 20.7301 15.0402 20.2901C15.0302 19.8401 14.6502 19.4801 14.2102 19.4901ZM14.2202 21.9501C13.3102 21.9501 12.5802 21.2001 12.5902 20.2901C12.5902 19.3901 13.3502 18.6501 14.2502 18.6701C15.1502 18.6801 15.8802 19.4301 15.8702 20.3401C15.8602 21.2301 15.1202 21.9601 14.2202 21.9501Z" fill="#102345"/>
<path d="M15.0501 16.21C15.0501 15.76 14.6901 15.39 14.2401 15.38C13.7801 15.38 13.4001 15.75 13.4001 16.2C13.4001 16.65 13.7701 17.01 14.2201 17.02C14.6601 17.02 15.0401 16.65 15.0401 16.21H15.0501ZM14.2201 14.56C15.1301 14.56 15.8701 15.29 15.8701 16.2C15.8701 17.1 15.1301 17.85 14.2301 17.84C13.3301 17.84 12.6001 17.11 12.5901 16.21C12.5901 15.3 13.3201 14.56 14.2201 14.55V14.56Z" fill="#102345"/>
<path d="M23.2802 16.21C23.2902 15.75 22.9502 15.39 22.5002 15.37C22.0502 15.35 21.6702 15.69 21.6502 16.14C21.6302 16.6 21.9802 16.99 22.4502 17C22.9102 17 23.2702 16.66 23.2802 16.21ZM22.4402 17.82C21.5202 17.8 20.8102 17.07 20.8202 16.15C20.8302 15.24 21.5802 14.52 22.4902 14.54C23.4102 14.56 24.1202 15.31 24.0902 16.22C24.0602 17.12 23.3302 17.83 22.4302 17.82H22.4402Z" fill="#102345"/>
<path d="M18.3601 15.38C17.9001 15.38 17.52 15.74 17.53 16.2C17.53 16.64 17.9201 17.02 18.3501 17.02C18.8001 17.02 19.1601 16.65 19.1601 16.2C19.1601 15.74 18.8101 15.38 18.3601 15.38ZM19.98 16.19C19.98 17.1 19.2401 17.84 18.3401 17.84C17.4401 17.84 16.6901 17.08 16.7001 16.18C16.7001 15.27 17.4501 14.55 18.3601 14.55C19.2601 14.55 19.98 15.28 19.98 16.19Z" fill="#102345"/>
<path d="M10.13 23.59C9.91998 23.59 9.69998 23.6 9.48998 23.59C9.31998 23.58 9.28998 23.64 9.28998 23.8C9.28998 24.22 9.28998 24.64 9.28998 25.05C9.28998 25.19 9.31998 25.24 9.46998 25.24C9.89998 25.23 10.32 25.23 10.75 25.24C10.9 25.24 10.93 25.19 10.93 25.05C10.93 24.62 10.93 24.2 10.93 23.77C10.93 23.64 10.9 23.59 10.76 23.59C10.55 23.6 10.33 23.59 10.12 23.59M8.47998 24.41C8.47998 24.02 8.47998 23.64 8.47998 23.26C8.47998 22.92 8.62998 22.77 8.96998 22.77C9.73998 22.77 10.51 22.77 11.28 22.77C11.62 22.77 11.77 22.92 11.77 23.26C11.77 24.03 11.77 24.8 11.77 25.57C11.77 25.91 11.62 26.06 11.28 26.06C10.51 26.06 9.73998 26.06 8.96998 26.06C8.63998 26.06 8.48998 25.91 8.47998 25.57C8.47998 25.19 8.47998 24.8 8.47998 24.42" fill="#102345"/>
<path d="M10.94 20.31C10.94 20.1 10.94 19.88 10.94 19.67C10.94 19.53 10.9 19.48 10.75 19.48C10.32 19.48 9.89998 19.48 9.46998 19.48C9.31998 19.48 9.28998 19.53 9.28998 19.67C9.28998 20.1 9.28998 20.52 9.28998 20.95C9.28998 21.08 9.32998 21.13 9.45998 21.13C9.88998 21.13 10.33 21.13 10.77 21.13C10.91 21.13 10.94 21.08 10.94 20.95C10.94 20.74 10.94 20.52 10.94 20.31ZM10.15 18.67C10.53 18.67 10.9 18.67 11.28 18.67C11.62 18.67 11.77 18.82 11.77 19.15C11.77 19.92 11.77 20.69 11.77 21.46C11.77 21.79 11.62 21.95 11.28 21.95C10.51 21.95 9.73998 21.95 8.96998 21.95C8.62998 21.95 8.47998 21.8 8.47998 21.46C8.47998 20.69 8.47998 19.92 8.47998 19.15C8.47998 18.81 8.62998 18.67 8.96998 18.66C9.35998 18.66 9.75998 18.66 10.15 18.66V18.67Z" fill="#102345"/>
<path d="M10.13 17.0301C10.34 17.0301 10.56 17.0301 10.77 17.0301C10.91 17.0301 10.95 16.9901 10.94 16.8601C10.94 16.4201 10.94 15.9901 10.94 15.5501C10.94 15.4101 10.88 15.3801 10.76 15.3801C10.33 15.3801 9.90998 15.3801 9.47998 15.3801C9.32998 15.3801 9.28998 15.4201 9.28998 15.5701C9.28998 15.9801 9.30998 16.3901 9.28998 16.8001C9.28998 17.0101 9.35998 17.0501 9.53998 17.0301C9.73998 17.0201 9.92998 17.0301 10.13 17.0301ZM10.15 14.5601C10.53 14.5601 10.9 14.5601 11.28 14.5601C11.61 14.5601 11.76 14.7101 11.77 15.0501C11.77 15.8201 11.77 16.5901 11.77 17.3601C11.77 17.6901 11.62 17.8501 11.28 17.8501C10.51 17.8501 9.73998 17.8501 8.96998 17.8501C8.62998 17.8501 8.47998 17.7001 8.47998 17.3601C8.47998 16.5901 8.47998 15.8201 8.47998 15.0501C8.47998 14.7101 8.62998 14.5701 8.96998 14.5601C9.35998 14.5601 9.75998 14.5601 10.15 14.5601Z" fill="#102345"/>
<path d="M33.9801 33.79H18.3901C17.3001 33.79 16.4201 32.9 16.4201 31.82V31.73H22.6901C22.8501 32.16 23.2901 32.77 24.5401 32.77H28.1301C28.5601 32.75 29.3401 32.5 29.6601 31.73H35.9501V31.82C35.9501 32.91 35.0701 33.79 33.9801 33.79ZM36.3501 30.92H35.7301V20.25C35.7301 19.34 34.9901 18.59 34.0701 18.59H31.8701C31.6501 18.59 31.4701 18.77 31.4701 18.99C31.4701 19.21 31.6501 19.39 31.8701 19.39H34.0701C34.5401 19.39 34.9201 19.77 34.9201 20.24V30.91H29.3601C29.1701 30.91 29.0001 31.05 28.9601 31.23C28.8401 31.85 28.1801 31.93 28.0801 31.94H24.5201C23.4401 31.94 23.3901 31.37 23.3901 31.31C23.3901 31.09 23.2101 30.91 22.9901 30.91H17.4601V20.24C17.4601 19.77 17.8401 19.39 18.3101 19.39H32.4401C32.6601 19.39 32.8401 19.21 32.8401 18.99C32.8401 18.77 32.6601 18.59 32.4401 18.59H18.3101C17.4001 18.59 16.6501 19.33 16.6501 20.25V30.92H15.9901C15.7701 30.92 15.5901 31.1 15.5901 31.32V31.81C15.5901 33.34 16.8401 34.59 18.3701 34.59H33.9601C35.4901 34.59 36.7401 33.34 36.7401 31.81V31.32C36.7401 31.1 36.5601 30.92 36.3401 30.92" fill="#102345"/>
</svg>
