<svg width="42" height="42" viewBox="0 0 42 42" fill="none" xmlns="http://www.w3.org/2000/svg">
<path d="M31.44 32.4508H11.56C10.17 32.4508 9.04 31.3208 9.04 29.9308V29.8208H17.03C17.23 30.3708 17.8 31.1408 19.39 31.1408H23.95C23.95 31.1408 23.97 31.1408 23.98 31.1408C24.53 31.1108 25.53 30.8008 25.94 29.8208H33.96V29.9308C33.96 31.3208 32.83 32.4508 31.44 32.4508ZM34.47 28.8008H33.68V15.1908C33.68 14.0208 32.73 13.0708 31.56 13.0708H28.75C28.47 13.0708 28.24 13.3008 28.24 13.5908C28.24 13.8808 28.47 14.1008 28.75 14.1008H31.56C32.16 14.1008 32.65 14.5908 32.65 15.1908V28.8008H25.55C25.31 28.8008 25.09 28.9708 25.04 29.2108C24.88 30.0108 24.05 30.1108 23.92 30.1208H19.38C18 30.1208 17.94 29.3908 17.94 29.3108C17.94 29.0308 17.71 28.7908 17.43 28.7908H10.38V15.1808C10.38 14.5808 10.87 14.0908 11.47 14.0908H15.68C15.96 14.0908 16.19 13.8608 16.19 13.5808C16.19 13.3008 15.96 13.0608 15.68 13.0608H11.47C10.3 13.0608 9.35 14.0108 9.35 15.1808V28.7908H8.51C8.23 28.7908 8 29.0208 8 29.3108V29.9408C8 31.9008 9.59 33.4908 11.55 33.4908H31.44C33.4 33.4908 34.99 31.9008 34.99 29.9408V29.3108C34.99 29.0308 34.76 28.7908 34.48 28.7908" fill="#102345"/>
<path d="M18.61 19.6608C18.46 19.7708 18.29 19.7608 18.17 19.6408C17.85 19.3408 17.52 19.0308 17.2 18.7408C17.07 18.6208 16.94 18.5008 16.81 18.3808L16.73 18.3008C16.64 18.2108 16.54 18.1208 16.45 18.0408C16.18 17.7908 15.91 17.5208 15.63 17.2708C15.48 17.1408 15.4 17.0408 15.4 16.9608C15.4 16.8808 15.5 16.7708 15.63 16.6408C15.76 16.5108 15.85 16.5008 15.99 16.6308C16.65 17.2508 17.31 17.8708 17.97 18.4908L18.61 19.0908C18.66 19.1408 18.7 19.1908 18.72 19.2408C18.79 19.3908 18.74 19.5708 18.61 19.6608ZM18.59 16.8708C18.44 17.0208 18.29 17.1808 18.11 17.3908C17.88 17.1708 17.65 16.9608 17.42 16.7408C17.13 16.4708 16.85 16.2008 16.56 15.9308C16.45 15.8308 16.51 15.7208 16.55 15.6708C16.61 15.6008 16.67 15.5308 16.74 15.4608C16.86 15.3408 16.95 15.3408 17.07 15.4608C17.24 15.6208 17.42 15.7808 17.59 15.9508L18.03 16.3608C18.21 16.5308 18.41 16.7108 18.6 16.8908M14.28 18.1408C14.28 18.0708 14.37 17.9708 14.51 17.8208C14.65 17.6708 14.73 17.6708 14.88 17.8208C15.17 18.0908 15.46 18.3608 15.75 18.6308L16.75 19.5708C16.82 19.6408 16.9 19.7108 16.97 19.7808C17.16 19.9608 17.36 20.1408 17.55 20.3308C17.65 20.4308 17.67 20.5908 17.6 20.7308C17.53 20.8608 17.4 20.9208 17.24 20.8908C17.21 20.8908 17.18 20.8808 17.15 20.8608C17.11 20.8208 17.08 20.7808 17.03 20.7408L16.01 19.8408L14.52 18.4408C14.38 18.3008 14.28 18.2008 14.28 18.1408ZM24.36 18.4708C24.29 18.7908 24.22 19.1208 24.14 19.4308C24.08 19.6708 24.14 19.8708 24.32 20.0408C24.59 20.2808 24.85 20.5408 25.11 20.7808C25.33 20.9908 25.56 21.2008 25.79 21.4108C24.86 22.3908 23.91 23.4008 22.89 24.5008C22.64 24.2608 22.38 24.0208 22.13 23.7808C21.89 23.5508 21.64 23.3208 21.4 23.0908C21.28 22.9808 21.15 22.9208 21 22.9208C20.98 22.9208 20.95 22.9208 20.92 22.9208C20.68 22.9508 20.43 22.9708 20.19 22.9908H20.15C19.74 23.0308 19.39 22.9308 19.1 22.6908C18.81 22.4508 18.54 22.1908 18.28 21.9408C18.16 21.8308 18.05 21.7208 17.93 21.6008C18.3 21.3808 18.51 21.0508 18.54 20.6008C18.54 20.6008 18.54 20.6008 18.54 20.5908C18.54 20.5908 18.54 20.5908 18.55 20.5908C18.95 20.5308 19.25 20.3408 19.45 20.0208C19.66 19.6908 19.7 19.3308 19.58 18.9508C19.86 18.9308 20.13 18.8708 20.39 18.7708C20.32 19.2708 20.35 19.7608 20.48 20.2408C20.51 20.3508 20.56 20.4708 20.69 20.5608C20.85 20.6608 21.03 20.6608 21.19 20.5608C21.37 20.4408 21.42 20.2608 21.36 20.0208C21.12 18.9908 21.34 18.1108 22.04 17.3208C22.24 17.0908 22.25 16.8208 22.06 16.6408C21.87 16.4608 21.59 16.4808 21.38 16.7008C21.26 16.8208 21.15 16.9408 21.03 17.0708C20.9 17.2108 20.77 17.3508 20.63 17.4908C20.53 17.6008 20.44 17.6808 20.36 17.7508C19.95 18.0908 19.29 18.1608 18.82 17.9208L19.48 17.2108C20.01 16.6408 20.54 16.0808 21.07 15.5208C21.43 15.1408 21.93 15.1208 22.31 15.4808C22.82 15.9508 23.34 16.4408 23.92 16.9908C24.34 17.3908 24.49 17.8708 24.36 18.4508M21.76 12.4208C21.51 11.6308 21.63 10.8908 22.1 10.2308C22.22 10.0608 22.37 9.90083 22.53 9.74083C22.67 9.60083 22.81 9.45083 22.93 9.29083C23.15 9.01083 23.39 8.90083 23.73 8.93083C23.9 8.94083 24.07 8.93083 24.25 8.93083L23.91 9.29083C23.49 9.74083 23.06 10.2008 22.62 10.6608C22.5 10.7908 22.44 10.9408 22.45 11.1108C22.46 11.3408 22.47 11.6008 22.48 11.8908C22.48 12.0608 22.54 12.1908 22.66 12.3008C22.95 12.5708 23.24 12.8408 23.53 13.1208C23.65 13.2308 23.79 13.2808 23.96 13.2708C24.18 13.2608 24.42 13.2508 24.66 13.2508H24.7C24.9 13.2508 25.06 13.1808 25.2 13.0208C25.6 12.5808 26.02 12.1408 26.42 11.7208C26.55 11.5908 26.67 11.4508 26.8 11.3208V11.3908C26.81 11.7008 26.82 12.0008 26.83 12.3108C26.83 12.3108 26.83 12.3208 26.79 12.3608L26.59 12.5708C26.46 12.7108 26.32 12.8608 26.19 13.0008C26.15 13.0408 26.11 13.0808 26.07 13.1308C25.91 13.3108 25.75 13.4708 25.57 13.6108C24.93 14.0908 24.22 14.2208 23.44 14.0208C23.2 13.9608 23 14.0208 22.85 14.1908C22.8 14.2408 22.76 14.2908 22.7 14.3508C22.65 14.4108 22.59 14.4608 22.54 14.5308C22.54 14.5308 22.53 14.5408 22.52 14.5508C22.52 14.5508 22.51 14.5508 22.49 14.5408C22.01 14.3008 21.5 14.2908 20.98 14.5108C20.68 14.6408 20.46 14.8608 20.3 15.0408C20.2 14.9408 20.11 14.8508 20.02 14.7808C20.02 14.7808 20.02 14.7708 20.03 14.7608C20.25 14.5308 20.47 14.2908 20.69 14.0608C20.99 13.7408 21.3 13.4108 21.61 13.0908C21.8 12.9008 21.84 12.6908 21.76 12.4308M18.18 14.2808C18.35 14.4408 18.52 14.6008 18.69 14.7608L18.92 14.9708C18.99 15.0408 19.06 15.1008 19.13 15.1708C19.31 15.3408 19.5 15.5208 19.69 15.6908C19.54 15.8408 19.37 16.0208 19.21 16.2008C19.21 16.2008 19.21 16.2008 19.2 16.2008C18.86 15.8808 18.51 15.5508 18.18 15.2408L17.84 14.9208C17.72 14.8008 17.6 14.6908 17.6 14.6108C17.6 14.5408 17.71 14.4108 17.83 14.2908C17.9 14.2208 17.95 14.1908 18.01 14.1908C18.06 14.1908 18.12 14.2208 18.19 14.2808M15.19 20.4308C15.19 20.4308 15.25 20.4408 15.28 20.4608L16.21 21.2808L16.43 21.4808C16.43 21.4808 16.45 21.5908 16.41 21.6308L15.09 23.1308C15.09 23.1308 15.03 23.1708 15 23.1808C14.96 23.1808 14.93 23.1708 14.9 23.1508L13.78 22.1708C13.78 22.1708 13.74 22.1108 13.73 22.0808C13.73 22.0408 13.73 22.0108 13.76 21.9808L15.08 20.4808C15.08 20.4808 15.14 20.4408 15.17 20.4308M23.11 25.6108C23.11 25.6108 23.13 25.5908 23.14 25.5708C24.1 24.5508 25.07 23.5208 26.01 22.5208L26.73 21.7508C26.73 21.7508 26.77 21.7108 26.79 21.6908C26.83 21.6508 26.87 21.6108 26.9 21.5708L28.06 22.6508C28.06 22.6508 28.07 22.6708 28.08 22.6808L28.57 23.1408C28.57 23.1408 28.58 23.1508 28.58 23.1608C28.58 23.1608 28.57 23.1708 28.56 23.1808C28.07 23.6908 27.58 24.2208 27.1 24.7308L26.23 25.6508C25.76 26.1508 25.27 26.6708 24.8 27.1808C24.8 27.1808 24.79 27.1908 24.78 27.2008C24.78 27.2008 24.77 27.2008 24.76 27.1808C24.15 26.6008 23.62 26.1008 23.12 25.6408C23.1 25.6308 23.09 25.6108 23.09 25.6108M15.6 15.6508C15.06 15.7708 14.59 16.2708 14.5 16.8208C14.04 16.9208 13.7 17.2308 13.46 17.7408C13.31 18.0608 13.36 18.4108 13.6 18.7908V18.8108L14.55 19.7008C14.49 19.7408 14.44 19.7908 14.39 19.8508L13.07 21.3508C12.88 21.5708 12.79 21.8408 12.81 22.1308C12.83 22.4208 12.96 22.6808 13.18 22.8708L14.3 23.8508C14.51 24.0408 14.79 24.1308 15.08 24.1108C15.37 24.0908 15.63 23.9608 15.82 23.7508L17.14 22.2508C17.14 22.2508 17.18 22.2008 17.2 22.1808L18.58 23.4708H18.6C18.6 23.4708 18.62 23.4908 18.63 23.4908C18.63 23.4908 18.64 23.4908 18.65 23.4908C19.12 23.8208 19.65 23.9608 20.23 23.9208C20.42 23.9008 20.62 23.8908 20.82 23.8608C20.87 23.8608 20.89 23.8608 20.93 23.9008C21.26 24.2108 21.59 24.5208 21.92 24.8308L22.22 25.1108C22.28 25.1608 22.27 25.1808 22.22 25.2308C21.94 25.5208 21.95 25.7508 22.24 26.0308L22.79 26.5408C23.33 27.0508 23.89 27.5708 24.43 28.0908C24.56 28.2208 24.7 28.2808 24.84 28.2808C24.91 28.2808 24.97 28.2708 25.04 28.2408H25.07L29.56 23.4508L29.6 23.4708L29.64 23.3508C29.72 23.1208 29.67 22.9308 29.48 22.7508C28.93 22.2408 28.37 21.7108 27.83 21.2008C27.64 21.0208 27.45 20.8408 27.26 20.6608C26.99 20.4108 26.75 20.4108 26.5 20.6908C26.44 20.7508 26.42 20.7508 26.36 20.6908C26.25 20.5908 26.14 20.4908 26.04 20.3908C25.74 20.1108 25.43 19.8208 25.13 19.5408C25.08 19.4908 25.08 19.4708 25.09 19.4108C25.15 19.1808 25.2 18.9408 25.25 18.7108V18.6608C25.45 17.7608 25.21 16.9808 24.55 16.3408C24.12 15.9308 23.68 15.5208 23.26 15.1308C23.26 15.1308 23.26 15.1308 23.25 15.1208C23.25 15.1208 23.25 15.1208 23.26 15.1108C23.36 14.9808 23.45 14.9508 23.62 14.9808C24.75 15.1408 25.73 14.8008 26.54 13.9708C26.74 13.7608 26.94 13.5508 27.13 13.3408C27.28 13.1808 27.44 13.0108 27.59 12.8508C27.71 12.7308 27.76 12.5808 27.75 12.4108C27.74 12.0808 27.73 11.7508 27.72 11.4208C27.72 11.1908 27.71 10.9508 27.7 10.7208C27.69 10.4508 27.37 10.0608 27.11 10.0108C26.88 9.96083 26.72 10.0908 26.63 10.1908C26.5 10.3308 26.37 10.4708 26.23 10.6108C26.03 10.8208 25.84 11.0308 25.64 11.2408L24.91 12.0208C24.69 12.2508 24.43 12.3708 24.1 12.3708C24.07 12.3708 24.06 12.3708 24.03 12.3408C23.87 12.1808 23.7 12.0308 23.54 11.8808L23.42 11.7708C23.42 11.7708 23.39 11.7508 23.39 11.7408C23.39 11.5608 23.39 11.3808 23.37 11.2008C23.37 11.2008 23.39 11.1808 23.4 11.1608C23.4 11.1608 23.42 11.1408 23.43 11.1308C23.75 10.7808 24.08 10.4408 24.4 10.0908C24.72 9.74083 25.05 9.40083 25.37 9.06083C25.64 8.77083 25.63 8.56083 25.35 8.27083C25.16 8.07083 24.94 7.99083 24.66 8.00083C24.24 8.03083 23.81 8.04083 23.4 8.05083C23.3 8.05083 23.21 8.05083 23.11 8.05083C22.94 8.05083 22.81 8.12083 22.7 8.23083C22.56 8.38083 22.42 8.53083 22.29 8.67083C22.05 8.92083 21.81 9.18083 21.58 9.44083C20.82 10.3108 20.57 11.3308 20.84 12.4808C20.85 12.5508 20.84 12.5608 20.81 12.6008C20.31 13.1208 19.83 13.6408 19.37 14.1308C19.19 13.9608 19.01 13.7808 18.83 13.6208L18.79 13.5908C18.3 13.1408 17.64 13.1608 17.18 13.6408C16.98 13.8408 16.74 14.1008 16.7 14.4708C16.1 14.6408 15.73 15.0408 15.6 15.6408" fill="#102345"/>
</svg>
