<svg width="42" height="42" viewBox="0 0 42 42" fill="none" xmlns="http://www.w3.org/2000/svg">
<path d="M27.93 27.39H26.88V29.49H27.93V27.39ZM32.13 24.77H22.69V30.54C22.69 31.41 23.39 32.11 24.26 32.11H30.55C31.42 32.11 32.12 31.41 32.12 30.54V24.77H32.13ZM24.78 23.72H30.02V22.15C30.02 20.7 28.84 19.53 27.4 19.53C25.96 19.53 24.78 20.7 24.78 22.15V23.72ZM33.18 23.72V30.54C33.18 31.99 32 33.16 30.56 33.16H24.27C22.82 33.16 21.65 31.98 21.65 30.54V23.72H23.75V22.15C23.75 20.13 25.4 18.48 27.42 18.48C29.44 18.48 31.09 20.13 31.09 22.15V23.72H33.19H33.18ZM17.44 17.64L21.86 13.22H25.83V16.59C26.17 16.5 26.52 16.43 26.88 16.4V12.18H21.42L16.39 17.2V22.67H19.54V21.62H17.44V17.64ZM13.25 15.12L15.13 13.24H13.25V15.12ZM13.25 25.82H19.54V26.87H12.2V12.19H17.66L13.25 16.61V25.83V25.82ZM9.05 30.02H19.54V31.07H8V10.62C8 9.17 9.18 8 10.62 8H28.45C29.9 8 31.07 9.17 31.07 10.62V17.71C30.74 17.45 30.4 17.21 30.02 17.02V10.62C30.02 9.75 29.32 9.05 28.45 9.05H10.62C9.75 9.05 9.05 9.75 9.05 10.62V30.02Z" fill="#102345"/>
</svg>
