<svg width="42" height="42" viewBox="0 0 42 42" fill="none" xmlns="http://www.w3.org/2000/svg">
<path d="M19.59 24.533C19.4 23.133 18.68 21.913 17.58 21.083C16.46 20.243 15.06 19.903 13.64 20.123C12.06 20.363 10.71 21.323 9.92004 22.763C9.14004 24.203 9.07004 25.873 9.73004 27.343C10.08 28.123 10.6 28.793 11.28 29.313C11.61 29.573 11.77 29.903 11.76 30.323C11.76 30.563 11.76 30.803 11.76 31.033V31.253C11.76 31.673 11.95 32.003 12.31 32.193C12.31 32.453 12.31 32.713 12.31 32.963V33.603C12.31 33.833 12.31 34.063 12.31 34.293C12.31 34.743 12.52 35.083 12.91 35.293C13.21 35.453 13.49 35.593 13.75 35.733C13.99 35.853 14.23 35.913 14.47 35.913C14.71 35.913 14.95 35.853 15.18 35.733C15.3 35.673 15.42 35.613 15.54 35.543C15.68 35.473 15.82 35.393 15.95 35.333C16.4 35.113 16.63 34.733 16.62 34.223C16.62 33.663 16.62 33.093 16.62 32.543V32.203C16.9 32.043 17.2 31.733 17.17 31.133C17.17 31.043 17.17 30.953 17.17 30.863C17.17 30.743 17.17 30.623 17.17 30.493C17.13 29.983 17.32 29.593 17.79 29.203C19.22 27.993 19.85 26.383 19.59 24.543M15.34 34.483C15.31 34.493 15.29 34.513 15.26 34.523L14.45 35.043L13.93 34.673C13.84 34.623 13.32 34.233 13.32 34.233V33.503C13.32 33.503 13.32 33.453 13.32 33.423V32.403C13.32 32.403 13.32 32.353 13.32 32.323C13.59 32.323 13.86 32.323 14.12 32.323H14.78C15.05 32.323 15.32 32.323 15.6 32.323C15.6 32.353 15.6 32.373 15.6 32.393V34.303L15.34 34.473V34.483ZM17.09 28.443C16.42 29.003 16.11 29.663 16.14 30.463C16.14 30.653 16.14 30.843 16.14 31.033C16.14 31.093 16.14 31.163 16.14 31.223C16.14 31.273 16.09 31.463 16.09 31.463L12.78 31.443V31.303C12.78 31.303 12.78 31.293 12.78 31.283L12.72 29.763C12.61 29.273 12.35 28.873 11.96 28.553C11.24 27.983 10.76 27.303 10.5 26.473C10.14 25.343 10.3 24.093 10.93 23.073C11.56 22.043 12.6 21.343 13.77 21.143C14.9 20.953 16.02 21.223 16.94 21.893C17.84 22.553 18.42 23.533 18.58 24.653C18.79 26.183 18.3 27.453 17.1 28.453" fill="#102345"/>
<path d="M17.68 15.2431C18.4 15.4531 19.11 15.7431 19.86 16.1331C20.12 16.2631 20.38 16.2931 20.61 16.2031C20.82 16.1131 20.98 15.9331 21.06 15.6931C21.14 15.4631 21.17 15.0231 20.58 14.7031C18.93 13.8231 17.12 13.3131 15.21 13.1931C13.3 13.0831 11.46 13.3631 9.73 14.0231C9.26 14.2031 9.02 14.4531 9 14.7731C9 14.8831 9.01 14.9931 9.06 15.1131C9.14 15.3231 9.27 15.4831 9.44 15.5631C9.73 15.6931 10.05 15.6031 10.3 15.5131C12.72 14.6231 15.21 14.5331 17.69 15.2431" fill="#102345"/>
<path d="M15.3 15.723C14.09 15.623 13.19 15.673 12.26 15.863C11.8 15.963 11.39 16.083 11.01 16.233C10.71 16.353 10.58 16.633 10.68 16.933C10.79 17.233 11.07 17.373 11.38 17.283C11.42 17.273 11.45 17.263 11.48 17.243C11.49 17.243 11.51 17.233 11.53 17.223C13.27 16.623 15.05 16.623 16.81 17.203C17.27 17.353 17.72 17.553 18.19 17.823C18.46 17.973 18.67 17.903 18.8 17.813C18.94 17.713 19.03 17.563 19.04 17.393C19.04 17.353 19.04 17.323 19.04 17.283C19.02 17.003 18.79 16.873 18.67 16.813C17.77 16.313 16.83 16.003 15.88 15.793L15.29 15.713L15.3 15.723Z" fill="#102345"/>
<path d="M14.34 17.603C14.34 17.603 13.86 17.633 13.61 17.663C13.21 17.713 12.81 17.803 12.42 17.943C12.16 18.043 12.04 18.253 12.12 18.493C12.19 18.683 12.37 18.843 12.69 18.743C12.71 18.743 12.74 18.733 12.76 18.723C12.77 18.723 12.79 18.723 12.8 18.713C13.71 18.413 14.64 18.393 15.57 18.643C15.95 18.743 16.32 18.903 16.68 19.103C17.01 19.293 17.2 19.103 17.27 19.013C17.32 18.943 17.35 18.863 17.36 18.783C17.36 18.743 17.36 18.713 17.36 18.673C17.34 18.583 17.28 18.463 17.11 18.353C16.41 17.953 15.64 17.713 14.82 17.633L14.34 17.583V17.603Z" fill="#102345"/>
<path d="M16.3 25.2731H12.72C12.48 25.2731 12.28 25.4731 12.28 25.7131C12.28 25.9531 12.48 26.1531 12.72 26.1531H14.07V31.9231C14.07 32.1631 14.27 32.3631 14.51 32.3631C14.75 32.3631 14.95 32.1631 14.95 31.9231V26.1531H16.3C16.54 26.1531 16.74 25.9531 16.74 25.7131C16.74 25.4731 16.54 25.2731 16.3 25.2731Z" fill="#102345"/>
<path d="M32.41 20.963C32.29 20.063 31.82 19.273 31.11 18.733C30.39 18.193 29.48 17.973 28.56 18.113C27.54 18.263 26.66 18.893 26.16 19.823C25.65 20.753 25.61 21.833 26.04 22.783C26.27 23.293 26.61 23.713 27.04 24.063C27.25 24.233 27.36 24.443 27.35 24.723C27.35 24.873 27.35 25.033 27.35 25.183V25.323C27.35 25.593 27.47 25.803 27.71 25.933C27.71 26.103 27.71 26.263 27.71 26.433V26.843C27.71 26.993 27.71 27.143 27.71 27.293C27.71 27.583 27.85 27.803 28.1 27.943C28.29 28.043 28.47 28.143 28.64 28.223C28.79 28.303 28.95 28.343 29.1 28.343C29.25 28.343 29.41 28.303 29.56 28.233C29.64 28.193 29.72 28.153 29.79 28.113C29.88 28.063 29.97 28.023 30.06 27.973C30.35 27.833 30.5 27.583 30.49 27.253C30.49 26.893 30.49 26.523 30.49 26.163V25.943C30.67 25.843 30.86 25.643 30.85 25.253C30.85 25.193 30.85 25.133 30.85 25.073C30.85 24.993 30.85 24.913 30.85 24.833C30.83 24.503 30.95 24.253 31.25 23.993C32.17 23.213 32.58 22.163 32.42 20.973M29.66 27.403C29.64 27.413 29.62 27.423 29.61 27.433L29.09 27.763L28.75 27.523C28.69 27.493 28.36 27.243 28.36 27.243V26.773C28.36 26.773 28.36 26.743 28.36 26.723V26.063C28.36 26.063 28.36 26.033 28.36 26.013C28.53 26.013 28.71 26.013 28.88 26.013H29.31C29.48 26.013 29.66 26.013 29.84 26.013C29.84 26.033 29.84 26.043 29.84 26.063V27.303L29.67 27.413L29.66 27.403ZM30.79 23.493C30.36 23.853 30.15 24.283 30.18 24.803C30.18 24.923 30.18 25.053 30.18 25.173C30.18 25.213 30.18 25.253 30.18 25.293C30.18 25.323 30.15 25.443 30.15 25.443L28.01 25.423V25.333C28.01 25.333 28.01 25.333 28.01 25.323L27.97 24.343C27.9 24.023 27.73 23.763 27.48 23.563C27.01 23.193 26.7 22.753 26.53 22.213C26.3 21.483 26.4 20.673 26.81 20.013C27.22 19.343 27.89 18.893 28.65 18.763C29.38 18.643 30.11 18.813 30.7 19.243C31.28 19.673 31.66 20.303 31.76 21.023C31.9 22.013 31.58 22.843 30.81 23.483" fill="#102345"/>
<path d="M30.28 21.443H27.96C27.8 21.443 27.67 21.573 27.67 21.733C27.67 21.893 27.8 22.023 27.96 22.023H28.83V25.753C28.83 25.913 28.96 26.043 29.12 26.043C29.28 26.043 29.41 25.913 29.41 25.753V22.023H30.28C30.44 22.023 30.57 21.893 30.57 21.733C30.57 21.573 30.44 21.443 30.28 21.443Z" fill="#102345"/>
<path d="M30.59 13.903L28.83 16.393M28.83 16.393L26.48 14.453M28.83 16.393C27.89 9.41304 24.33 7.08304 21.47 7.00304C16.99 6.87304 15.11 10.953 15.11 10.953" stroke="#102345" stroke-width="0.56" stroke-linecap="round" stroke-linejoin="round"/>
</svg>
