<?xml version="1.0" encoding="utf-8"?>
<!-- Generator: Adobe Illustrator 25.4.1, SVG Export Plug-In . SVG Version: 6.00 Build 0)  -->
<svg version="1.1" id="Calque_1" xmlns="http://www.w3.org/2000/svg" xmlns:xlink="http://www.w3.org/1999/xlink" x="0px" y="0px"
	 viewBox="0 0 24 24" style="enable-background:new 0 0 24 24;" xml:space="preserve">
<path d="M22,12c0,5.1-3.9,9.3-8.8,10v-6.9h2.7l0.5-3.1h-3.2v-1.1c0-1.6,0.6-2.3,2.3-2.3c0.5,0,0.9,0,1.1,0V6
	c-0.4-0.2-1.5-0.3-2.1-0.3c-3.4,0-4.9,1.6-4.9,5V12H7.5v3.1h2.1v6.6C5.2,20.6,2,16.7,2,12C2,6.5,6.5,2,12,2C17.5,2,22,6.5,22,12z"/>
</svg>
