<svg width="42" height="42" viewBox="0 0 42 42" fill="none" xmlns="http://www.w3.org/2000/svg">
<path d="M29.75 26.95C29.66 26.95 29.58 26.92 29.51 26.85L28.92 26.26C28.79 26.13 28.79 25.91 28.92 25.78C29.05 25.65 29.27 25.65 29.4 25.78L29.75 26.13L31.89 23.99C32.02 23.86 32.24 23.86 32.37 23.99C32.5 24.12 32.5 24.34 32.37 24.47L30 26.84C29.93 26.91 29.85 26.94 29.76 26.94" fill="#102345"/>
<path d="M28.3602 27.53H32.8402V23.05H28.3602V27.53ZM33.1102 28.21H28.0902C27.8702 28.21 27.6802 28.03 27.6802 27.8V22.78C27.6802 22.55 27.8602 22.37 28.0902 22.37H33.1102C33.3302 22.37 33.5202 22.55 33.5202 22.78V27.8C33.5202 28.02 33.3402 28.21 33.1102 28.21Z" fill="#102345"/>
<path d="M28.0201 25.77H25.4301C25.2401 25.77 25.0901 25.62 25.0901 25.43C25.0901 25.24 25.2401 25.09 25.4301 25.09H28.0201C28.2101 25.09 28.3601 25.24 28.3601 25.43C28.3601 25.62 28.2101 25.77 28.0201 25.77Z" fill="#102345"/>
<path d="M21.9001 24.27C21.2601 24.27 20.7401 24.79 20.7401 25.43C20.7401 26.07 21.2601 26.59 21.9001 26.59C22.5401 26.59 23.0601 26.07 23.0601 25.43C23.0601 24.79 22.5401 24.27 21.9001 24.27ZM21.9001 27.27C20.8901 27.27 20.0601 26.45 20.0601 25.43C20.0601 24.41 20.8801 23.59 21.9001 23.59C22.9201 23.59 23.7401 24.41 23.7401 25.43C23.7401 26.45 22.9201 27.27 21.9001 27.27Z" fill="#102345"/>
<path d="M21.5301 28.58H22.2401V28.04C22.2601 27.91 22.3301 27.8 22.4501 27.74L23.2101 27.38C23.3401 27.32 23.5001 27.35 23.6001 27.45L23.9301 27.8L24.3801 27.39L24.0301 27C23.9501 26.91 23.9201 26.78 23.9601 26.66L24.1901 25.97C24.2401 25.83 24.3701 25.74 24.5101 25.74H25.1101V25.12H24.5301C24.4001 25.12 24.2801 25.04 24.2201 24.92L23.9201 24.26C23.8601 24.13 23.8901 23.98 23.9901 23.88L24.3701 23.5L23.9001 22.98L23.4701 23.4C23.3701 23.5 23.2201 23.52 23.0901 23.46L22.5101 23.18C22.3901 23.12 22.3201 23 22.3201 22.88V22.28H21.5201V22.83C21.5201 22.95 21.4501 23.07 21.3401 23.13L20.6801 23.49C20.5501 23.56 20.3901 23.54 20.2801 23.43L19.8801 23.03L19.4101 23.5L19.7701 23.9C19.8601 24 19.8801 24.13 19.8401 24.25L19.5601 24.96C19.5101 25.1 19.3701 25.18 19.2301 25.17L18.7501 25.14V25.75L19.2901 25.73C19.4301 25.73 19.5601 25.81 19.6101 25.94L19.9101 26.7C19.9701 26.84 19.9201 27 19.8101 27.09L19.4401 27.39L19.9201 27.87L20.2701 27.51C20.3601 27.42 20.5001 27.38 20.6201 27.42L21.3101 27.65C21.4501 27.7 21.5401 27.83 21.5401 27.97V28.55L21.5301 28.58ZM22.5601 29.25H21.1901C21.0001 29.25 20.8501 29.1 20.8501 28.91V28.24L20.6001 28.16L20.1601 28.62C20.1001 28.68 20.0101 28.72 19.9201 28.72C19.8301 28.72 19.7401 28.68 19.6801 28.62L18.6901 27.63C18.6201 27.56 18.5901 27.47 18.5901 27.37C18.5901 27.27 18.6401 27.19 18.7101 27.13L19.1801 26.75L19.0601 26.44L18.4101 26.46C18.3201 26.46 18.2301 26.43 18.1601 26.37C18.1001 26.31 18.0601 26.22 18.0601 26.13V24.81C18.0601 24.72 18.1001 24.63 18.1701 24.56C18.2401 24.49 18.3301 24.46 18.4201 24.47L19.0101 24.51L19.1201 24.22L18.6801 23.74C18.5601 23.61 18.5601 23.4 18.6801 23.27L19.6201 22.33C19.7501 22.2 19.9701 22.2 20.1001 22.33L20.5601 22.79L20.8201 22.65V21.96C20.8201 21.77 20.9701 21.62 21.1601 21.62H22.6301C22.8201 21.62 22.9701 21.77 22.9701 21.96V22.69L23.1501 22.78L23.6701 22.28C23.7401 22.22 23.8201 22.18 23.9201 22.18C24.0101 22.18 24.1001 22.22 24.1601 22.29L25.0801 23.31C25.2001 23.44 25.1901 23.65 25.0701 23.77L24.6301 24.21L24.7501 24.46H25.4501C25.6401 24.46 25.7901 24.61 25.7901 24.8V26.09C25.7901 26.28 25.6401 26.43 25.4501 26.43H24.7501L24.6601 26.69L25.1101 27.18C25.1701 27.25 25.2001 27.33 25.2001 27.42C25.2001 27.51 25.1601 27.59 25.0901 27.66L24.1501 28.52C24.0101 28.64 23.8001 28.64 23.6801 28.51L23.2901 28.1L22.9401 28.26L22.9201 28.91C22.9201 29.09 22.7601 29.24 22.5801 29.24" fill="#102345"/>
<path d="M6.81 12.59C6.83 11.81 6.82 11.02 6.81 10.24C6.81 10.06 6.86 10.01 7.04 10.02C7.43 10.03 7.82 10.03 8.2 10.02C8.39 10.02 8.45 10.06 8.44 10.26C8.41 10.84 8.59 11.34 9.06 11.7C9.58 12.1 10.16 12.17 10.75 11.88C11.33 11.6 11.63 11.12 11.67 10.48C11.7 10.02 11.69 10.02 12.14 10.02H20.21C20.46 10.02 20.58 10.14 20.59 10.39C20.59 11.3 21.26 12.01 22.13 12.04C23.06 12.08 23.81 11.36 23.83 10.41C23.83 10.15 23.97 10.01 24.23 10.01C24.58 10.01 24.94 10.01 25.29 10.01C25.41 10.01 25.45 10.04 25.45 10.17C25.45 11.01 25.45 11.86 25.45 12.7C25.45 12.86 25.37 12.85 25.26 12.85C24.62 12.85 23.98 12.85 23.34 12.85H16.13C13.12 12.85 10.11 12.85 7.1 12.85C6.89 12.85 6.81 12.81 6.82 12.58M9.41 8.8C9.84 8.8 10.27 8.8 10.7 8.8C10.84 8.8 10.87 8.86 10.86 8.98C10.86 9.22 10.86 9.47 10.86 9.71C10.86 9.95 10.86 10.18 10.86 10.42C10.85 10.88 10.5 11.23 10.06 11.23C9.61 11.23 9.25 10.88 9.24 10.41C9.24 9.93 9.24 9.45 9.24 8.97C9.24 8.84 9.28 8.8 9.41 8.8ZM21.55 8.8C21.98 8.8 22.41 8.8 22.84 8.8C22.98 8.8 23.01 8.84 23.01 8.97C23.01 9.21 23.01 9.46 23.01 9.7C23.01 9.94 23.01 10.19 23.01 10.43C22.99 10.88 22.63 11.23 22.19 11.22C21.76 11.22 21.4 10.87 21.4 10.43C21.39 9.94 21.4 9.45 21.4 8.96C21.4 8.84 21.43 8.78 21.57 8.78M16.57 26.62C13.4 26.62 10.23 26.62 7.06 26.62C6.87 26.62 6.81 26.58 6.81 26.37C6.81 22.21 6.81 18.05 6.81 13.9C6.81 13.69 6.87 13.65 7.06 13.65C10.08 13.65 13.1 13.65 16.12 13.65C19.14 13.65 22.16 13.65 25.18 13.65C25.38 13.65 25.45 13.69 25.45 13.91C25.45 15.71 25.45 17.52 25.45 19.33H26.25C26.25 16.16 26.25 12.99 26.25 9.82C26.25 9.31 26.15 9.21 25.63 9.21C25.11 9.21 24.55 9.21 24.01 9.21C23.87 9.21 23.81 9.18 23.82 9.03C23.83 8.83 23.82 8.63 23.82 8.42C23.82 8.16 23.66 8 23.41 8C22.6 8 21.79 8 20.98 8C20.74 8 20.59 8.16 20.58 8.4C20.58 8.57 20.56 8.74 20.58 8.91C20.61 9.15 20.54 9.22 20.29 9.22C17.51 9.22 14.74 9.22 11.96 9.22C11.91 9.22 11.86 9.22 11.81 9.22C11.7 9.23 11.66 9.18 11.67 9.07C11.67 8.86 11.67 8.65 11.67 8.44C11.67 8.17 11.51 8.01 11.25 8.01C10.46 8.01 9.66 8.01 8.87 8.01C8.59 8.01 8.44 8.17 8.43 8.46C8.43 8.64 8.42 8.83 8.43 9.02C8.44 9.18 8.39 9.24 8.22 9.23C7.67 9.23 7.12 9.23 6.58 9.23C6.12 9.23 6 9.35 6 9.82V18.35V26.85C6 27.35 6.11 27.45 6.61 27.45C9.93 27.45 13.25 27.45 16.56 27.45V26.65L16.57 26.62Z" fill="#102345"/>
<path d="M14.91 24.1999C14.91 23.7599 14.55 23.3899 14.11 23.3899C13.66 23.3899 13.29 23.7499 13.29 24.2099C13.29 24.6499 13.66 25.0099 14.1 25.0099C14.54 25.0099 14.91 24.6399 14.91 24.2099M14.1 22.5699C15 22.5699 15.72 23.2999 15.72 24.1999C15.72 25.0899 14.98 25.8199 14.08 25.8099C13.2 25.8099 12.48 25.0799 12.48 24.1899C12.48 23.2899 13.21 22.5699 14.1 22.5699Z" fill="#102345"/>
<path d="M14.0901 19.33C13.6501 19.33 13.2901 19.7 13.2901 20.14C13.2901 20.59 13.6701 20.96 14.1201 20.94C14.5601 20.93 14.9101 20.55 14.9001 20.11C14.8901 19.67 14.5201 19.31 14.0801 19.32L14.0901 19.33ZM14.0901 21.76C13.2001 21.76 12.4701 21.02 12.4801 20.12C12.4801 19.23 13.2301 18.51 14.1201 18.52C15.0101 18.53 15.7301 19.27 15.7201 20.17C15.7101 21.05 14.9701 21.77 14.0901 21.76Z" fill="#102345"/>
<path d="M14.91 16.1C14.91 15.66 14.56 15.29 14.11 15.28C13.66 15.28 13.29 15.64 13.29 16.09C13.29 16.53 13.65 16.89 14.1 16.89C14.54 16.89 14.91 16.53 14.91 16.09V16.1ZM14.09 14.47C14.99 14.47 15.72 15.19 15.72 16.09C15.72 16.98 14.99 17.71 14.1 17.71C13.22 17.71 12.49 16.99 12.48 16.11C12.48 15.21 13.2 14.48 14.09 14.47Z" fill="#102345"/>
<path d="M23.03 16.09C23.04 15.64 22.71 15.28 22.26 15.26C21.81 15.24 21.44 15.58 21.43 16.02C21.41 16.48 21.76 16.85 22.21 16.86C22.66 16.87 23.02 16.53 23.03 16.08V16.09ZM22.2 17.68C21.3 17.66 20.59 16.94 20.6 16.04C20.61 15.14 21.35 14.43 22.25 14.45C23.15 14.47 23.86 15.21 23.83 16.1C23.8 16.99 23.08 17.69 22.19 17.68H22.2Z" fill="#102345"/>
<path d="M18.17 15.28C17.71 15.28 17.34 15.64 17.35 16.09C17.35 16.52 17.73 16.9 18.16 16.89C18.6 16.89 18.96 16.53 18.96 16.09C18.96 15.64 18.62 15.28 18.17 15.28ZM19.78 16.08C19.78 16.98 19.06 17.7 18.16 17.7C17.28 17.7 16.54 16.95 16.54 16.07C16.54 15.18 17.28 14.46 18.18 14.47C19.07 14.47 19.78 15.19 19.78 16.08Z" fill="#102345"/>
<path d="M10.0602 23.3799C9.85018 23.3799 9.64018 23.3899 9.43018 23.3799C9.27018 23.3699 9.23018 23.4299 9.24018 23.5799C9.24018 23.9899 9.24018 24.3999 9.24018 24.8199C9.24018 24.9599 9.27018 25.0099 9.42018 25.0099C9.84018 24.9999 10.2602 24.9999 10.6802 25.0099C10.8302 25.0099 10.8602 24.9599 10.8602 24.8199C10.8602 24.3999 10.8602 23.9799 10.8602 23.5599C10.8602 23.4299 10.8302 23.3799 10.6902 23.3899C10.4802 23.3999 10.2702 23.3899 10.0602 23.3899M8.43018 24.1899C8.43018 23.8099 8.43018 23.4299 8.43018 23.0499C8.43018 22.7199 8.58018 22.5699 8.91018 22.5699C9.67018 22.5699 10.4302 22.5699 11.1902 22.5699C11.5202 22.5699 11.6702 22.7199 11.6702 23.0499C11.6702 23.8099 11.6702 24.5699 11.6702 25.3299C11.6702 25.6599 11.5202 25.8099 11.1902 25.8099C10.4302 25.8099 9.67018 25.8099 8.91018 25.8099C8.58018 25.8099 8.43018 25.6599 8.43018 25.3299C8.43018 24.9499 8.43018 24.5699 8.43018 24.1899Z" fill="#102345"/>
<path d="M10.8602 20.15C10.8602 19.94 10.8602 19.73 10.8602 19.52C10.8602 19.38 10.8202 19.33 10.6802 19.33C10.2602 19.33 9.84018 19.33 9.42018 19.33C9.27018 19.33 9.24018 19.38 9.24018 19.52C9.24018 19.94 9.24018 20.36 9.24018 20.78C9.24018 20.91 9.28018 20.96 9.41018 20.95C9.84018 20.95 10.2702 20.95 10.7002 20.95C10.8402 20.95 10.8702 20.9 10.8702 20.77C10.8702 20.56 10.8702 20.35 10.8702 20.14L10.8602 20.15ZM10.0802 18.52C10.4502 18.52 10.8202 18.52 11.1902 18.52C11.5202 18.52 11.6702 18.67 11.6702 19C11.6702 19.76 11.6702 20.52 11.6702 21.28C11.6702 21.61 11.5202 21.76 11.1902 21.76C10.4302 21.76 9.67018 21.76 8.91018 21.76C8.58018 21.76 8.43018 21.61 8.43018 21.28C8.43018 20.52 8.43018 19.76 8.43018 19C8.43018 18.67 8.58018 18.52 8.91018 18.52C9.30018 18.52 9.69018 18.52 10.0702 18.52H10.0802Z" fill="#102345"/>
<path d="M10.0602 16.9C10.2702 16.9 10.4802 16.9 10.6902 16.9C10.8202 16.9 10.8602 16.86 10.8602 16.73C10.8602 16.3 10.8602 15.87 10.8602 15.44C10.8602 15.3 10.8002 15.28 10.6802 15.28C10.2602 15.28 9.84018 15.28 9.42018 15.28C9.27018 15.28 9.23018 15.32 9.24018 15.47C9.24018 15.87 9.25018 16.28 9.24018 16.68C9.24018 16.88 9.31018 16.92 9.48018 16.91C9.67018 16.9 9.87018 16.91 10.0602 16.91V16.9ZM10.0802 14.47C10.4502 14.47 10.8202 14.47 11.1902 14.47C11.5202 14.47 11.6702 14.62 11.6702 14.95C11.6702 15.71 11.6702 16.47 11.6702 17.23C11.6702 17.56 11.5202 17.71 11.1902 17.71C10.4302 17.71 9.67018 17.71 8.91018 17.71C8.58018 17.71 8.43018 17.56 8.43018 17.23C8.43018 16.47 8.43018 15.71 8.43018 14.95C8.43018 14.62 8.58018 14.47 8.91018 14.47C9.30018 14.47 9.69018 14.47 10.0702 14.47" fill="#102345"/>
<path d="M33.58 33.84H18.2C17.13 33.84 16.26 32.97 16.26 31.9V31.81H22.44C22.59 32.23 23.03 32.83 24.27 32.83H27.82C28.24 32.81 29.02 32.57 29.33 31.81H35.53V31.9C35.53 32.97 34.66 33.84 33.59 33.84M35.93 31.01H35.32V20.49C35.32 19.59 34.58 18.85 33.68 18.85H31.51C31.29 18.85 31.11 19.03 31.11 19.25C31.11 19.47 31.29 19.65 31.51 19.65H33.68C34.14 19.65 34.52 20.03 34.52 20.49V31.01H29.03C28.84 31.01 28.68 31.14 28.64 31.33C28.52 31.95 27.87 32.02 27.78 32.03H24.27C23.21 32.03 23.16 31.47 23.16 31.41C23.16 31.19 22.98 31.01 22.76 31.01H17.31V20.49C17.31 20.03 17.69 19.65 18.15 19.65H32.09C32.31 19.65 32.49 19.47 32.49 19.25C32.49 19.03 32.31 18.85 32.09 18.85H18.15C17.25 18.85 16.51 19.59 16.51 20.49V31.01H15.86C15.64 31.01 15.46 31.19 15.46 31.41V31.89C15.46 33.4 16.69 34.63 18.2 34.63H33.58C35.09 34.63 36.32 33.4 36.32 31.89V31.41C36.32 31.19 36.14 31.01 35.92 31.01" fill="#102345"/>
</svg>
