<svg width="42" height="42" viewBox="0 0 42 42" fill="none" xmlns="http://www.w3.org/2000/svg">
<path d="M33.72 20.48L29.23 21.19" stroke="#102345" stroke-width="0.94" stroke-linecap="round" stroke-linejoin="round"/>
<path d="M28.77 12.85L26.04 16.49" stroke="#102345" stroke-width="0.94" stroke-linecap="round" stroke-linejoin="round"/>
<path d="M17.3701 10.51L18.5501 14.91" stroke="#102345" stroke-width="0.94" stroke-linecap="round" stroke-linejoin="round"/>
<path d="M9.06006 16.73L13.0401 18.94" stroke="#102345" stroke-width="0.94" stroke-linecap="round" stroke-linejoin="round"/>
<path d="M31.82 30.87C33.2 28.75 34 26.22 34 23.5C34 16.04 27.96 10 20.5 10C13.04 10 7 16.05 7 23.5C7 25.74 7.54 27.85 8.51 29.7L9.72 26.31L13.02 27.97C12.23 26.66 11.78 25.13 11.78 23.49C11.78 18.68 15.68 14.77 20.5 14.77C25.32 14.77 29.22 18.67 29.22 23.49C29.22 25.15 28.76 26.7 27.95 28.02L28.04 31.66L31.82 30.85V30.87Z" stroke="#102345" stroke-width="0.94" stroke-linecap="round" stroke-linejoin="round"/>
<path d="M26.03 20.12L24.77 23.95L23.53 20.12H22.37L21.1 23.92L19.88 20.12H18.58L20.36 25.53H21.7L22.93 21.87L24.12 25.53H25.46L27.23 20.12H26.03ZM15.5 25.53H16.75V21.14H18.48V20.12H13.77V21.14H15.5V25.53Z" fill="#102345"/>
</svg>
