<?xml version="1.0" encoding="utf-8"?>
<!-- Generator: Adobe Illustrator 25.4.1, SVG Export Plug-In . SVG Version: 6.00 Build 0)  -->
<svg version="1.1" id="Calque_1" xmlns="http://www.w3.org/2000/svg" xmlns:xlink="http://www.w3.org/1999/xlink" x="0px" y="0px"
	 viewBox="0 0 26 26" style="enable-background:new 0 0 26 26;" xml:space="preserve">
<g>
	<path d="M13,21.7C13,21.7,13,21.7,13,21.7c-4.8,0-8.7-3.9-8.7-8.7S8.2,4.3,13,4.3c0,0,0,0,0,0c4.8,0,8.7,3.9,8.7,8.7
		S17.8,21.7,13,21.7C13,21.7,13,21.7,13,21.7z M16.2,16.7c-0.4,1.5-1.2,2.8-2.1,4c2.2-0.3,4.1-1.6,5.3-3.4
		C18.5,17,17.4,16.8,16.2,16.7z M6.5,17.3c1.2,1.8,3.1,3,5.3,3.4c-1-1.2-1.7-2.6-2.1-4C8.6,16.8,7.5,17,6.5,17.3z M10.7,16.6
		c0.5,1.5,1.2,2.9,2.3,4c1-1.1,1.8-2.5,2.3-4C13.8,16.4,12.2,16.4,10.7,16.6z M16.5,15.7c1.2,0.2,2.4,0.4,3.5,0.7
		c0.5-0.9,0.7-1.9,0.8-3h-4C16.7,14.2,16.6,15,16.5,15.7z M5.2,13.5c0.1,1.1,0.4,2.1,0.8,3c1.1-0.3,2.2-0.6,3.5-0.7
		c-0.2-0.7-0.3-1.5-0.3-2.3H5.2z M13,15.5c0.9,0,1.7,0,2.5,0.1c0.2-0.7,0.3-1.4,0.3-2.2h-5.6c0,0.7,0.1,1.5,0.3,2.2
		C11.3,15.6,12.1,15.5,13,15.5z M16.8,12.5h4c-0.1-1.1-0.4-2.1-0.8-3c-1.1,0.3-2.2,0.6-3.5,0.7C16.6,11,16.7,11.8,16.8,12.5z
		 M10.2,12.5h5.6c0-0.7-0.1-1.5-0.3-2.2c-1.6,0.2-3.4,0.2-5.1,0C10.3,11.1,10.2,11.8,10.2,12.5z M5.2,12.5h4c0-0.8,0.1-1.5,0.3-2.3
		C8.3,10.1,7.1,9.8,6,9.5C5.6,10.4,5.3,11.4,5.2,12.5z M10.7,9.4c1.5,0.1,3.1,0.1,4.6,0c-0.5-1.5-1.2-2.9-2.3-4
		C12,6.6,11.2,7.9,10.7,9.4z M6.5,8.7c1,0.3,2.1,0.5,3.2,0.7c0.4-1.5,1.2-2.9,2.1-4C9.7,5.6,7.7,6.9,6.5,8.7z M14.1,5.3
		c1,1.2,1.7,2.6,2.1,4c1.2-0.1,2.2-0.4,3.2-0.7C18.3,6.9,16.3,5.6,14.1,5.3z"/>
</g>
</svg>
