<?xml version="1.0" encoding="utf-8"?>
<!-- Generator: Adobe Illustrator 25.4.1, SVG Export Plug-In . SVG Version: 6.00 Build 0)  -->
<svg version="1.1" id="Calque_1" xmlns="http://www.w3.org/2000/svg" xmlns:xlink="http://www.w3.org/1999/xlink" x="0px" y="0px"
	 viewBox="0 0 24 24" style="enable-background:new 0 0 24 24;" xml:space="preserve">
<path d="M12,7.5c2.5,0,4.5,2,4.5,4.5c0,2.5-2,4.5-4.5,4.5c-2.5,0-4.5-2-4.5-4.5C7.5,9.5,9.5,7.5,12,7.5z M12,14.9
	c1.6,0,2.9-1.3,2.9-2.9c0-1.6-1.3-2.9-2.9-2.9c-1.6,0-2.9,1.3-2.9,2.9C9.1,13.6,10.4,14.9,12,14.9z M17.7,7.3c0-0.6-0.5-1.1-1.1-1.1
	c-0.6,0-1.1,0.5-1.1,1.1s0.5,1.1,1.1,1.1C17.3,8.4,17.7,7.9,17.7,7.3z M20.7,8.4c0.1,1.4,0.1,5.8,0,7.2c-0.1,1.4-0.4,2.6-1.4,3.7
	c-1,1-2.3,1.3-3.7,1.4c-1.4,0.1-5.8,0.1-7.2,0c-1.4-0.1-2.6-0.4-3.7-1.4c-1-1.1-1.3-2.3-1.4-3.7c-0.1-1.4-0.1-5.8,0-7.2
	C3.4,7,3.7,5.7,4.7,4.7c1.1-1,2.3-1.3,3.7-1.4c1.4-0.1,5.8-0.1,7.2,0c1.4,0.1,2.7,0.4,3.7,1.4C20.3,5.7,20.6,7,20.7,8.4z M18.8,17.1
	c0.5-1.1,0.4-3.9,0.4-5.2c0-1.2,0.1-4-0.4-5.2c-0.3-0.7-0.9-1.4-1.6-1.6C16,4.7,13.3,4.8,12,4.8c-1.3,0-4-0.1-5.2,0.4
	C6.1,5.5,5.5,6.1,5.2,6.8C4.7,8,4.8,10.7,4.8,12c0,1.3-0.1,4,0.4,5.2c0.3,0.8,0.9,1.4,1.7,1.7c1.1,0.5,3.9,0.4,5.2,0.4
	c1.2,0,4,0.1,5.2-0.4C17.9,18.5,18.5,17.9,18.8,17.1z"/>
</svg>
