<?xml version="1.0" encoding="utf-8"?>
<!-- Generator: Adobe Illustrator 25.4.1, SVG Export Plug-In . SVG Version: 6.00 Build 0)  -->
<svg version="1.1" id="Calque_1" xmlns="http://www.w3.org/2000/svg" xmlns:xlink="http://www.w3.org/1999/xlink" x="0px" y="0px"
	 viewBox="0 0 24 24" style="enable-background:new 0 0 24 24;" xml:space="preserve">
<path d="M19.5,3.2c0.7,0,1.2,0.6,1.2,1.3v15c0,0.7-0.6,1.2-1.2,1.2h-15c-0.7,0-1.2-0.5-1.2-1.2v-15c0-0.7,0.5-1.3,1.2-1.3H19.5z
	 M8.5,18.2V9.9H5.9v8.3H8.5z M7.2,8.8c0.8,0,1.5-0.7,1.5-1.5c0-0.8-0.7-1.5-1.5-1.5c-0.9,0-1.5,0.7-1.5,1.5C5.7,8.1,6.4,8.8,7.2,8.8
	z M18.2,18.2v-4.6c0-2.2-0.5-4-3.1-4c-1.2,0-2.1,0.7-2.5,1.4h0V9.9h-2.5v8.3h2.6v-4.1c0-1.1,0.2-2.1,1.6-2.1c1.3,0,1.3,1.2,1.3,2.2
	v4.1H18.2z"/>
</svg>
