<svg width="42" height="42" viewBox="0 0 42 42" fill="none" xmlns="http://www.w3.org/2000/svg">
<path d="M27.0532 7.03L26.5132 8.68L25.9832 7.03H25.4832L24.9332 8.66L24.4132 7.03H23.8532L24.6132 9.35H25.1832L25.7132 7.78L26.2232 9.35H26.8032L27.5632 7.03H27.0432H27.0532ZM22.6832 8.95H22.0532V8.38H22.6832C22.9732 8.38 23.1132 8.48 23.1132 8.67C23.1132 8.77 23.0732 8.84 23.0032 8.89C22.9332 8.94 22.8232 8.96 22.6832 8.96M22.5932 7.43C22.7232 7.43 22.8232 7.45 22.8932 7.5C22.9632 7.54 22.9932 7.61 22.9932 7.7C22.9932 7.79 22.9632 7.86 22.8932 7.91C22.8232 7.96 22.7232 7.98 22.5932 7.98H22.0532V7.43H22.5932ZM23.2332 8.14C23.3332 8.09 23.4032 8.02 23.4632 7.93C23.5232 7.84 23.5432 7.74 23.5432 7.63C23.5432 7.44 23.4632 7.3 23.3132 7.19C23.1632 7.08 22.9432 7.03 22.6632 7.03H21.5232V9.35H22.7232C23.0232 9.35 23.2532 9.3 23.4132 9.19C23.5732 9.08 23.6532 8.92 23.6532 8.72C23.6532 8.58 23.6132 8.46 23.5432 8.36C23.4632 8.26 23.3632 8.19 23.2332 8.15M20.5332 8.84C20.4132 8.91 20.2732 8.94 20.1132 8.94C19.9632 8.94 19.8332 8.91 19.7232 8.85C19.6132 8.79 19.5232 8.7 19.4532 8.59C19.3932 8.48 19.3532 8.35 19.3532 8.2C19.3532 8.05 19.3832 7.92 19.4532 7.81C19.5132 7.7 19.6032 7.61 19.7232 7.55C19.8332 7.49 19.9732 7.46 20.1132 7.46C20.3532 7.46 20.5532 7.55 20.7132 7.72L21.0632 7.4C20.9532 7.27 20.8132 7.17 20.6432 7.1C20.4732 7.03 20.2932 7 20.0932 7C19.8532 7 19.6332 7.05 19.4332 7.15C19.2332 7.25 19.0832 7.4 18.9732 7.58C18.8632 7.76 18.8132 7.97 18.8132 8.2C18.8132 8.43 18.8632 8.64 18.9732 8.82C19.0832 9 19.2332 9.14 19.4232 9.25C19.6132 9.35 19.8332 9.4 20.0732 9.4C20.2432 9.4 20.4032 9.37 20.5732 9.32C20.7432 9.27 20.8832 9.2 21.0132 9.1V8.16H20.5232V8.84H20.5332ZM17.9932 7.87C17.9932 8 17.9532 8.1 17.8632 8.17C17.7832 8.24 17.6532 8.28 17.4932 8.28H17.0532V7.47H17.4932C17.6532 7.47 17.7832 7.5 17.8632 7.57C17.9432 7.64 17.9932 7.74 17.9932 7.87ZM18.5832 9.35L18.0632 8.6C18.2132 8.53 18.3332 8.44 18.4132 8.31C18.4932 8.18 18.5332 8.04 18.5332 7.86C18.5332 7.68 18.4932 7.54 18.4132 7.41C18.3332 7.28 18.2132 7.19 18.0632 7.12C17.9132 7.05 17.7332 7.02 17.5232 7.02H16.5132V9.34H17.0532V8.69H17.5432L17.9932 9.34H18.5732L18.5832 9.35Z" fill="#102345"/>
<path d="M24.2231 10.75L26.4631 14.2L22.2031 22.94" stroke="#102345" stroke-width="0.8" stroke-linecap="round" stroke-linejoin="round"/>
<path d="M20.1432 10.75L18.2432 14.2L22.1632 22.94" stroke="#102345" stroke-width="0.8" stroke-linecap="round" stroke-linejoin="round"/>
<path d="M13.9531 13.9599L16.9531 10.6799H27.3831L30.7031 13.9599H13.9531Z" stroke="#102345" stroke-width="0.8" stroke-linecap="round" stroke-linejoin="round"/>
<path d="M22.2733 23.01L13.8333 14.2H30.7033L22.2733 23.01Z" stroke="#102345" stroke-width="0.8" stroke-linecap="round" stroke-linejoin="round"/>
<path d="M12.7733 35.4601L12.2333 35.5801C11.7633 35.6901 11.2933 35.4101 11.1833 34.9501L9.02329 26.0401C8.91329 25.5801 9.20329 25.1201 9.67329 25.0201L10.2133 24.9001C10.6833 24.7901 11.1533 25.0801 11.2633 25.5301L13.4233 34.4401C13.5333 34.9001 13.2433 35.3601 12.7733 35.4601Z" stroke="#102345" stroke-width="0.94" stroke-miterlimit="10"/>
<path d="M20.0733 30.2501C20.0733 30.2501 23.7533 30.1401 25.9433 28.7101C28.9633 26.7601 31.3933 25.3801 31.7233 25.3001C32.0533 25.2201 32.5433 25.0501 33.2433 25.8801C33.9433 26.7101 33.6533 27.6301 33.4533 27.9201C33.2433 28.2101 25.2333 32.6201 24.3433 33.2001C23.4533 33.7801 21.9633 34.7801 20.8533 34.7401C19.7433 34.7001 17.9333 33.9901 17.0633 33.9101C16.2033 33.8301 13.6933 33.7401 13.1533 34.0501M11.2833 26.0301C11.2833 26.0301 14.7633 24.5101 15.2233 24.4701C15.6733 24.4301 16.9533 24.5401 17.8233 25.2501C18.6833 25.9601 20.0033 26.5501 20.6633 26.5501C21.3233 26.5501 23.6233 25.8001 24.1233 25.8001C24.6233 25.8001 26.6733 25.9201 25.9633 28.5001" stroke="#102345" stroke-width="0.94" stroke-linecap="round" stroke-linejoin="round"/>
</svg>
