<svg width="42" height="42" viewBox="0 0 42 42" fill="none" xmlns="http://www.w3.org/2000/svg">
<path d="M17.5099 12.3818C17.9799 12.6118 18.2999 13.0818 18.2999 13.6418C18.2999 14.4118 17.6799 15.0418 16.9099 15.0418C16.1399 15.0418 15.6799 14.4018 15.5199 13.6418C15.3799 13.0018 15.5299 12.5418 15.5299 12.5418C15.8899 11.0018 17.4199 10.0418 18.9699 10.3918C20.5099 10.7518 21.4699 12.2918 21.1199 13.8318C20.9599 14.5118 20.1599 15.5718 19.7799 16.0918C18.7199 17.5218 17.4799 18.9918 16.3099 20.2818C15.6499 21.0218 14.8899 21.7018 14.6499 22.7418C14.1399 24.9718 15.5199 27.1918 17.7499 27.7018C18.9799 27.9818 20.2099 27.6918 21.1499 26.9918" stroke="#102345" stroke-width="0.76" stroke-linecap="round" stroke-linejoin="round"/>
<path d="M22.42 23.2218L21.83 24.4918L20.52 24.5518L21.54 25.6118L21.22 27.0318L22.47 26.3018L23.64 26.9918L23.42 25.5818L24.36 24.6018L22.99 24.4718L22.42 23.2218Z" stroke="#102345" stroke-width="0.51" stroke-linecap="round" stroke-linejoin="round"/>
<path d="M21.9799 18.6818L19.8699 19.7718L18.0499 18.4918L18.3099 20.9618L16.3999 22.5218L18.8299 22.8618L19.6799 25.0018L20.8499 22.8818L23.1299 22.5618L21.4399 20.9618L21.9799 18.6818Z" stroke="#102345" stroke-width="0.76" stroke-linecap="round" stroke-linejoin="round"/>
<path d="M22.2898 13.4219L22.3598 16.2219L20.0498 17.4919L22.8098 18.4919L23.4898 21.3319L25.0998 18.9219L27.8098 19.1219L26.1698 16.7819L27.0098 14.2019L24.4298 15.1719L22.2898 13.4219Z" stroke="#102345" stroke-width="0.76" stroke-linecap="round" stroke-linejoin="round"/>
<path d="M34.68 31.1118H33.82V16.3618C33.82 15.0918 32.79 14.0618 31.53 14.0618H28.49C28.18 14.0618 27.93 14.3118 27.93 14.6218C27.93 14.9318 28.18 15.1818 28.49 15.1818H31.53C32.18 15.1818 32.71 15.7118 32.71 16.3618V31.1118H25.02C24.76 31.1118 24.53 31.3018 24.47 31.5618C24.3 32.4218 23.39 32.5318 23.26 32.5418H18.34C16.85 32.5418 16.78 31.7518 16.78 31.6718C16.78 31.3618 16.53 31.1118 16.22 31.1118H8.58V16.3618C8.58 15.7118 9.11 15.1818 9.76 15.1818H14.32C14.63 15.1818 14.88 14.9318 14.88 14.6218C14.88 14.3118 14.63 14.0618 14.32 14.0618H9.76C8.5 14.0618 7.47 15.0918 7.47 16.3618V31.1118H6.56C6.25 31.1118 6 31.3618 6 31.6718V32.3518C6 34.4718 7.72 36.1918 9.84 36.1918H31.39C33.51 36.1918 35.23 34.4718 35.23 32.3518V31.6718C35.23 31.3618 34.98 31.1118 34.67 31.1118M31.4 35.0718H9.85C8.35 35.0718 7.12 33.8518 7.12 32.3418V32.2218H15.78C16 32.8118 16.61 33.6518 18.34 33.6518H23.31C23.9 33.6218 24.99 33.2818 25.43 32.2218H34.12V32.3418C34.12 33.8418 32.9 35.0718 31.39 35.0718" fill="#102345"/>
<path d="M28.7201 9.50183C29.2701 9.90183 29.7801 10.3718 30.3001 10.9318C30.4801 11.1218 30.6901 11.2218 30.9101 11.2218C31.1201 11.2218 31.3101 11.1118 31.4501 10.9318C31.5901 10.7618 31.7601 10.3918 31.3501 9.94183C30.2201 8.68183 28.8401 7.69183 27.2501 6.99183C25.6601 6.31183 24.0001 5.97183 22.3401 6.00183C21.8901 6.00183 21.6001 6.14183 21.4901 6.41183C21.4501 6.50183 21.4301 6.60183 21.4301 6.72183C21.4301 6.93183 21.4901 7.09183 21.6201 7.22183C21.8201 7.42183 22.1201 7.45183 22.3601 7.45183C24.7001 7.45183 26.8401 8.14183 28.7301 9.51183" fill="#102345"/>
<path d="M26.55 9.17187C25.55 8.71187 24.77 8.47187 23.92 8.35187C23.5 8.29187 23.12 8.27187 22.74 8.28187C22.45 8.28187 22.25 8.49187 22.24 8.77187C22.24 9.06187 22.43 9.26187 22.73 9.28187C22.76 9.28187 22.8 9.28187 22.83 9.28187C22.84 9.28187 22.86 9.28187 22.87 9.28187C24.53 9.31187 26.05 9.85187 27.37 10.9019C27.72 11.1719 28.04 11.4819 28.35 11.8519C28.53 12.0719 28.74 12.0719 28.87 12.0319C29.03 11.9919 29.14 11.8919 29.2 11.7519C29.21 11.7219 29.22 11.6919 29.23 11.6619C29.3 11.4119 29.15 11.2419 29.06 11.1519C28.45 10.4519 27.75 9.89187 27 9.42187L26.52 9.17187H26.55Z" fill="#102345"/>
<path d="M25.15 10.4719C25.15 10.4719 24.73 10.3519 24.51 10.3019C24.15 10.2219 23.78 10.1719 23.41 10.1719C23.16 10.1719 22.99 10.3219 22.99 10.5519C22.99 10.7319 23.09 10.9319 23.4 10.9419C23.42 10.9419 23.44 10.9419 23.47 10.9419C23.48 10.9419 23.5 10.9419 23.51 10.9419C24.37 10.9719 25.17 11.2419 25.89 11.7419C26.18 11.9419 26.45 12.1919 26.69 12.4719C26.91 12.7319 27.13 12.6319 27.21 12.5719C27.28 12.5319 27.33 12.4719 27.36 12.4119C27.37 12.3819 27.39 12.3519 27.39 12.3119C27.4 12.2319 27.39 12.1019 27.27 11.9619C26.8 11.4119 26.22 10.9619 25.55 10.6419L25.16 10.4519L25.15 10.4719Z" fill="#102345"/>
</svg>
