<?xml version="1.0" encoding="utf-8"?>
<!-- Generator: Adobe Illustrator 25.4.1, SVG Export Plug-In . SVG Version: 6.00 Build 0)  -->
<svg version="1.1" id="Calque_1" xmlns="http://www.w3.org/2000/svg" xmlns:xlink="http://www.w3.org/1999/xlink" x="0px" y="0px"
	 viewBox="0 0 42 42" style="enable-background:new 0 0 42 42;" xml:space="preserve">
<path d="M32.8,32.3l-5.2-5.2c1.8-1.9,2.9-4.4,2.9-7.2c0-5.8-4.7-10.5-10.5-10.5C14.2,9.4,9.4,14.2,9.4,20c0,5.8,4.7,10.5,10.5,10.5
	c2.2,0,4.3-0.7,6-1.9l5.3,5.3L32.8,32.3z M11.6,20c0-4.6,3.8-8.4,8.4-8.4s8.4,3.8,8.4,8.4s-3.8,8.4-8.4,8.4S11.6,24.6,11.6,20z"/>
</svg>
