<?xml version="1.0" encoding="utf-8"?>
<!-- Generator: Adobe Illustrator 25.4.1, SVG Export Plug-In . SVG Version: 6.00 Build 0)  -->
<svg version="1.1" id="Calque_1" xmlns="http://www.w3.org/2000/svg" xmlns:xlink="http://www.w3.org/1999/xlink" x="0px" y="0px"
	 viewBox="0 0 24 24" style="enable-background:new 0 0 24 24;" xml:space="preserve">
<path d="M24,6.4c-0.1,2.3-1.7,5.5-4.9,9.6c-3.3,4.2-6,6.3-8.3,6.3c-1.4,0-2.6-1.3-3.5-3.9l-1.9-7.1C4.6,8.8,3.8,7.5,3,7.5
	c-0.2,0-0.8,0.4-1.9,1.1L0,7.2L3.5,4C5.1,2.7,6.2,2,7,1.9c1.9-0.2,3,1.1,3.4,3.9l1,5.5c0.5,2.4,1.1,3.7,1.8,3.7
	c0.5,0,1.3-0.8,2.3-2.4s1.5-2.8,1.6-3.6c0.1-1.4-0.4-2-1.6-2c-0.6,0-1.2,0.1-1.8,0.4c1.2-3.8,3.4-5.7,6.8-5.6
	C23,1.7,24.1,3.3,24,6.4L24,6.4z"/>
</svg>
