<?xml version="1.0" encoding="utf-8"?>
<!-- Generator: Adobe Illustrator 25.4.1, SVG Export Plug-In . SVG Version: 6.00 Build 0)  -->
<svg version="1.1" id="Calque_1" xmlns="http://www.w3.org/2000/svg" xmlns:xlink="http://www.w3.org/1999/xlink" x="0px" y="0px"
	 viewBox="0 0 24 24" style="enable-background:new 0 0 24 24;" xml:space="preserve">
<path d="M22.2,6.9c0.5,1.6,0.5,5.2,0.5,5.2s0,3.5-0.5,5.2c-0.2,0.9-1,1.6-1.9,1.9c-1.7,0.4-8.3,0.4-8.3,0.4s-6.7,0-8.4-0.4
	c-0.9-0.2-1.6-0.9-1.9-1.9C1.3,15.5,1.3,12,1.3,12s0-3.5,0.5-5.2C2,5.9,2.8,5.2,3.7,5C5.3,4.5,12,4.5,12,4.5s6.6,0,8.3,0.5
	C21.2,5.2,22,5.9,22.2,6.9z M9.8,15.2l5.5-3.2L9.8,8.9V15.2z"/>
</svg>
