<svg x="0px" y="0px"
	 viewBox="0 0 1203.2 769.9" width="162" height="103">
<g>
	<path d="M287.3,303.3c-67,0-133.7,0-200.3,0c0-11.2-1.1-22.1,0.3-32.6c1.4-10,10.9-16.7,21.1-17.7c2-0.2,4-0.2,6-0.2
		c72.3,0,144.7,0,217,0c2.1,0,4.2,0,6.9,0c0,2.5,0,4.3,0,6.1c0,72.7,0,145.3,0,218c0,17.7-10.2,28-27.8,28c-72.7,0-145.3,0-218,0
		c-1.8,0-3.6,0-5.9,0c-0.1-2.1-0.4-3.9-0.4-5.7c0-41.8,0-83.7,0-125.5c0-15.9,10.4-26.4,26.3-26.4c39.8,0,79.7,0,119.5,0
		c1.6,0,3.3,0,5.2,0c0,16.9,0,33.3,0,50.3c-33.3,0-66.7,0-100.4,0c0,19,0,37.4,0,56.2c50.1,0,100.2,0,150.6,0
		C287.3,403.9,287.3,353.8,287.3,303.3z"/>
	<path d="M397.5,253c9.1,0,17.6,0,26.7,0c0,2.1,0,3.8,0,5.6c0,83.8,0.1,167.7,0,251.5c0,46.2-36.1,82.8-82.3,82.9
		c-83.8,0.2-167.7,0.1-251.5,0.1c-1.3,0-2.6-0.2-4.1-0.3c0-8.7,0-17.1,0-26.4c2.3,0,4.4,0,6.5,0c82.5,0,165,0,247.5,0
		c29.5,0,51.9-18.9,56.7-48c0.5-2.9,0.5-6,0.5-9c0-83.3,0-166.7,0-250C397.5,257.5,397.5,255.5,397.5,253z"/>
	<path d="M26.5,504.6c-9,0-17.4,0-26.5,0c0-2.2,0-4.2,0-6.1C0,415.7,0,332.9,0,250c0-44.5,36.6-81,81.2-81c83.3,0,166.6,0,250,0
		c2.1,0,4.2,0,6.6,0c0,8.8,0,17.1,0,26.2c-2.1,0-4.2,0-6.3,0c-82.3,0-164.6,0-247,0c-28.1,0-50.2,16.7-56.6,42.9
		c-1.1,4.3-1.5,8.9-1.5,13.3c-0.1,82.2-0.1,164.3-0.1,246.5C26.5,500.1,26.5,502.2,26.5,504.6z"/>
	<path d="M632.5,361.8c4.8-5.7,9.3-11.1,14.1-16.8c7.6,7.1,16.1,12.1,26.5,12.5c4.5,0.2,9,0.1,13.4-0.7c9.4-1.7,15-7.7,16-17.3
		c0.6-5.9,0.1-11.8,0.1-18.4c-11,12.3-24.6,14.8-39.5,12.4c-16.1-2.5-26.9-12.1-32.5-27.1c-7.4-19.9-7.6-40.3,0-60.1
		c10.7-28.4,44.6-37.2,68.4-18.4c0.4,0.3,0.9,0.5,1.8,0.9c0.3-2.8,0.5-5.3,0.8-8.2c7.9,0,15.6,0,23.7,0c0.1,0.9,0.4,1.7,0.4,2.4
		c0,37.8,0.3,75.7-0.2,113.5c-0.3,26-17,41.9-43,42.7c-16.5,0.5-31.8-2.7-45-13.1C635.7,364.9,634.3,363.5,632.5,361.8z
		 M701.4,278.5c-0.4-6.7-0.4-11.6-1-16.3c-1.7-12.5-9.8-19.9-22.3-20.9c-13.1-1-22.3,4.9-25.8,17.2c-3.5,12.4-3.6,25,0.4,37.3
		c3.5,10.8,11.7,16,23.9,15.7c12-0.3,20.1-6,22.8-17C700.9,288.6,701,282.5,701.4,278.5z"/>
	<path d="M522,418.6c7.4,0,14.4,0,21.9,0c0.2,2.6,0.3,5.2,0.6,8.6c8.5-8.2,18.3-11.3,29.4-10.6c11.3,0.7,19.9,5.9,25.9,15.9
		c7.6-12.1,18.6-16.9,31.8-15.9c19.3,1.5,30.7,12.8,31.5,33.4c1.1,26.3,0.3,52.7,0.3,79c0,0.3-0.3,0.6-0.5,1.2c-7.5,0-15.1,0-23.5,0
		c0-1.9,0-3.8,0-5.8c0-21.7,0-43.3,0-65c0-6.8-1.6-13-7.5-17.1c-10.2-7.1-23.7-1.4-26.3,11.1c-0.6,2.8-0.7,5.6-0.7,8.4
		c-0.1,20.7,0,41.3,0,62c0,2,0,3.9,0,6.3c-8.2,0-16,0-24.5,0c0-1.9,0-3.9,0-5.8c0-22.2,0.1-44.3,0-66.5c-0.1-13-9.8-20.8-21.8-17.7
		c-6.8,1.7-11.5,7.7-12.1,16c-0.4,5.5-0.2,11-0.2,16.5c0,17.3,0,34.7,0,52c0,1.8,0,3.6,0,5.7c-8.4,0-16.1,0-24.2,0
		C522,493,522,456.1,522,418.6z"/>
	<path d="M894.2,530.5c-9.1,0-17.2,0.2-25.4-0.2c-1.5-0.1-3.3-1.9-4.3-3.4c-8.4-12.8-16.8-25.7-24.7-38.8c-2.5-4.1-5.2-6-10-5.3
		c-2.6,0.3-5.2,0.1-8.3,0.1c0,16,0,31.4,0,47.2c-8.2,0-15.9,0-23.9,0c0-52.8,0-105.4,0-158.4c7.7,0,15.4,0,23.7,0
		c0,29.5,0,58.9,0,88.9c5.3,0,10.1,0.3,14.9-0.2c1.4-0.1,2.9-2,3.8-3.4c7.5-11.8,15-23.6,22.3-35.5c1.5-2.5,3.2-3.3,6-3.3
		c7.5,0.2,14.9,0.1,23,0.1c-0.8,1.6-1.2,2.8-1.9,3.9c-9.5,15.8-19,31.7-28.7,47.4c-1.8,2.9-1.9,5,0,8c10.2,15.8,20.2,31.7,30.3,47.6
		C892,526.7,892.8,528.1,894.2,530.5z"/>
	<path d="M607.2,332.1c-7.8,0-14.7,0-22.3,0c0-3.2,0-6.3,0-9.7c-1,0.3-1.6,0.3-1.9,0.6c-14.6,13.6-31.5,14-48.9,7.6
		c-13.1-4.8-20.6-18.4-19.4-31.9c1.5-16.1,9.8-25.9,25.3-29.3c5.8-1.3,11.9-1.6,17.8-1.9c8-0.3,16-0.1,23.8-0.1
		c2.8-10.4-1.1-20.9-8.9-24.3c-12.7-5.6-25.4-0.5-35.1,14.2c-6.7-3.5-13.4-7-20.4-10.7c6.2-13,15-22.6,29.1-26.2
		c11.3-2.9,22.8-2.9,34.1,0.2c14.9,4,24.4,15.6,25.6,32.7c1,14.6,0.7,29.3,0.9,44C607.3,308.6,607.2,320.1,607.2,332.1z
		 M582.3,288.1c-11.2,0-22.5-0.5-33.6,0.2c-6.1,0.4-9.1,5.3-9.2,11.1c-0.1,5.9,2.7,10.5,8.8,11.5c5.8,0.9,12,1.2,17.7,0.1
		C577,308.9,583.2,299.5,582.3,288.1z"/>
	<path d="M1012.2,267.4c1.8-13.2-1.7-21.5-10.1-24.6c-12.8-4.8-24.1-0.1-34.2,14.6c-3.3-1.7-6.6-3.4-10-5.2c-3.4-1.8-6.7-3.6-10-5.4
		c6.2-17.2,22.1-27.9,42.2-28.3c5.3-0.1,10.7,0.1,15.9,1c17.8,3.1,28.3,14.5,30.4,32.8c0.6,5.3,0.9,10.6,1,15.9
		c0.1,19.3,0,38.7,0,58c0,1.8,0,3.6,0,5.7c-7.7,0-14.9,0-22.4,0c-0.2-3.3-0.4-6.3-0.6-10.2c-11.8,12.3-26,14.3-41,11.6
		c-19.1-3.4-29-16-28.3-35.1c0.6-16.6,12.2-28.2,30.9-29.9c9.9-0.9,20-0.7,29.9-0.9C1008,267.3,1010,267.4,1012.2,267.4z
		 M1012.3,287.2c-4.9,0-9.8-0.1-14.8,0c-6.3,0.2-12.7,0-18.9,1c-6.1,1-9.1,5.4-9.2,11.4c-0.1,5.8,3,10.4,9.1,11.3
		c5.6,0.9,11.7,1.1,17.2,0.1C1007,308.9,1013.3,299.5,1012.3,287.2z"/>
	<path d="M748,465.8c2.3-11.8-1.3-21.3-9.1-24.6c-12.5-5.3-24.2-0.6-35.1,14.3c-6.6-3.5-13.4-7-20.3-10.7
		c6.5-13.4,15.7-23.8,30.7-26.3c8.9-1.5,18.3-1.9,27.2-0.7c18.3,2.4,29.3,14.3,31,33.1c1.1,12.7,0.8,25.6,0.9,38.4
		c0.1,13.5,0,26.9,0,40.8c-7.6,0-14.8,0-22.2,0c-0.2-3.3-0.3-6.4-0.5-10.1c-14,13.9-30.2,14.8-47.2,9.9
		c-14.2-4.1-22.7-16.7-22.4-31.4c0.3-15.6,8.1-26.2,23.2-30.4c5.5-1.5,11.4-2.1,17.2-2.3C730.2,465.5,739.2,465.8,748,465.8z
		 M748.3,485.3c-8.9,0-17.5-0.1-26.1,0c-2.3,0-4.6,0.4-6.9,0.9c-6.3,1.3-9.7,5.3-9.9,11.3c-0.2,6.2,2.6,10.5,9.2,11.7
		c5.3,1,11,1.2,16.2,0.3C742.8,507.3,749,498.5,748.3,485.3z"/>
	<path d="M995.2,482.2c-24.8,0-49.1,0-73.3,0c-1.8,10.2,4.3,22,13.1,26.1c13.6,6.2,27.6,2.2,39.1-11.6c6.4,3.1,12.8,6.3,19.5,9.5
		c-6.2,11.5-14.8,19.5-26.7,23.3c-13.7,4.4-27.6,4.2-41.1-0.8c-13.1-4.9-21.3-14.7-25.2-27.8c-5.3-17.6-5.5-35.5,0.1-53.1
		c5.9-18.6,19.2-28.8,38.5-30.6c7-0.6,14.3-0.4,21.3,0.7c16,2.7,26,12.6,30.9,27.8C995.1,457.4,995.3,469.4,995.2,482.2z
		 M971.2,462.5c-0.7-16-9.9-24.5-25.7-24.2c-14.1,0.3-23.8,10.1-23.7,24.2C938.1,462.5,954.5,462.5,971.2,462.5z"/>
	<path d="M847.4,278.4c-1.1,6.4-1.8,14.8-4,22.7c-5.5,19.8-20.6,31.7-41.1,32.8c-7.2,0.4-14.8,0.1-21.8-1.5
		c-19.2-4.2-29.6-17.6-33.8-36c-3.1-13.5-3-27.1,0.1-40.6c5.3-23.4,21.7-36.9,45.9-37.3c6.7-0.1,13.7,0.5,20.2,2.2
		c19.5,5.2,28.9,19.5,32.4,38.4C846.4,264.8,846.6,270.7,847.4,278.4z M823.5,277.4c-1.7-7.9-2.6-15.4-5-22.4
		c-3.4-9.6-11.5-13.4-21.2-13.8c-10.2-0.4-19.3,2.5-23.6,12.4c-6.4,15-6.4,30.6,0.1,45.6c4,9.1,12.2,12.1,21.7,12.1
		c9.4,0,18-2.6,21.9-11.8C820.4,292.6,821.6,284.7,823.5,277.4z"/>
	<path d="M1181.4,442c-7,3.3-13.5,6.5-20.4,9.8c-5.9-12.7-16.5-14.8-28.6-13.6c-6.1,0.6-10.2,3.6-11,7.8c-1,5.2,1.2,9.7,7.3,12.2
		c6.7,2.8,13.9,4.6,20.8,6.9c5.2,1.8,10.4,3.5,15.4,5.8c22.7,10.6,21.3,43.5,1.9,54.1c-19,10.4-38.6,10.5-57.7,0.2
		c-8.2-4.4-13.3-11.8-16.9-20.9c6.7-2.6,13.2-5.1,19.8-7.7c2,2.8,3.6,5.7,5.9,8.1c7,7.2,26.4,8.9,34.8,3.3
		c6.6-4.3,6.4-13.3-0.8-17.2c-4.9-2.6-10.5-4-15.9-5.7c-6.5-2.1-13.2-3.5-19.5-6.1c-14-5.8-20.2-16.2-19.4-31.1
		c0.8-14.6,8.5-24.7,22.8-28.7c15.3-4.3,30.3-3.7,44.5,4.2C1172,427.6,1177.4,433.8,1181.4,442z"/>
	<path d="M1091.7,428.1c-5.2,6.1-10.2,11.8-13.9,16.2c-7-1.8-12.8-4.6-18.6-4.6c-13.3,0.1-20.6,8.7-20.7,23c-0.1,20.7,0,41.3,0,62
		c0,1.8,0,3.6,0,5.6c-8.2,0-15.8,0-23.8,0c0-37.2,0-74.2,0-111.6c7.2,0,14.3,0,21.8,0c0,3.1,0,5.8,0,9.8
		c10.6-10.3,22.6-13.4,35.9-11.3C1079.9,418.4,1086.2,421.9,1091.7,428.1z"/>
	<path d="M928.8,247c-4.1-1.8-7.5-4-11.3-5c-15.1-3.7-26.9,5.6-27,21.4c-0.2,20.8-0.1,41.7-0.1,62.5c0,1.8,0,3.6,0,5.9
		c-8.1,0-15.9,0-24,0c0-37.1,0-74,0-111.1c7.3,0,14.2,0,21.7,0c0,2.9,0,5.7,0,10c9.7-10,20.8-13.3,33-12.1
		c9.3,0.9,15.7,4.4,22.2,11.3C938.5,235.7,933.5,241.5,928.8,247z"/>
	<path d="M23.5,81.9c-5.7,0-10.6,0-15.9,0c0-26.9,0-53.6,0-80.8c4.9,0,9.7-0.3,14.5,0.1c1.6,0.1,3.4,1.7,4.4,3.2
		c9.7,14.3,19.3,28.8,28.9,43.2c1,1.5,2.1,3,3.9,5.6c0-18.1,0-34.8,0-51.9c5.6,0,10.5,0,15.7,0c0,26.9,0,53.6,0,80.7
		c-4.3,0-8.5,0.3-12.5-0.2c-1.4-0.1-2.9-1.8-3.9-3.2C48.4,63.6,38.2,48.4,27.9,33.2c-1.2-1.7-2.4-3.4-4.4-6.1
		C23.5,46,23.5,63.7,23.5,81.9z"/>
	<path d="M826.3,741.8c-9.9,7.5-20.2,8.3-30,1.8c-11.2-7.4-13.2-19.2-11.4-31.5c3.1-21.6,24.8-29.5,41.5-17.3
		c0.2-1.5,0.3-2.9,0.5-4.6c5.1,0,10,0,15.6,0c0,1.9,0,3.7,0,5.4c0,15.5,0,31,0,46.5c0,15.3-7.6,25.1-22.7,27.3
		c-6.7,1-13.9,0.1-20.6-1.5c-7.3-1.7-12-7.2-14.4-15c4.4-1.3,8.4-2.6,12.6-3.5c0.9-0.2,2.6,0.8,3.3,1.8c4.2,5.9,10.7,8.1,18,5.7
		C824.3,755.1,826.7,750.6,826.3,741.8z M826.6,717.9c-0.2-10-5.4-15.8-13.8-15.2c-6.9,0.5-11.2,5-12.1,12.9
		c-1.1,8.7,2.3,15.6,8.7,17.8C819.3,736.8,826.8,730,826.6,717.9z"/>
	<path d="M2.7,668.4c13.4,0,26.5-0.9,39.6,0.2c16.2,1.3,24.4,11.5,23.6,27c-0.7,13.8-10.6,22.9-26.1,23.5c-6.6,0.3-13.3,0-20.6,0
		c0,5.3,0,10.2,0,15.2c0,4.8,0,9.6,0,14.6c-5.8,0-11,0-16.6,0C2.7,722.2,2.7,695.6,2.7,668.4z M19.4,705.7
		c7.6-0.5,14.8-0.5,21.7-1.6c5.3-0.8,8.2-5.2,8.2-10.4c0-5.2-2.9-9.6-8.2-10.4c-7.1-1-14.4-0.9-21.7-1.2
		C19.4,690.3,19.4,697.4,19.4,705.7z"/>
	<path d="M338.6,28.3c0-9.5,0-18.1,0-26.9c5.3,0,10.3,0,15.5,0c0,26.7,0,53.4,0,80.4c-5,0-9.9,0-15.2,0c-0.2-1.4-0.4-2.8-0.6-4.2
		c-0.4,0-0.8,0-1,0.1c-18,12.4-38.5,2.3-40.7-20.2c-0.8-8.1,0.2-15.9,4.2-23.2C307.8,21.4,325.5,17.6,338.6,28.3z M338.9,52.9
		c0.1-9.5-3.5-15.5-10.1-16.9c-8.1-1.7-14.3,2.8-16.1,11.6c-2.1,10.6,2.5,20.1,10.4,21.4c0.3,0.1,0.7,0.1,1,0.1
		C333.3,70,338.8,64.1,338.9,52.9z"/>
	<path d="M893.3,690.6c0.1,1.4,0.2,2.8,0.3,4.1c0.3,0.1,0.8,0.3,0.9,0.1c8.2-6.6,17.4-7.5,26.7-3.2c10.5,4.9,14.2,14.5,15,25.3
		c0.3,4.2-0.1,8.7-1.1,12.9c-5.1,21-26.6,26.2-41.4,14.5c0,8.4,0,16.4,0,24.7c-5.5,0-10.4,0-15.7,0c0-26,0-52,0-78.4
		C883,690.6,887.9,690.6,893.3,690.6z M893.5,719.9c0,10,4.4,16.1,12.1,16.5c8,0.5,12.9-3.8,14.5-12.6c1.7-9.6-2.3-18.4-9.3-20.4
		c-0.6-0.2-1.3-0.2-2-0.3C899.1,701.9,893.5,708.1,893.5,719.9z"/>
	<path d="M574.5,76.9c0,8.6,0,16.6,0,24.8c-5.4,0-10.4,0-15.7,0c0-26.1,0-52,0-78.3c5,0,9.9,0,15.2,0c0.2,1.2,0.4,2.7,0.5,3.4
		c4.9-1.6,9.6-4.2,14.4-4.6c16.1-1.2,27.3,9.8,28.2,27.3c0.2,4.3-0.1,8.7-1.1,12.9C611.5,82,592.3,89,574.5,76.9z M601.4,52.5
		c0-8.6-4-15-10.4-16.4c-8-1.8-14.4,2.5-16.2,10.8c-2.4,11.1,1.9,20.6,9.9,22.1c0.5,0.1,1,0.1,1.5,0.2
		C595.6,70,601.4,63.5,601.4,52.5z"/>
	<path d="M642.4,744c0,8.8,0,16.7,0,24.9c-5.2,0-10.1,0-15.4,0c0-26.1,0-52.1,0-78.4c5.1,0,10,0,15.2,0c0.2,1.4,0.3,2.8,0.5,4.2
		c0.3,0,0.7,0.1,0.9,0c8.3-6.6,17.4-7.4,26.7-3.1c10.3,4.8,14.4,14.3,14.7,24.9c0.2,6.4-0.9,13.4-3.4,19.3
		c-6.4,14.9-23.3,19-36.8,9.8C644.3,745.2,643.8,744.9,642.4,744z M642.4,719.5c-0.1,9.9,4.1,16,11.3,16.8
		c8.2,0.9,13.5-3.3,15.2-12.2c1.9-9.8-2.2-18.8-9.4-20.8c-0.5-0.1-1-0.2-1.5-0.2C648.4,701.7,642.5,707.9,642.4,719.5z"/>
	<path d="M560,690.4c5.2,0,10,0,15.2,0c0.1,1.5,0.3,2.9,0.4,4.3c0.3,0,0.8,0.2,0.9,0.1c8.3-6.6,17.4-7.5,26.7-3.2
		c10.5,4.9,14.2,14.5,14.9,25.3c0.3,4.2-0.1,8.7-1.1,12.9c-5,20.6-26.2,26.3-41.4,14.5c0,8.4,0,16.4,0,24.7c-5.5,0-10.4,0-15.7,0
		C560,742.9,560,716.9,560,690.4z M575.4,719.5c-0.1,9.9,4.1,16,11.3,16.8c8.2,0.9,13.5-3.3,15.2-12.2c1.9-9.8-2.2-18.8-9.4-20.7
		c-0.5-0.1-1-0.2-1.5-0.2C581.4,701.7,575.5,707.9,575.4,719.5z"/>
	<path d="M213.3,743.9c0,8.9,0,16.8,0,25c-5.2,0-10.1,0-15.4,0c0-26.1,0-52.2,0-78.5c5.1,0,10,0,15.3,0c0.1,1.4,0.3,2.8,0.4,4.2
		c0.4,0,0.8,0.1,1,0c16.2-11.4,35.1-4.7,40.3,14.5c2.4,8.9,2,17.8-1.9,26.3c-6.9,14.9-23.6,19.4-37.2,10
		C215.2,745.2,214.7,744.8,213.3,743.9z M213.4,719.8c0,9.3,3.8,15.3,10.6,16.5c8.1,1.4,13.9-2.8,15.8-11.5
		c2.2-10.3-1.9-19.7-9.5-21.5c-0.5-0.1-1-0.1-1.5-0.2C219.1,701.9,213.4,708.1,213.4,719.8z"/>
	<path d="M470.3,749c0-11.9,0.1-23.4-0.1-34.9c-0.1-4.8-1.9-8.8-7.3-10c-5-1.1-10.2,1.1-12.1,5.7c-1,2.4-1.4,5.1-1.4,7.8
		c-0.2,10.3-0.1,20.6-0.1,31.3c-5.3,0-10.3,0-15.6,0c0-26.8,0-53.4,0-80.3c5,0,9.9,0,15.4,0c0,8.6,0,17.3,0,25.4
		c5.6-1.7,10.7-4.2,16.1-4.6c11.5-1,19.8,5.6,20.6,17c0.9,14.1,0.2,28.2,0.2,42.6C480.9,749,475.9,749,470.3,749z"/>
	<path d="M1007.4,744.4c-7.7,6.2-16.1,7.2-24.9,4.8c-7.5-2-12-7.8-12.5-15.1c-0.6-8.1,2.5-13.9,10.4-16.9c6-2.3,12.5-3.3,18.8-4.9
		c2.1-0.5,4.2-0.9,6.4-1.3c0.6-4.3-1.1-6.9-4.9-8.1c-5.8-1.9-10.2,0.3-14.3,7.1c-4.6-0.8-9.3-1.6-14-2.5c1.4-9.5,9.7-16.8,20.6-18.1
		c3.8-0.4,7.7-0.4,11.4,0.3c11.9,2,17.1,8.6,17.2,20.7c0,6.8,0,13.7,0,20.5c0,4.9,0.1,4.9,4.9,6.8c0,3.6,0,7.2,0,11.3
		C1019.4,750.3,1012.9,750.5,1007.4,744.4z M1005.3,722.5c-5,1.1-9.8,1.9-14.4,3.2c-3.2,0.9-5.7,3.1-5.2,6.9c0.5,4,3.6,5.4,7.2,5.6
		C1002.1,738.7,1007.1,732.7,1005.3,722.5z"/>
	<path d="M678.3,82.1c-6.9,0.9-13.4,1.3-18.8-4.7c-7.5,5.9-15.9,7.2-24.9,4.7c-7.5-2-12.1-7.7-12.7-15c-0.6-8.1,2.4-14.2,10.2-17
		c8.1-2.9,16.6-4.5,25.3-6.7c0.7-4-1.3-6.6-5.3-7.8c-5.8-1.7-10.1,0.6-13.8,7.2c-2.3-0.4-4.8-0.7-7.2-1.1c-2.4-0.4-4.8-1-7.2-1.4
		c2.6-10,10.1-16.7,20.8-17.8c4.7-0.5,9.7-0.1,14.3,0.9c9.3,2,14.3,8.8,14.4,18.4c0.1,7.5,0,15,0,22.5c0,4.6,0.1,4.6,4.8,6.3
		C678.3,74.2,678.3,78,678.3,82.1z M657.3,55.3c-5.3,1.3-10.5,2-15.2,3.8c-2,0.8-4.5,4.4-4.1,6.2c0.5,2.2,3.5,5,5.8,5.5
		C652.9,72.7,659,66,657.3,55.3z"/>
	<path d="M551.2,737.3c0,4.5,0,8.1,0,12c-6.9,0.9-13.5,1.3-18.8-4.8c-7.5,6-16,7.2-24.9,4.7c-7.5-2-12.1-7.7-12.6-15
		c-0.6-8.1,2.5-14,10.3-17c6-2.3,12.5-3.3,18.8-4.9c2.1-0.5,4.2-0.9,6.4-1.3c0.7-4.3-1-6.9-4.8-8.1c-5.8-1.9-10.4,0.3-14.3,7.1
		c-4.6-0.8-9.3-1.6-14-2.4c1.1-9.3,9.5-16.8,20.5-18.1c3.8-0.4,7.7-0.4,11.4,0.2c11.9,2,17.2,8.6,17.2,20.7c0,6.8,0.1,13.7,0,20.5
		C546.3,734.4,546.8,737.3,551.2,737.3z M530.2,722.5c-5,1.1-9.8,1.9-14.4,3.2c-3.3,0.9-5.7,3.1-5.1,6.9c0.6,4,3.6,5.3,7.2,5.5
		C527.2,738.7,532.1,732.7,530.2,722.5z"/>
	<path d="M346.4,723.3c-13.7,0-26.7,0-39.6,0c-0.5,5.7,2.7,10.9,8,12.9c6.8,2.7,12.8,0.4,18.5-7.3c2.1,0.7,4.2,1.4,6.4,2.2
		c2,0.7,4,1.4,6.5,2.3c-3.9,9.7-11.2,14.8-20.9,16.6c-13.6,2.5-26.6-4-32-15.9c-6.1-13.4-2.7-30.6,8-38.7c9.4-7.2,19.9-8.3,30.6-3.4
		c10.4,4.8,14,14.1,14.6,24.9C346.5,718.7,346.4,720.7,346.4,723.3z M330.1,712.1c-0.5-6.8-3.9-9.9-10.6-10
		c-6.9-0.1-11.5,3.7-12.3,10.3c6.9,0,13.7,0,20.5,0C328.5,712.4,329.3,712.2,330.1,712.1z"/>
	<path d="M101.5,56.1c0.1,6.8,3.6,11.6,9.5,13.3c6.6,2,12-0.4,17.2-7.7c4.2,1.4,8.5,2.9,12.8,4.4c-7,18-32.2,23-46.6,9.5
		c-13.6-12.7-11.7-38.5,3.7-48.8c9.2-6.1,19.1-6.7,29-2c9.6,4.5,13.2,13.1,14.3,23c0.3,2.5,0,5,0,8.2c-6.8,0-13.4,0-20,0
		C114.7,56.1,108.1,56.1,101.5,56.1z M125.3,45c-1.3-7.5-4.5-10.1-11.2-10.1c-6.5,0-10.9,3.7-12,10.1C109.8,45,117.4,45,125.3,45z"
		/>
	<path d="M419.1,66.3c-5.5,12.7-18,19-31.9,16.5c-13.4-2.4-22.9-12.8-23.7-26.5c-0.8-13.1,3-24.2,15-30.9
		c18.7-10.4,40.2,2,40.9,23.4c0.1,2.3,0,4.6,0,7.3c-13.6,0-26.7,0-39.7,0c-0.3,6.1,2.9,11.1,8.2,13.1c6.8,2.6,12.5,0.4,18.4-7.3
		c1.8,0.6,3.7,1.1,5.6,1.8C414.2,64.4,416.5,65.3,419.1,66.3z M403.2,45c-0.6-6.9-4-10-10.7-10.1c-6.9-0.1-11.5,3.7-12.2,10.1
		C387.9,45,395.5,45,403.2,45z"/>
	<path d="M1147.5,723.3c-13.8,0-26.7,0-39.7,0c-0.4,5.8,2.8,10.9,8.1,12.9c6.8,2.6,12.7,0.4,18.5-7.3c4.1,1.4,8.3,2.9,12.9,4.4
		c-3.8,9.4-10.6,14.4-20,16.4c-16.8,3.6-31.6-6-35.2-22.8c-3.8-17.6,5.9-33.8,22.4-37.2c17.3-3.7,32.1,7.8,33,25.6
		C1147.6,717.8,1147.5,720.2,1147.5,723.3z M1131.3,712.2c-0.9-6.8-3.9-9.8-9.9-10.1c-7.1-0.4-11.7,3-13.3,10.1
		C1115.7,712.2,1123.3,712.2,1131.3,712.2z"/>
	<path d="M124.4,723.2c-13.7,0-26.8,0-39.9,0c0,6.7,3.5,11.6,9.4,13.3c6.6,2,12.1-0.3,17.2-7.7c4.2,1.4,8.5,2.9,12.8,4.4
		c-6.7,18-32.1,23-46.5,9.5c-13.6-12.7-11.8-38.5,3.6-48.8c9.1-6.1,19.1-6.7,29-2c9.8,4.6,13.4,13.4,14.4,23.5
		C124.6,717.8,124.4,720.2,124.4,723.2z M108.2,712.1c-0.7-6.4-3.6-9.5-9.3-10c-7.3-0.6-12.1,2.7-13.9,10
		C92.7,712.1,100.4,712.1,108.2,712.1z"/>
	<path d="M775.2,749.1c-5.4,0-10.2,0-15.7,0c0-7.7,0-15.3,0-22.9c0-3.8,0.1-7.7-0.1-11.5c-0.3-7.1-3.8-11-9.7-10.9
		c-6.2,0-10.8,4.4-11.1,11.1c-0.3,6.5-0.1,13-0.1,19.5c0,4.8,0,9.6,0,14.6c-5.3,0-10.3,0-15.5,0c0-19.5,0-38.8,0-58.5
		c5.1,0,10,0,15.2,0c0.2,1.4,0.3,2.8,0.5,4.4c0.5-0.2,1-0.3,1.4-0.4c4.7-1.8,9.4-4.6,14.2-5.1c11.6-1,20,5.9,20.7,17.4
		C775.8,720.7,775.2,734.7,775.2,749.1z"/>
	<path d="M849.5,52.5c0,13.6-6.3,24.1-17.1,28.5c-11.6,4.7-25.1,2-33.2-6.6c-8.9-9.5-10.5-27.5-3.4-39.2c6.7-11,20.3-15.9,33.6-12.1
		C841.9,26.8,849.5,37.8,849.5,52.5z M807.3,53.5c0.2,1.4,0.4,3.9,1.1,6.3c1.8,6.5,6.1,10,12,10.1c6.1,0.1,10.7-3.5,12.2-10.3
		c0.8-3.7,1.1-7.6,0.7-11.4c-0.8-8-5.9-12.9-12.6-13c-7-0.1-12,5-13,13.2C807.4,49.8,807.4,51.1,807.3,53.5z"/>
	<path d="M289.4,52.6c0,13.5-6.4,24-17.2,28.4c-11.6,4.7-25.1,1.9-33.1-6.7c-9.2-9.9-10.4-28.2-2.7-40c7.2-11,21.7-15.3,35-10.4
		C282.9,28.1,289.4,38.5,289.4,52.6z M273.8,53.2c-0.5-3.1-0.7-5.6-1.3-8c-1.7-6.4-6.2-9.9-12.1-9.9c-5.9,0-11,3.5-11.9,10
		c-0.8,5.6-0.4,11.6,0.9,17.1c1.2,5,5.7,7.6,11.1,7.6c5.4,0,9.3-2.7,11.2-7.6C272.8,59.2,273.2,55.9,273.8,53.2z"/>
	<path d="M187.4,719.6c0,13.6-6.3,24.1-17.1,28.5c-11.6,4.7-25.1,2.1-33.2-6.5c-9-9.5-10.5-27.5-3.4-39.2
		c6.7-11,20.2-15.9,33.6-12.1C179.8,693.9,187.4,704.9,187.4,719.6z M171.8,720.2c-0.5-3-0.7-5.5-1.3-7.9c-1.8-6.4-6.2-9.9-12.1-9.9
		c-5.9,0-10.9,3.5-11.9,10c-0.8,5.4-0.5,11.2,0.7,16.6c1.1,5.3,6.1,8.1,11.3,8c5.2,0,9.6-2.9,11.4-8.1
		C170.9,726,171.3,722.8,171.8,720.2z"/>
	<path d="M1202.4,699.3c-3.1,3.4-6.1,6.5-8.2,8.8c-5.1-2.4-9.6-4.9-14.3-6.5c-2.1-0.7-5,0-7.2,0.9c-1.4,0.5-2.9,2.7-2.9,4.1
		c0,1.3,1.8,3.2,3.2,3.8c3.2,1.2,6.8,1.7,10.1,2.5c2.9,0.7,5.9,1.4,8.7,2.4c12.4,4.6,15.3,19.1,5.6,28.2
		c-11.4,10.8-37.5,8.5-46.8-4.1c3.3-3.2,6.6-6.4,9-8.7c5.3,2.3,10.5,4.9,16,6.8c2.2,0.7,5.2,0.4,7.3-0.6c1.8-0.8,4.1-3.1,4.1-4.8
		c0-1.6-2.3-4.1-4.1-4.6c-6-1.9-12.4-2.6-18.4-4.6c-10.8-3.6-14.5-15.6-7.7-24.7c1.8-2.4,4.4-4.6,7.1-6.1
		C1175.8,685.7,1192.9,688.8,1202.4,699.3z"/>
	<path d="M474.1,71.8c3.4-3.3,6.6-6.4,9-8.6c5.6,2.5,10.9,5.1,16.3,7.1c1.9,0.7,4.5,0.6,6.3-0.3c2.1-1,3.7-3.2,5.6-4.8
		c-1.7-1.7-3.2-4.3-5.2-5c-5.2-1.7-10.7-2.5-16-3.9c-6.6-1.7-11.5-5.5-12.4-12.7c-0.9-7.2,1.8-13,7.8-17.2c11.5-8.1,31.7-5.2,40.7,6
		c-2.9,3.1-5.8,6.2-8.2,8.8c-4.6-2.3-8.7-4.6-13-6.4c-1.6-0.7-3.9-1-5.3-0.3c-2.3,1.1-4.1,3.1-6.2,4.8c1.9,1.6,3.5,3.9,5.6,4.6
		c5.3,1.8,11,2.6,16.4,4.2c5.7,1.8,10.1,5.2,11.1,11.6c1.1,6.9-0.7,12.9-6.2,17.4C508.5,87,484.4,84.4,474.1,71.8z"/>
	<path d="M424.3,699.4c-3.2,3.4-6.1,6.5-8.2,8.7c-5-2.4-9.3-4.9-13.9-6.5c-2.1-0.7-5.1-0.2-7.2,0.7c-1.5,0.6-3.1,2.8-3.2,4.4
		c-0.1,1.2,1.9,3.1,3.3,3.6c3.4,1.2,7.1,1.7,10.6,2.6c2.7,0.7,5.5,1.3,8.2,2.3c11.8,4.4,14.9,17.9,6.5,27.2
		c-10.9,11.9-38.6,9.9-48-3.5c3.3-3,6.6-6,9.3-8.5c4.9,2.2,10.2,4.7,15.6,7c1,0.4,2.3,0.3,3.5,0.2c3.7-0.4,8-0.6,8.5-5.3
		c0.5-4.8-4-5-7.3-5.9c-4.7-1.2-9.4-2-14.1-3.2c-6.5-1.7-11.1-5.5-12-12.5c-1-7.2,1.7-13.1,7.7-17.3
		C394.8,685.4,414.7,688.1,424.3,699.4z"/>
	<path d="M170.4,39.6c3.2-4.8,6.2-9,8.8-13.3c1.5-2.5,3.2-3.4,6.1-3.2c4.1,0.2,8.2,0.1,13.3,0.1c-6.6,9.9-12.8,19.1-19.1,28.5
		c6.7,9.9,13.3,19.8,20.5,30.5c-6,0-11.1,0.2-16.1-0.1c-1.3-0.1-2.7-1.6-3.6-2.8c-3.5-4.9-6.7-9.9-10.4-15.5
		c-2.7,4-5.6,7.5-7.5,11.4c-2.9,6-7.2,8.1-13.5,7.1c-2.4-0.4-5-0.1-8.5-0.1c4.4-6.6,8.5-12.6,12.4-18.7c2.6-4,7-8.1,7-12.2
		c0-3.9-4.5-7.8-7.1-11.7c-3.5-5.2-7-10.4-11-16.5c5.9,0,11-0.2,16,0.1c1.3,0.1,2.8,1.5,3.6,2.7C164.3,30.2,167.1,34.7,170.4,39.6z"
		/>
	<path d="M1086.3,706.6c-4.2,2-8.5,4-12.8,6c-0.5-0.6-0.8-0.8-1-1.1c-3.7-7.4-7.7-10.1-13.7-9.1c-6.3,1.1-10.9,6.4-11.3,14
		c-0.2,3.9,0.2,8,1.3,11.8c1.7,5.4,5.9,8.4,11.7,8.5c5.4,0.1,9.1-2.6,11.2-7.6c0.3-0.8,0.7-1.5,1.3-2.7c4.4,1.9,8.8,3.8,13.1,5.7
		c-2,11.5-13.3,18.7-28,18c-14.3-0.7-25.6-12-26.7-26.9c-1.3-17.8,7.6-30.8,23.4-33.7C1069.4,686.9,1082.1,693.6,1086.3,706.6z"/>
	<path d="M876.6,81.9c-5.6,0-10.4,0-15.7,0c0-15.1,0-30,0-45.3c-2.9-0.3-5.3-0.5-7.9-0.7c0-4.1,0-8.1,0-12.6
		c2.3-0.1,4.7-0.2,7.5-0.4c0.2-7.5,0.5-15,7.6-19.5c6.1-3.9,12.9-3.6,20-3c0,4.3,0,8.4,0,12.4c-11.1,1.6-11.6,2-11.2,10.3
		c1.8,0,3.6,0,5.4,0c1.7,0,3.3,0,5.4,0c0,4.3,0,8.3,0,13c-3.4,0-7,0-11,0C876.6,51.7,876.6,66.6,876.6,81.9z"/>
	<path d="M762.7,69.2c0,4.4,0,8.4,0,12.9c-7.1,1.4-14.1,2-21-0.9c-5.5-2.3-7.2-7.1-7.3-12.6c-0.1-9,0-18,0-27c0-1.6,0-3.3,0-5.2
		c-2.7-0.2-5-0.3-7.6-0.5c0-4.1,0-8.1,0-12.7c2.2-0.1,4.6-0.3,7.6-0.4c0-5.5,0-10.9,0-16.5c5.3,0,10.1,0,15.5,0c0,5.4,0,10.8,0,16.7
		c4.4,0,8.1,0,12.1,0c0,4.6,0,8.6,0,13.1c-3.9,0-7.5,0-12,0c0,5.5,0,10.6,0,15.6c0,3.7,0,7.3,0,11c0,4.5,2,6.8,6.7,6.5
		C758.6,69.1,760.4,69.2,762.7,69.2z"/>
	<path d="M264.9,668.4c5.2,0,10,0,15.2,0c0,26.9,0,53.6,0,80.6c-5,0-9.9,0-15.2,0C264.9,722.2,264.9,695.5,264.9,668.4z"/>
	<path d="M946,668.4c5.2,0,9.9,0,15.1,0c0,26.8,0,53.5,0,80.5c-4.9,0-9.8,0-15.1,0C946,722.3,946,695.6,946,668.4z"/>
	<path d="M702.5,81.9c-5.5,0-10.3,0-15.4,0c0-19.4,0-38.8,0-58.5c5,0,10.1,0,15.3,0c0.1,2.1,0.2,4,0.3,5.9c3.1-1.8,5.8-4.1,9-5.1
		c3.2-1.1,6.7-1,10.5-1.4c0,5.6,0,10.4,0,15.6c-1.4,0.1-2.8,0.2-4.3,0.2c-10.3,0.2-15.2,5-15.3,15.5
		C702.4,63.2,702.5,72.3,702.5,81.9z"/>
	<path d="M466.1,82c-5.1,0-9.9,0-15.1,0c0-19.5,0-38.9,0-58.5c5,0,9.9,0,15.1,0C466.1,42.7,466.1,62.1,466.1,82z"/>
	<path d="M222.2,23.4c0,19.6,0,38.9,0,58.4c-5.1,0-10,0-15.3,0c0-19.4,0-38.8,0-58.4C211.9,23.4,216.9,23.4,222.2,23.4z"/>
	<path d="M710.1,749.1c-5,0-9.8,0-15,0c0-19.4,0-38.8,0-58.5c4.8,0,9.7,0,15,0C710.1,709.8,710.1,729.2,710.1,749.1z"/>
	<path d="M222.1,15.3c-5.1,0-10.2,0-15.4,0c0-4.7,0-9.1,0-13.8c5,0,10.1,0,15.4,0C222.1,5.9,222.1,10.4,222.1,15.3z"/>
	<path d="M466.2,15.3c-5.2,0-10.1,0-15.4,0c0-4.7,0-9.2,0-14c5.1,0,10.1,0,15.4,0C466.2,5.9,466.2,10.3,466.2,15.3z"/>
	<path d="M710.3,668.6c0,4.6,0,9,0,13.8c-5.2,0-10.2,0-15.5,0c0-4.6,0-9,0-13.8C699.6,668.6,704.7,668.6,710.3,668.6z"/>
</g>
</svg>
