<svg xmlns="http://www.w3.org/2000/svg" xmlns:xlink="http://www.w3.org/1999/xlink"><symbol viewBox="0 0 24 24" xml:space="preserve" fill="currentColor" id="facebook"><path d="M22 12c0 5.1-3.9 9.3-8.8 10v-6.9h2.7l.5-3.1h-3.2v-1.1c0-1.6.6-2.3 2.3-2.3h1.1V6c-.4-.2-1.5-.3-2.1-.3-3.4 0-4.9 1.6-4.9 5V12H7.5v3.1h2.1v6.6C5.2 20.6 2 16.7 2 12 2 6.5 6.5 2 12 2s10 4.5 10 10z"/></symbol><symbol viewBox="0 0 24 24" xml:space="preserve" fill="currentColor" id="instagram"><path d="M12 7.5c2.5 0 4.5 2 4.5 4.5s-2 4.5-4.5 4.5-4.5-2-4.5-4.5 2-4.5 4.5-4.5zm0 7.4c1.6 0 2.9-1.3 2.9-2.9 0-1.6-1.3-2.9-2.9-2.9-1.6 0-2.9 1.3-2.9 2.9 0 1.6 1.3 2.9 2.9 2.9zm5.7-7.6c0-.6-.5-1.1-1.1-1.1-.6 0-1.1.5-1.1 1.1s.5 1.1 1.1 1.1c.7 0 1.1-.5 1.1-1.1zm3 1.1c.1 1.4.1 5.8 0 7.2-.1 1.4-.4 2.6-1.4 3.7-1 1-2.3 1.3-3.7 1.4-1.4.1-5.8.1-7.2 0-1.4-.1-2.6-.4-3.7-1.4-1-1.1-1.3-2.3-1.4-3.7-.1-1.4-.1-5.8 0-7.2.1-1.4.4-2.7 1.4-3.7 1.1-1 2.3-1.3 3.7-1.4 1.4-.1 5.8-.1 7.2 0 1.4.1 2.7.4 3.7 1.4 1 1 1.3 2.3 1.4 3.7zm-1.9 8.7c.5-1.1.4-3.9.4-5.2 0-1.2.1-4-.4-5.2-.3-.7-.9-1.4-1.6-1.6-1.2-.4-3.9-.3-5.2-.3-1.3 0-4-.1-5.2.4-.7.3-1.3.9-1.6 1.6-.5 1.2-.4 3.9-.4 5.2 0 1.3-.1 4 .4 5.2.3.8.9 1.4 1.7 1.7 1.1.5 3.9.4 5.2.4 1.2 0 4 .1 5.2-.4.6-.4 1.2-1 1.5-1.8z"/></symbol><symbol viewBox="0 0 24 24" xml:space="preserve" fill="currentColor" id="linkedin"><path d="M19.5 3.2c.7 0 1.2.6 1.2 1.3v15c0 .7-.6 1.2-1.2 1.2h-15c-.7 0-1.2-.5-1.2-1.2v-15c0-.7.5-1.3 1.2-1.3h15zm-11 15V9.9H5.9v8.3h2.6zM7.2 8.8c.8 0 1.5-.7 1.5-1.5S8 5.8 7.2 5.8c-.9 0-1.5.7-1.5 1.5s.7 1.5 1.5 1.5zm11 9.4v-4.6c0-2.2-.5-4-3.1-4-1.2 0-2.1.7-2.5 1.4V9.9h-2.5v8.3h2.6v-4.1c0-1.1.2-2.1 1.6-2.1 1.3 0 1.3 1.2 1.3 2.2v4.1h2.6z"/></symbol><symbol viewBox="0 0 24 24" xml:space="preserve" fill="currentColor" id="vimeo"><path d="M24 6.4c-.1 2.3-1.7 5.5-4.9 9.6-3.3 4.2-6 6.3-8.3 6.3-1.4 0-2.6-1.3-3.5-3.9l-1.9-7.1C4.6 8.8 3.8 7.5 3 7.5c-.2 0-.8.4-1.9 1.1L0 7.2 3.5 4C5.1 2.7 6.2 2 7 1.9c1.9-.2 3 1.1 3.4 3.9l1 5.5c.5 2.4 1.1 3.7 1.8 3.7.5 0 1.3-.8 2.3-2.4S17 9.8 17.1 9c.1-1.4-.4-2-1.6-2-.6 0-1.2.1-1.8.4 1.2-3.8 3.4-5.7 6.8-5.6 2.5-.1 3.6 1.5 3.5 4.6z"/></symbol><symbol viewBox="0 0 24 24" xml:space="preserve" fill="currentColor" id="x"><path d="M19 1.2h3.7l-8.1 9.2L24 22.8h-7.4l-5.8-7.6-6.6 7.6H.5L9 13 0 1.2h7.6l5.2 6.9L19 1.2zm-1.3 19.5h2L6.5 3.2H4.3l13.4 17.5z"/><script/></symbol><symbol viewBox="0 0 24 24" xml:space="preserve" fill="currentColor" id="youtube"><path d="M22.2 6.9c.5 1.6.5 5.2.5 5.2s0 3.5-.5 5.2c-.2.9-1 1.6-1.9 1.9-1.7.4-8.3.4-8.3.4s-6.7 0-8.4-.4c-.9-.2-1.6-.9-1.9-1.9-.4-1.8-.4-5.3-.4-5.3s0-3.5.5-5.2c.2-.9 1-1.6 1.9-1.8 1.6-.5 8.3-.5 8.3-.5s6.6 0 8.3.5c.9.2 1.7.9 1.9 1.9zM9.8 15.2l5.5-3.2-5.5-3.1v6.3z"/></symbol></svg>