<svg xmlns="http://www.w3.org/2000/svg" xmlns:xlink="http://www.w3.org/1999/xlink"><symbol viewBox="0 0 42 42" xml:space="preserve" fill="currentColor" id="arrow-left"><path d="m10.3 21.6 5.3 5.3c.3.3.9.3 1.2 0 .3-.3.3-.9 0-1.2l-3.9-3.9h18.2c.5 0 .8-.4.8-.8s-.4-.8-.8-.8H13l3.9-3.9c.3-.3.3-.9 0-1.2-.3-.3-.9-.3-1.2 0l-5.3 5.3c-.4.3-.4.9-.1 1.2z"/></symbol><symbol viewBox="0 0 42 42" xml:space="preserve" fill="currentColor" id="arrow-right"><path d="m31.7 20.4-5.3-5.3c-.3-.3-.9-.3-1.2 0-.3.3-.3.9 0 1.2l3.9 3.9H10.9c-.5 0-.8.4-.8.8s.4.8.8.8H29l-3.9 3.9c-.3.3-.3.9 0 1.2.3.3.9.3 1.2 0l5.3-5.3c.4-.3.4-.9.1-1.2z"/></symbol><symbol viewBox="0 0 42 42" xml:space="preserve" fill="currentColor" id="bars"><path d="M39.9 10H2.1C1.2 10 .5 9.3.5 8.4s.7-1.6 1.6-1.6h37.8c.9 0 1.6.7 1.6 1.6s-.7 1.6-1.6 1.6zM39.9 22.6H2.1c-.9 0-1.6-.7-1.6-1.6s.7-1.6 1.6-1.6h37.8c.9 0 1.6.7 1.6 1.6s-.7 1.6-1.6 1.6zM39.9 35.2H2.1c-.9 0-1.6-.7-1.6-1.6S1.2 32 2.1 32h37.8c.9 0 1.6.7 1.6 1.6s-.7 1.6-1.6 1.6z"/></symbol><symbol viewBox="0 0 42 42" xml:space="preserve" fill="currentColor" id="bullet"><circle cx="21" cy="21" r="11.7"/></symbol><symbol viewBox="0 0 42 42" xml:space="preserve" fill="currentColor" id="chevron-down"><path d="M21 26c-.2 0-.4-.1-.6-.2l-7.6-7.6c-.3-.3-.3-.9 0-1.2s.9-.3 1.2 0l7 7 7-7c.3-.3.9-.3 1.2 0s.3.9 0 1.2l-7.6 7.6c-.2.2-.4.2-.6.2z"/></symbol><symbol viewBox="0 0 42 42" xml:space="preserve" fill="currentColor" id="chevron-left"><path d="M28 33.6c-.5 0-.9-.2-1.3-.5l-14-11.4c-.5-.4-.8-1-.8-1.6 0-.6.3-1.2.8-1.6l14-11.4c.9-.7 2.2-.6 3 .3.7.9.6 2.2-.3 3l-12 9.7 12 9.7c.9.7 1 2.1.3 3-.5.5-1.1.8-1.7.8z"/></symbol><symbol viewBox="0 0 42 42" xml:space="preserve" fill="currentColor" id="chevron-right"><path d="M14.1 6.6c.5 0 .9.2 1.3.5l14 11.4c.5.4.8 1 .8 1.6s-.3 1.2-.8 1.6l-14 11.4c-.9.7-2.2.6-3-.3-.7-.9-.6-2.2.3-3l12-9.7-12-9.7c-.9-.7-1-2.1-.3-3 .5-.5 1.1-.8 1.7-.8z"/></symbol><symbol fill="currentColor" viewBox="0 0 42 42" id="controleur-wizard"><path d="M27.48 24.07h-2.2c-.15 0-.27.12-.27.27 0 .15.12.27.27.27h.83v3.54c0 .15.12.27.27.27.15 0 .27-.12.27-.27v-3.54h.83c.15 0 .27-.12.27-.27 0-.15-.12-.27-.27-.27ZM30.82 23.52v.02c-.03-.18-.06-.37-.1-.55-.06-.29-.16-.58-.29-.86-.09-.19-.25-.26-.43-.18-.13.06-.24.21-.15.44 0 .02.01.03.02.05 0 0 0 .02.01.03.28.65.36 1.33.23 2.04-.05.28-.14.57-.26.85-.11.25.03.38.1.42.06.03.11.05.17.05.03 0 .06 0 .08-.01.06-.02.15-.07.22-.21.25-.54.37-1.12.38-1.73v-.35l.02-.01ZM22.81 25.3s-.01-.03-.02-.05a3.52 3.52 0 0 1-.18-2.2c.05-.2.12-.41.23-.68a.33.33 0 0 0-.02-.32.302.302 0 0 0-.26-.14c-.19 0-.26.17-.29.23-.34.75-.45 1.55-.32 2.38.06.38.17.75.34 1.1.06.12.17.2.28.2.04 0 .09 0 .13-.03.16-.07.23-.24.16-.41a.689.689 0 0 0-.03-.08"/><path d="M31.83 24.07c0-.68-.07-1.19-.22-1.7a4.31 4.31 0 0 0-.27-.69c-.08-.16-.25-.23-.41-.15-.16.07-.23.24-.16.41 0 .02.02.04.02.06 0 0 0 .02.01.03.42.95.5 1.95.26 2.97-.07.27-.16.53-.28.8-.07.16-.02.28.04.34.06.08.15.12.25.12h.06c.16-.03.22-.16.25-.23.24-.53.39-1.1.44-1.62l.02.02v-.35l-.01-.01ZM21.62 22.84c.06-.29.16-.57.3-.88.05-.1.05-.21 0-.29a.331.331 0 0 0-.21-.17c-.09-.02-.27-.03-.38.21-.31.67-.47 1.39-.47 2.14 0 .75.15 1.47.45 2.13.08.18.18.27.31.27.04 0 .09-.01.13-.03.08-.04.14-.09.17-.16.05-.12 0-.24-.04-.34-.4-.93-.5-1.9-.27-2.89M27.96 26.01c-.41.34-.6.75-.58 1.24v.47c0 .03-.03.15-.03.15l-2.03-.02v-.09l-.04-.93c-.07-.3-.22-.55-.47-.74-.44-.35-.74-.77-.9-1.28-.22-.7-.12-1.46.26-2.09.39-.63 1.02-1.06 1.75-1.18.69-.11 1.38.05 1.94.46.55.41.91 1.01 1.01 1.69.13.94-.17 1.72-.91 2.33m-1.07 3.7c-.02 0-.03.02-.05.03l-.5.32-.32-.23c-.06-.03-.38-.27-.38-.27v-1.18H27.03v1.22l-.16.1.02.01Zm2.61-6.11c-.12-.86-.56-1.61-1.23-2.11-.69-.51-1.55-.72-2.42-.59-.97.15-1.8.74-2.28 1.62-.48.89-.53 1.91-.12 2.81.22.48.54.89.95 1.21.2.16.3.36.3.62V27.74c0 .26.12.46.34.58v1.28c0 .28.13.49.37.62.18.1.35.18.52.27.15.07.29.11.44.11.15 0 .29-.04.44-.11.08-.04.15-.08.22-.11.08-.04.17-.09.25-.13.28-.14.42-.36.41-.68v-1.24c.17-.1.35-.29.34-.66v-.4c-.02-.31.09-.55.38-.79.88-.74 1.26-1.73 1.11-2.86"/><path d="M6.83 12.65c.02-.79.01-1.59 0-2.38 0-.19.06-.23.23-.22.39.01.79.02 1.18 0 .19 0 .25.05.24.24-.04.59.15 1.1.63 1.46.53.4 1.11.47 1.71.19.59-.28.9-.77.93-1.43.03-.46.02-.46.47-.46h8.18c.25 0 .38.12.38.37 0 .92.68 1.64 1.56 1.68.94.04 1.7-.69 1.72-1.65 0-.27.14-.4.41-.4h1.08c.12 0 .16.03.16.16v2.57c0 .16-.08.15-.19.15H7.11c-.22 0-.29-.04-.29-.27m2.65-3.85h1.31c.14 0 .17.06.17.18v1.46c-.01.46-.36.82-.81.82-.46 0-.82-.36-.83-.83V8.98c0-.13.04-.18.17-.17m12.3 0h1.31c.14 0 .18.05.17.18v1.48c-.02.46-.38.81-.83.8a.81.81 0 0 1-.81-.8c-.01-.5 0-.99 0-1.49 0-.13.03-.18.17-.18m-5.06 18.08H7.09c-.19 0-.26-.04-.26-.25V13.98c0-.21.06-.25.26-.25h18.36c.21 0 .27.04.27.26v5.08h.81V9.84c0-.52-.1-.62-.63-.62h-1.64c-.14 0-.2-.04-.19-.18.01-.2 0-.41 0-.61 0-.26-.16-.43-.41-.43H21.2c-.24 0-.39.16-.41.41 0 .17-.02.34 0 .51.03.24-.04.31-.3.31-2.81-.01-5.63 0-8.44 0h-.15c-.12.01-.15-.04-.15-.15v-.64c0-.28-.16-.44-.43-.44H8.91c-.28 0-.43.16-.44.45 0 .19-.01.38 0 .57.01.17-.04.22-.21.21-.56-.01-1.11 0-1.67 0-.47 0-.59.12-.59.59v17.27c0 .5.11.61.62.61h10.09v-.81l.02-.01Z"/><path d="M15.05 24.42c0-.45-.36-.82-.81-.82-.46 0-.83.37-.83.83 0 .45.37.81.82.81.45 0 .82-.37.82-.82Zm-.82-1.65c.91 0 1.64.74 1.64 1.65 0 .9-.75 1.64-1.66 1.63-.9 0-1.62-.74-1.63-1.64 0-.91.74-1.65 1.65-1.65v.01ZM14.21 19.49c-.45 0-.81.38-.81.83 0 .46.39.83.85.81.44-.01.81-.4.79-.84a.822.822 0 0 0-.83-.8Zm.01 2.46c-.91 0-1.64-.75-1.63-1.66 0-.9.76-1.64 1.66-1.62.9.01 1.63.76 1.62 1.67-.01.89-.75 1.62-1.65 1.61ZM15.05 16.21a.83.83 0 0 0-.81-.83c-.46 0-.84.37-.84.82 0 .45.37.81.82.82.44 0 .82-.37.82-.81h.01Zm-.83-1.65c.91 0 1.65.73 1.65 1.64 0 .9-.74 1.65-1.64 1.64-.9 0-1.63-.73-1.64-1.63 0-.91.73-1.65 1.63-1.66v.01ZM23.28 16.21a.807.807 0 0 0-.78-.84.808.808 0 0 0-.85.77c-.02.46.33.85.8.86.46 0 .82-.34.83-.79Zm-.84 1.61c-.92-.02-1.63-.75-1.62-1.67.01-.91.76-1.63 1.67-1.61.92.02 1.63.77 1.6 1.68-.03.9-.76 1.61-1.66 1.6h.01ZM18.36 15.38c-.46 0-.84.36-.83.82 0 .44.39.82.82.82.45 0 .81-.37.81-.82a.8.8 0 0 0-.8-.82Zm1.62.81c0 .91-.74 1.65-1.64 1.65-.9 0-1.65-.76-1.64-1.66 0-.91.75-1.63 1.66-1.63.9 0 1.62.73 1.62 1.64ZM10.13 23.59c-.21 0-.43.01-.64 0-.17-.01-.2.05-.2.21v1.25c0 .14.03.19.18.19.43-.01.85-.01 1.28 0 .15 0 .18-.05.18-.19v-1.28c0-.13-.03-.18-.17-.18-.21.01-.43 0-.64 0m-1.64.82v-1.15c0-.34.15-.49.49-.49h2.31c.34 0 .49.15.49.49v2.31c0 .34-.15.49-.49.49H8.97c-.33 0-.48-.15-.49-.49v-1.15M10.94 20.31v-.64c0-.14-.04-.19-.19-.19H9.47c-.15 0-.18.05-.18.19v1.28c0 .13.04.18.17.18h1.31c.14 0 .17-.05.17-.18v-.64Zm-.79-1.64h1.13c.34 0 .49.15.49.48v2.31c0 .33-.15.49-.49.49H8.97c-.34 0-.49-.15-.49-.49v-2.31c0-.34.15-.48.49-.49h1.18v.01ZM10.13 17.03h.64c.14 0 .18-.04.17-.17v-1.31c0-.14-.06-.17-.18-.17H9.48c-.15 0-.19.04-.19.19 0 .41.02.82 0 1.23 0 .21.07.25.25.23.2-.01.39 0 .59 0Zm.02-2.47h1.13c.33 0 .48.15.49.49v2.31c0 .33-.15.49-.49.49H8.97c-.34 0-.49-.15-.49-.49v-2.31c0-.34.15-.48.49-.49h1.18ZM33.98 33.79H18.39c-1.09 0-1.97-.89-1.97-1.97v-.09h6.27c.16.43.6 1.04 1.85 1.04h3.59c.43-.02 1.21-.27 1.53-1.04h6.29v.09c0 1.09-.88 1.97-1.97 1.97Zm2.37-2.87h-.62V20.25c0-.91-.74-1.66-1.66-1.66h-2.2c-.22 0-.4.18-.4.4 0 .22.18.4.4.4h2.2c.47 0 .85.38.85.85v10.67h-5.56c-.19 0-.36.14-.4.32-.12.62-.78.7-.88.71h-3.56c-1.08 0-1.13-.57-1.13-.63 0-.22-.18-.4-.4-.4h-5.53V20.24c0-.47.38-.85.85-.85h14.13c.22 0 .4-.18.4-.4 0-.22-.18-.4-.4-.4H18.31c-.91 0-1.66.74-1.66 1.66v10.67h-.66c-.22 0-.4.18-.4.4v.49c0 1.53 1.25 2.78 2.78 2.78h15.59c1.53 0 2.78-1.25 2.78-2.78v-.49c0-.22-.18-.4-.4-.4"/></symbol><symbol fill="currentColor" viewBox="0 0 42 42" id="detection-anomalies"><path d="M31.44 32.45H11.56c-1.39 0-2.52-1.13-2.52-2.52v-.11h7.99c.2.55.77 1.32 2.36 1.32h4.59c.55-.03 1.55-.34 1.96-1.32h8.02v.11c0 1.39-1.13 2.52-2.52 2.52Zm3.03-3.65h-.79V15.19c0-1.17-.95-2.12-2.12-2.12h-2.81c-.28 0-.51.23-.51.52 0 .29.23.51.51.51h2.81c.6 0 1.09.49 1.09 1.09V28.8h-7.1c-.24 0-.46.17-.51.41-.16.8-.99.9-1.12.91h-4.54c-1.38 0-1.44-.73-1.44-.81a.52.52 0 0 0-.51-.52h-7.05V15.18c0-.6.49-1.09 1.09-1.09h4.21c.28 0 .51-.23.51-.51a.52.52 0 0 0-.51-.52h-4.21c-1.17 0-2.12.95-2.12 2.12v13.61h-.84c-.28 0-.51.23-.51.52v.63a3.55 3.55 0 0 0 3.55 3.55h19.89a3.55 3.55 0 0 0 3.55-3.55v-.63a.52.52 0 0 0-.51-.52"/><path d="M18.61 19.66c-.15.11-.32.1-.44-.02-.32-.3-.65-.61-.97-.9l-.39-.36-.08-.08c-.09-.09-.19-.18-.28-.26-.27-.25-.54-.52-.82-.77-.15-.13-.23-.23-.23-.31 0-.08.1-.19.23-.32s.22-.14.36-.01l1.98 1.86.64.6c.05.05.09.1.11.15.07.15.02.33-.11.42Zm-.02-2.79c-.15.15-.3.31-.48.52-.23-.22-.46-.43-.69-.65-.29-.27-.57-.54-.86-.81-.11-.1-.05-.21-.01-.26.06-.07.12-.14.19-.21.12-.12.21-.12.33 0 .17.16.35.32.52.49l.44.41c.18.17.38.35.57.53m-4.32 1.25c0-.07.09-.17.23-.32s.22-.15.37 0l.87.81 1 .94c.07.07.15.14.22.21.19.18.39.36.58.55.1.1.12.26.05.4-.07.13-.2.19-.36.16-.03 0-.06-.01-.09-.03-.04-.04-.07-.08-.12-.12l-1.02-.9-1.49-1.4c-.14-.14-.24-.24-.24-.3Zm10.08.33c-.07.32-.14.65-.22.96-.06.24 0 .44.18.61.27.24.53.5.79.74.22.21.45.42.68.63-.93.98-1.88 1.99-2.9 3.09-.25-.24-.51-.48-.76-.72-.24-.23-.49-.46-.73-.69a.578.578 0 0 0-.4-.17h-.08c-.24.03-.49.05-.73.07h-.04c-.41.04-.76-.06-1.05-.3-.29-.24-.56-.5-.82-.75-.12-.11-.23-.22-.35-.34.37-.22.58-.55.61-1v-.01h.01c.4-.06.7-.25.9-.57.21-.33.25-.69.13-1.07.28-.02.55-.08.81-.18-.07.5-.04.99.09 1.47.03.11.08.23.21.32.16.1.34.1.5 0 .18-.12.23-.3.17-.54-.24-1.03-.02-1.91.68-2.7.2-.23.21-.5.02-.68-.19-.18-.47-.16-.68.06-.12.12-.23.24-.35.37-.13.14-.26.28-.4.42-.1.11-.19.19-.27.26-.41.34-1.07.41-1.54.17l.66-.71c.53-.57 1.06-1.13 1.59-1.69.36-.38.86-.4 1.24-.04.51.47 1.03.96 1.61 1.51.42.4.57.88.44 1.46m-2.6-6.03c-.25-.79-.13-1.53.34-2.19.12-.17.27-.33.43-.49.14-.14.28-.29.4-.45.22-.28.46-.39.8-.36.17.01.34 0 .52 0l-.34.36c-.42.45-.85.91-1.29 1.37-.12.13-.18.28-.17.45.01.23.02.49.03.78 0 .17.06.3.18.41.29.27.58.54.87.82.12.11.26.16.43.15.22-.01.46-.02.7-.02h.04c.2 0 .36-.07.5-.23.4-.44.82-.88 1.22-1.3.13-.13.25-.27.38-.4v.07l.03.92s0 .01-.04.05l-.2.21-.4.43c-.04.04-.08.08-.12.13-.16.18-.32.34-.5.48-.64.48-1.35.61-2.13.41-.24-.06-.44 0-.59.17-.05.05-.09.1-.15.16-.05.06-.11.11-.16.18l-.02.02s-.01 0-.03-.01c-.48-.24-.99-.25-1.51-.03-.3.13-.52.35-.68.53-.1-.1-.19-.19-.28-.26 0 0 0-.01.01-.02.22-.23.44-.47.66-.7.3-.32.61-.65.92-.97.19-.19.23-.4.15-.66m-3.58 1.85.51.48.23.21c.07.07.14.13.21.2.18.17.37.35.56.52-.15.15-.32.33-.48.51h-.01l-1.02-.96-.34-.32c-.12-.12-.24-.23-.24-.31 0-.07.11-.2.23-.32.07-.07.12-.1.18-.1.05 0 .11.03.18.09m-3 6.15s.06.01.09.03l.93.82.22.2s.02.11-.02.15l-1.32 1.5s-.06.04-.09.05c-.04 0-.07-.01-.1-.03l-1.12-.98s-.04-.06-.05-.09c0-.04 0-.07.03-.1l1.32-1.5s.06-.04.09-.05m7.94 5.18s.02-.02.03-.04l2.87-3.05.72-.77.06-.06c.04-.04.08-.08.11-.12l1.16 1.08s.01.02.02.03l.49.46s.01.01.01.02l-.02.02c-.49.51-.98 1.04-1.46 1.55l-.87.92c-.47.5-.96 1.02-1.43 1.53l-.02.02s-.01 0-.02-.02c-.61-.58-1.14-1.08-1.64-1.54-.02-.01-.03-.03-.03-.03m-7.49-9.96c-.54.12-1.01.62-1.1 1.17-.46.1-.8.41-1.04.92-.15.32-.1.67.14 1.05v.02l.95.89c-.06.04-.11.09-.16.15l-1.32 1.5c-.19.22-.28.49-.26.78.02.29.15.55.37.74l1.12.98c.21.19.49.28.78.26.29-.02.55-.15.74-.36l1.32-1.5s.04-.05.06-.07l1.38 1.29h.02s.02.02.03.02h.02c.47.33 1 .47 1.58.43.19-.02.39-.03.59-.06.05 0 .07 0 .11.04l.99.93.3.28c.06.05.05.07 0 .12-.28.29-.27.52.02.8l.55.51c.54.51 1.1 1.03 1.64 1.55.13.13.27.19.41.19.07 0 .13-.01.2-.04h.03l4.49-4.79.04.02.04-.12c.08-.23.03-.42-.16-.6-.55-.51-1.11-1.04-1.65-1.55l-.57-.54c-.27-.25-.51-.25-.76.03-.06.06-.08.06-.14 0-.11-.1-.22-.2-.32-.3l-.91-.85c-.05-.05-.05-.07-.04-.13.06-.23.11-.47.16-.7v-.05c.2-.9-.04-1.68-.7-2.32-.43-.41-.87-.82-1.29-1.21l-.01-.01.01-.01c.1-.13.19-.16.36-.13 1.13.16 2.11-.18 2.92-1.01.2-.21.4-.42.59-.63l.46-.49a.55.55 0 0 0 .16-.44l-.03-.99c0-.23-.01-.47-.02-.7-.01-.27-.33-.66-.59-.71-.23-.05-.39.08-.48.18-.13.14-.26.28-.4.42-.2.21-.39.42-.59.63l-.73.78c-.22.23-.48.35-.81.35-.03 0-.04 0-.07-.03-.16-.16-.33-.31-.49-.46l-.12-.11s-.03-.02-.03-.03c0-.18 0-.36-.02-.54 0 0 .02-.02.03-.04l.03-.03c.32-.35.65-.69.97-1.04.32-.35.65-.69.97-1.03.27-.29.26-.5-.02-.79a.844.844 0 0 0-.69-.27c-.42.03-.85.04-1.26.05h-.29c-.17 0-.3.07-.41.18l-.41.44c-.24.25-.48.51-.71.77-.76.87-1.01 1.89-.74 3.04.01.07 0 .08-.03.12-.5.52-.98 1.04-1.44 1.53-.18-.17-.36-.35-.54-.51l-.04-.03c-.49-.45-1.15-.43-1.61.05-.2.2-.44.46-.48.83-.6.17-.97.57-1.1 1.17"/></symbol><symbol fill="currentColor" viewBox="0 0 42 42" id="eclairage-dynamique"><path d="M19.59 24.533c-.19-1.4-.91-2.62-2.01-3.45-1.12-.84-2.52-1.18-3.94-.96-1.58.24-2.93 1.2-3.72 2.64-.78 1.44-.85 3.11-.19 4.58.35.78.87 1.45 1.55 1.97.33.26.49.59.48 1.01V31.253c0 .42.19.75.55.94v2.1c0 .45.21.79.6 1 .3.16.58.3.84.44.24.12.48.18.72.18s.48-.06.71-.18c.12-.06.24-.12.36-.19.14-.07.28-.15.41-.21.45-.22.68-.6.67-1.11v-2.02c.28-.16.58-.47.55-1.07v-.64c-.04-.51.15-.9.62-1.29 1.43-1.21 2.06-2.82 1.8-4.66m-4.25 9.94c-.03.01-.05.03-.08.04l-.81.52-.52-.37c-.09-.05-.61-.44-.61-.44V32.323h2.28v1.98l-.26.17v.01Zm1.75-6.04c-.67.56-.98 1.22-.95 2.02v.76c0 .05-.05.24-.05.24l-3.31-.02v-.16l-.06-1.52a2.14 2.14 0 0 0-.76-1.21c-.72-.57-1.2-1.25-1.46-2.08-.36-1.13-.2-2.38.43-3.4a4.155 4.155 0 0 1 2.84-1.93c1.13-.19 2.25.08 3.17.75.9.66 1.48 1.64 1.64 2.76.21 1.53-.28 2.8-1.48 3.8M17.68 15.243c.72.21 1.43.5 2.18.89.26.13.52.16.75.07a.82.82 0 0 0 .45-.51c.08-.23.11-.67-.48-.99-1.65-.88-3.46-1.39-5.37-1.51-1.91-.11-3.75.17-5.48.83-.47.18-.71.43-.73.75 0 .11.01.22.06.34.08.21.21.37.38.45.29.13.61.04.86-.05 2.42-.89 4.91-.98 7.39-.27"/><path d="M15.3 15.723c-1.21-.1-2.11-.05-3.04.14-.46.1-.87.22-1.25.37-.3.12-.43.4-.33.7.11.3.39.44.7.35a.3.3 0 0 0 .1-.04c.01 0 .03-.01.05-.02 1.74-.6 3.52-.6 5.28-.02.46.15.91.35 1.38.62.27.15.48.08.61-.01.14-.1.23-.25.24-.42v-.11c-.02-.28-.25-.41-.37-.47-.9-.5-1.84-.81-2.79-1.02l-.59-.08.01.01Z"/><path d="M14.34 17.603s-.48.03-.73.06c-.4.05-.8.14-1.19.28-.26.1-.38.31-.3.55.07.19.25.35.57.25.02 0 .05-.01.07-.02.01 0 .03 0 .04-.01.91-.3 1.84-.32 2.77-.07.38.1.75.26 1.11.46.33.19.52 0 .59-.09.05-.07.08-.15.09-.23v-.11c-.02-.09-.08-.21-.25-.32-.7-.4-1.47-.64-2.29-.72l-.48-.05v.02ZM16.3 25.273h-3.58c-.24 0-.44.2-.44.44s.2.44.44.44h1.35v5.77c0 .24.2.44.44.44s.44-.2.44-.44v-5.77h1.35c.24 0 .44-.2.44-.44s-.2-.44-.44-.44ZM32.41 20.963c-.12-.9-.59-1.69-1.3-2.23-.72-.54-1.63-.76-2.55-.62-1.02.15-1.9.78-2.4 1.71-.51.93-.55 2.01-.12 2.96.23.51.57.93 1 1.28.21.17.32.38.31.66V25.323c0 .27.12.48.36.61V27.293c0 .29.14.51.39.65.19.1.37.2.54.28.15.08.31.12.46.12.15 0 .31-.04.46-.11.08-.04.16-.08.23-.12.09-.05.18-.09.27-.14.29-.14.44-.39.43-.72v-1.31c.18-.1.37-.3.36-.69v-.42c-.02-.33.1-.58.4-.84.92-.78 1.33-1.83 1.17-3.02m-2.76 6.43c-.02.01-.04.02-.05.03l-.52.33-.34-.24c-.06-.03-.39-.28-.39-.28V26.013h1.48v1.29l-.17.11-.01-.01Zm1.13-3.91c-.43.36-.64.79-.61 1.31v.49c0 .03-.03.15-.03.15l-2.14-.02V25.323l-.04-.98c-.07-.32-.24-.58-.49-.78a2.71 2.71 0 0 1-.95-1.35c-.23-.73-.13-1.54.28-2.2.41-.67 1.08-1.12 1.84-1.25.73-.12 1.46.05 2.05.48.58.43.96 1.06 1.06 1.78.14.99-.18 1.82-.95 2.46"/><path d="M30.28 21.443h-2.32a.29.29 0 0 0 0 .58h.87v3.73a.29.29 0 0 0 .58 0v-3.73h.87a.29.29 0 0 0 0-.58Z"/><path d="m30.59 13.903-1.76 2.49m0 0-2.35-1.94m2.35 1.94c-.94-6.98-4.5-9.31-7.36-9.39-4.48-.13-6.36 3.95-6.36 3.95" stroke="#102345" stroke-width=".56" stroke-linecap="round" stroke-linejoin="round"/></symbol><symbol fill="currentColor" viewBox="0 0 42 42" id="eclairage-garanti"><path d="M27.93 27.39h-1.05v2.1h1.05v-2.1Zm4.2-2.62h-9.44v5.77c0 .87.7 1.57 1.57 1.57h6.29c.87 0 1.57-.7 1.57-1.57v-5.77h.01Zm-7.35-1.05h5.24v-1.57c0-1.45-1.18-2.62-2.62-2.62-1.44 0-2.62 1.17-2.62 2.62v1.57Zm8.4 0v6.82c0 1.45-1.18 2.62-2.62 2.62h-6.29c-1.45 0-2.62-1.18-2.62-2.62v-6.82h2.1v-1.57c0-2.02 1.65-3.67 3.67-3.67s3.67 1.65 3.67 3.67v1.57h2.1-.01Zm-15.74-6.08 4.42-4.42h3.97v3.37c.34-.09.69-.16 1.05-.19v-4.22h-5.46l-5.03 5.02v5.47h3.15v-1.05h-2.1v-3.98Zm-4.19-2.52 1.88-1.88h-1.88v1.88Zm0 10.7h6.29v1.05H12.2V12.19h5.46l-4.41 4.42v9.22-.01Zm-4.2 4.2h10.49v1.05H8V10.62C8 9.17 9.18 8 10.62 8h17.83c1.45 0 2.62 1.17 2.62 2.62v7.09c-.33-.26-.67-.5-1.05-.69v-6.4c0-.87-.7-1.57-1.57-1.57H10.62c-.87 0-1.57.7-1.57 1.57v19.4Z"/></symbol><symbol viewBox="0 0 42 42" xml:space="preserve" fill="currentColor" id="envelope"><path d="m22.6 33.6 8.5-22.4c.4-1-.6-2-1.6-1.6L7.2 18.2c-1.1.4-1.1 2 0 2.4l8.9 3 4.1-4.1c.3-.3.8-.3 1.1 0 .3.3.3.8 0 1.1l-4.1 4.1 3 8.9c.5 1 2 1.1 2.4 0z"/></symbol><symbol viewBox="0 0 24 24" xml:space="preserve" fill="currentColor" id="facebook"><path d="M22 12c0 5.1-3.9 9.3-8.8 10v-6.9h2.7l.5-3.1h-3.2v-1.1c0-1.6.6-2.3 2.3-2.3h1.1V6c-.4-.2-1.5-.3-2.1-.3-3.4 0-4.9 1.6-4.9 5V12H7.5v3.1h2.1v6.6C5.2 20.6 2 16.7 2 12 2 6.5 6.5 2 12 2s10 4.5 10 10z"/></symbol><symbol fill="currentColor" viewBox="0 0 42 42" id="gestion-calendaire"><path d="M29.75 26.95c-.09 0-.17-.03-.24-.1l-.59-.59a.344.344 0 0 1 0-.48c.13-.13.35-.13.48 0l.35.35 2.14-2.14c.13-.13.35-.13.48 0s.13.35 0 .48L30 26.84c-.07.07-.15.1-.24.1"/><path d="M28.36 27.53h4.48v-4.48h-4.48v4.48Zm4.75.68h-5.02c-.22 0-.41-.18-.41-.41v-5.02c0-.23.18-.41.41-.41h5.02c.22 0 .41.18.41.41v5.02c0 .22-.18.41-.41.41Z"/><path d="M28.02 25.77h-2.59c-.19 0-.34-.15-.34-.34 0-.19.15-.34.34-.34h2.59c.19 0 .34.15.34.34 0 .19-.15.34-.34.34ZM21.9 24.27a1.16 1.16 0 1 0 .002 2.322 1.16 1.16 0 0 0-.002-2.322Zm0 3c-1.01 0-1.84-.82-1.84-1.84s.82-1.84 1.84-1.84 1.84.82 1.84 1.84-.82 1.84-1.84 1.84Z"/><path d="M21.53 28.58h.71v-.54a.39.39 0 0 1 .21-.3l.76-.36c.13-.06.29-.03.39.07l.33.35.45-.41-.35-.39a.348.348 0 0 1-.07-.34l.23-.69c.05-.14.18-.23.32-.23h.6v-.62h-.58c-.13 0-.25-.08-.31-.2l-.3-.66a.336.336 0 0 1 .07-.38l.38-.38-.47-.52-.43.42c-.1.1-.25.12-.38.06l-.58-.28a.34.34 0 0 1-.19-.3v-.6h-.8v.55c0 .12-.07.24-.18.3l-.66.36c-.13.07-.29.05-.4-.06l-.4-.4-.47.47.36.4c.09.1.11.23.07.35l-.28.71c-.05.14-.19.22-.33.21l-.48-.03v.61l.54-.02c.14 0 .27.08.32.21l.3.76c.06.14.01.3-.1.39l-.37.3.48.48.35-.36c.09-.09.23-.13.35-.09l.69.23c.14.05.23.18.23.32v.58l-.01.03Zm1.03.67h-1.37c-.19 0-.34-.15-.34-.34v-.67l-.25-.08-.44.46a.35.35 0 0 1-.24.1.35.35 0 0 1-.24-.1l-.99-.99a.354.354 0 0 1-.1-.26c0-.1.05-.18.12-.24l.47-.38-.12-.31-.65.02c-.09 0-.18-.03-.25-.09a.35.35 0 0 1-.1-.24v-1.32c0-.09.04-.18.11-.25s.16-.1.25-.09l.59.04.11-.29-.44-.48a.352.352 0 0 1 0-.47l.94-.94c.13-.13.35-.13.48 0l.46.46.26-.14v-.69c0-.19.15-.34.34-.34h1.47c.19 0 .34.15.34.34v.73l.18.09.52-.5c.07-.06.15-.1.25-.1.09 0 .18.04.24.11l.92 1.02c.12.13.11.34-.01.46l-.44.44.12.25h.7c.19 0 .34.15.34.34v1.29c0 .19-.15.34-.34.34h-.7l-.09.26.45.49a.336.336 0 0 1-.02.48l-.94.86c-.14.12-.35.12-.47-.01l-.39-.41-.35.16-.02.65c0 .18-.16.33-.34.33"/><path d="M6.81 12.59c.02-.78.01-1.57 0-2.35 0-.18.05-.23.23-.22.39.01.78.01 1.16 0 .19 0 .25.04.24.24-.03.58.15 1.08.62 1.44.52.4 1.1.47 1.69.18.58-.28.88-.76.92-1.4.03-.46.02-.46.47-.46h8.07c.25 0 .37.12.38.37 0 .91.67 1.62 1.54 1.65.93.04 1.68-.68 1.7-1.63 0-.26.14-.4.4-.4h1.06c.12 0 .16.03.16.16v2.53c0 .16-.08.15-.19.15H7.1c-.21 0-.29-.04-.28-.27M9.41 8.8h1.29c.14 0 .17.06.16.18v1.44c-.01.46-.36.81-.8.81-.45 0-.81-.35-.82-.82V8.97c0-.13.04-.17.17-.17Zm12.14 0h1.29c.14 0 .17.04.17.17v1.46a.81.81 0 0 1-.82.79c-.43 0-.79-.35-.79-.79-.01-.49 0-.98 0-1.47 0-.12.03-.18.17-.18m-5 17.84H7.06c-.19 0-.25-.04-.25-.25V13.9c0-.21.06-.25.25-.25h18.12c.2 0 .27.04.27.26v5.42h.8V9.82c0-.51-.1-.61-.62-.61h-1.62c-.14 0-.2-.03-.19-.18.01-.2 0-.4 0-.61 0-.26-.16-.42-.41-.42h-2.43c-.24 0-.39.16-.4.4 0 .17-.02.34 0 .51.03.24-.04.31-.29.31h-8.48c-.11.01-.15-.04-.14-.15v-.63c0-.27-.16-.43-.42-.43H8.87c-.28 0-.43.16-.44.45 0 .18-.01.37 0 .56.01.16-.04.22-.21.21H6.58c-.46 0-.58.12-.58.59v17.03c0 .5.11.6.61.6h9.95v-.8l.01-.03Z"/><path d="M14.91 24.2c0-.44-.36-.81-.8-.81-.45 0-.82.36-.82.82 0 .44.37.8.81.8.44 0 .81-.37.81-.8m-.81-1.64c.9 0 1.62.73 1.62 1.63 0 .89-.74 1.62-1.64 1.61-.88 0-1.6-.73-1.6-1.62 0-.9.73-1.62 1.62-1.62ZM14.09 19.33c-.44 0-.8.37-.8.81 0 .45.38.82.83.8a.811.811 0 0 0-.04-1.62l.01.01Zm0 2.43c-.89 0-1.62-.74-1.61-1.64 0-.89.75-1.61 1.64-1.6.89.01 1.61.75 1.6 1.65-.01.88-.75 1.6-1.63 1.59ZM14.91 16.1a.82.82 0 0 0-.8-.82c-.45 0-.82.36-.82.81a.811.811 0 0 0 1.62 0v.01Zm-.82-1.63c.9 0 1.63.72 1.63 1.62 0 .89-.73 1.62-1.62 1.62-.88 0-1.61-.72-1.62-1.6 0-.9.72-1.63 1.61-1.64ZM23.03 16.09a.797.797 0 0 0-.77-.83.783.783 0 0 0-.83.76c-.02.46.33.83.78.84.45.01.81-.33.82-.78v.01Zm-.83 1.59a1.62 1.62 0 0 1-1.6-1.64c.01-.9.75-1.61 1.65-1.59.9.02 1.61.76 1.58 1.65-.03.89-.75 1.59-1.64 1.58h.01ZM18.17 15.28c-.46 0-.83.36-.82.81 0 .43.38.81.81.8.44 0 .8-.36.8-.8 0-.45-.34-.81-.79-.81Zm1.61.8c0 .9-.72 1.62-1.62 1.62-.88 0-1.62-.75-1.62-1.63 0-.89.74-1.61 1.64-1.6.89 0 1.6.72 1.6 1.61ZM10.06 23.38c-.21 0-.42.01-.63 0-.16-.01-.2.05-.19.2v1.24c0 .14.03.19.18.19.42-.01.84-.01 1.26 0 .15 0 .18-.05.18-.19v-1.26c0-.13-.03-.18-.17-.17-.21.01-.42 0-.63 0m-1.63.8v-1.14c0-.33.15-.48.48-.48h2.28c.33 0 .48.15.48.48v2.28c0 .33-.15.48-.48.48H8.91c-.33 0-.48-.15-.48-.48v-1.14ZM10.86 20.15v-.63c0-.14-.04-.19-.18-.19H9.42c-.15 0-.18.05-.18.19v1.26c0 .13.04.18.17.17h1.29c.14 0 .17-.05.17-.18v-.63l-.01.01Zm-.78-1.63h1.11c.33 0 .48.15.48.48v2.28c0 .33-.15.48-.48.48H8.91c-.33 0-.48-.15-.48-.48V19c0-.33.15-.48.48-.48h1.17ZM10.06 16.9h.63c.13 0 .17-.04.17-.17v-1.29c0-.14-.06-.16-.18-.16H9.42c-.15 0-.19.04-.18.19 0 .4.01.81 0 1.21 0 .2.07.24.24.23.19-.01.39 0 .58 0v-.01Zm.02-2.43h1.11c.33 0 .48.15.48.48v2.28c0 .33-.15.48-.48.48H8.91c-.33 0-.48-.15-.48-.48v-2.28c0-.33.15-.48.48-.48h1.16M33.58 33.84H18.2c-1.07 0-1.94-.87-1.94-1.94v-.09h6.18c.15.42.59 1.02 1.83 1.02h3.55c.42-.02 1.2-.26 1.51-1.02h6.2v.09c0 1.07-.87 1.94-1.94 1.94m2.34-2.83h-.61V20.49c0-.9-.74-1.64-1.64-1.64h-2.17c-.22 0-.4.18-.4.4 0 .22.18.4.4.4h2.17c.46 0 .84.38.84.84v10.52h-5.49c-.19 0-.35.13-.39.32-.12.62-.77.69-.86.7h-3.51c-1.06 0-1.11-.56-1.11-.62 0-.22-.18-.4-.4-.4h-5.45V20.49c0-.46.38-.84.84-.84h13.94c.22 0 .4-.18.4-.4 0-.22-.18-.4-.4-.4H18.15c-.9 0-1.64.74-1.64 1.64v10.52h-.65c-.22 0-.4.18-.4.4v.48c0 1.51 1.23 2.74 2.74 2.74h15.38c1.51 0 2.74-1.23 2.74-2.74v-.48c0-.22-.18-.4-.4-.4"/></symbol><symbol fill="currentColor" viewBox="0 0 42 42" id="gestion-variation-temperature"><path d="m33.72 20.48-4.49.71M28.77 12.85l-2.73 3.64M17.37 10.51l1.18 4.4M9.06 16.73l3.98 2.21M31.82 30.87A13.46 13.46 0 0 0 34 23.5C34 16.04 27.96 10 20.5 10S7 16.05 7 23.5c0 2.24.54 4.35 1.51 6.2l1.21-3.39 3.3 1.66a8.636 8.636 0 0 1-1.24-4.48c0-4.81 3.9-8.72 8.72-8.72s8.72 3.9 8.72 8.72c0 1.66-.46 3.21-1.27 4.53l.09 3.64 3.78-.81v.02Z" stroke="#102345" stroke-width=".94" stroke-linecap="round" stroke-linejoin="round"/><path d="m26.03 20.12-1.26 3.83-1.24-3.83h-1.16l-1.27 3.8-1.22-3.8h-1.3l1.78 5.41h1.34l1.23-3.66 1.19 3.66h1.34l1.77-5.41h-1.2ZM15.5 25.53h1.25v-4.39h1.73v-1.02h-4.71v1.02h1.73v4.39Z"/></symbol><symbol viewBox="0 0 26 26" xml:space="preserve" fill="currentColor" id="globe"><path d="M13 21.7c-4.8 0-8.7-3.9-8.7-8.7S8.2 4.3 13 4.3c4.8 0 8.7 3.9 8.7 8.7s-3.9 8.7-8.7 8.7zm3.2-5c-.4 1.5-1.2 2.8-2.1 4 2.2-.3 4.1-1.6 5.3-3.4-.9-.3-2-.5-3.2-.6zm-9.7.6c1.2 1.8 3.1 3 5.3 3.4-1-1.2-1.7-2.6-2.1-4-1.1.1-2.2.3-3.2.6zm4.2-.7c.5 1.5 1.2 2.9 2.3 4 1-1.1 1.8-2.5 2.3-4-1.5-.2-3.1-.2-4.6 0zm5.8-.9c1.2.2 2.4.4 3.5.7.5-.9.7-1.9.8-3h-4c-.1.8-.2 1.6-.3 2.3zM5.2 13.5c.1 1.1.4 2.1.8 3 1.1-.3 2.2-.6 3.5-.7-.2-.7-.3-1.5-.3-2.3h-4zm7.8 2c.9 0 1.7 0 2.5.1.2-.7.3-1.4.3-2.2h-5.6c0 .7.1 1.5.3 2.2.8 0 1.6-.1 2.5-.1zm3.8-3h4c-.1-1.1-.4-2.1-.8-3-1.1.3-2.2.6-3.5.7.1.8.2 1.6.3 2.3zm-6.6 0h5.6c0-.7-.1-1.5-.3-2.2-1.6.2-3.4.2-5.1 0-.1.8-.2 1.5-.2 2.2zm-5 0h4c0-.8.1-1.5.3-2.3-1.2-.1-2.4-.4-3.5-.7-.4.9-.7 1.9-.8 3zm5.5-3.1c1.5.1 3.1.1 4.6 0-.5-1.5-1.2-2.9-2.3-4-1 1.2-1.8 2.5-2.3 4zm-4.2-.7c1 .3 2.1.5 3.2.7.4-1.5 1.2-2.9 2.1-4-2.1.2-4.1 1.5-5.3 3.3zm7.6-3.4c1 1.2 1.7 2.6 2.1 4 1.2-.1 2.2-.4 3.2-.7-1.1-1.7-3.1-3-5.3-3.3z"/></symbol><symbol viewBox="0 0 24 24" xml:space="preserve" fill="currentColor" id="instagram"><path d="M12 7.5c2.5 0 4.5 2 4.5 4.5s-2 4.5-4.5 4.5-4.5-2-4.5-4.5 2-4.5 4.5-4.5zm0 7.4c1.6 0 2.9-1.3 2.9-2.9 0-1.6-1.3-2.9-2.9-2.9-1.6 0-2.9 1.3-2.9 2.9 0 1.6 1.3 2.9 2.9 2.9zm5.7-7.6c0-.6-.5-1.1-1.1-1.1-.6 0-1.1.5-1.1 1.1s.5 1.1 1.1 1.1c.7 0 1.1-.5 1.1-1.1zm3 1.1c.1 1.4.1 5.8 0 7.2-.1 1.4-.4 2.6-1.4 3.7-1 1-2.3 1.3-3.7 1.4-1.4.1-5.8.1-7.2 0-1.4-.1-2.6-.4-3.7-1.4-1-1.1-1.3-2.3-1.4-3.7-.1-1.4-.1-5.8 0-7.2.1-1.4.4-2.7 1.4-3.7 1.1-1 2.3-1.3 3.7-1.4 1.4-.1 5.8-.1 7.2 0 1.4.1 2.7.4 3.7 1.4 1 1 1.3 2.3 1.4 3.7zm-1.9 8.7c.5-1.1.4-3.9.4-5.2 0-1.2.1-4-.4-5.2-.3-.7-.9-1.4-1.6-1.6-1.2-.4-3.9-.3-5.2-.3-1.3 0-4-.1-5.2.4-.7.3-1.3.9-1.6 1.6-.5 1.2-.4 3.9-.4 5.2 0 1.3-.1 4 .4 5.2.3.8.9 1.4 1.7 1.7 1.1.5 3.9.4 5.2.4 1.2 0 4 .1 5.2-.4.6-.4 1.2-1 1.5-1.8z"/></symbol><symbol viewBox="0 0 24 24" xml:space="preserve" fill="currentColor" id="linkedin"><path d="M19.5 3.2c.7 0 1.2.6 1.2 1.3v15c0 .7-.6 1.2-1.2 1.2h-15c-.7 0-1.2-.5-1.2-1.2v-15c0-.7.5-1.3 1.2-1.3h15zm-11 15V9.9H5.9v8.3h2.6zM7.2 8.8c.8 0 1.5-.7 1.5-1.5S8 5.8 7.2 5.8c-.9 0-1.5.7-1.5 1.5s.7 1.5 1.5 1.5zm11 9.4v-4.6c0-2.2-.5-4-3.1-4-1.2 0-2.1.7-2.5 1.4V9.9h-2.5v8.3h2.6v-4.1c0-1.1.2-2.1 1.6-2.1 1.3 0 1.3 1.2 1.3 2.2v4.1h2.6z"/></symbol><symbol viewBox="0 0 42 42" xml:space="preserve" fill="currentColor" id="minus"><path d="M16.8 20.3v1.4h8.4v-1.4z"/></symbol><symbol fill="currentColor" viewBox="0 0 42 42" id="mise-en-valeur"><path d="m27.053 7.03-.54 1.65-.53-1.65h-.5l-.55 1.63-.52-1.63h-.56l.76 2.32h.57l.53-1.57.51 1.57h.58l.76-2.32h-.52.01Zm-4.37 1.92h-.63v-.57h.63c.29 0 .43.1.43.29 0 .1-.04.17-.11.22-.07.05-.18.07-.32.07m-.09-1.53c.13 0 .23.02.3.07.07.04.1.11.1.2 0 .09-.03.16-.1.21-.07.05-.17.07-.3.07h-.54v-.55h.54Zm.64.71c.1-.05.17-.12.23-.21a.52.52 0 0 0 .08-.3c0-.19-.08-.33-.23-.44-.15-.11-.37-.16-.65-.16h-1.14v2.32h1.2c.3 0 .53-.05.69-.16a.54.54 0 0 0 .24-.47c0-.14-.04-.26-.11-.36a.616.616 0 0 0-.31-.21m-2.7.69c-.12.07-.26.1-.42.1-.15 0-.28-.03-.39-.09a.746.746 0 0 1-.27-.26.805.805 0 0 1-.1-.39c0-.15.03-.28.1-.39.06-.11.15-.2.27-.26a.83.83 0 0 1 .39-.09c.24 0 .44.09.6.26l.35-.32c-.11-.13-.25-.23-.42-.3-.17-.07-.35-.1-.55-.1-.24 0-.46.05-.66.15-.2.1-.35.25-.46.43-.11.18-.16.39-.16.62 0 .23.05.44.16.62s.26.32.45.43c.19.1.41.15.65.15.17 0 .33-.03.5-.08.17-.05.31-.12.44-.22v-.94h-.49v.68h.01Zm-2.54-.97c0 .13-.04.23-.13.3-.08.07-.21.11-.37.11h-.44v-.81h.44c.16 0 .29.03.37.1.08.07.13.17.13.3Zm.59 1.48-.52-.75c.15-.07.27-.16.35-.29.08-.13.12-.27.12-.45s-.04-.32-.12-.45a.774.774 0 0 0-.35-.29c-.15-.07-.33-.1-.54-.1h-1.01v2.32h.54v-.65h.49l.45.65h.58l.01.01Z"/><path d="m24.223 10.75 2.24 3.45-4.26 8.74M20.143 10.75l-1.9 3.45 3.92 8.74" stroke="#102345" stroke-width=".8" stroke-linecap="round" stroke-linejoin="round"/><path d="m13.953 13.96 3-3.28h10.43l3.32 3.28h-16.75ZM22.273 23.01l-8.44-8.81h16.87l-8.43 8.81Z" stroke="#102345" stroke-width=".8" stroke-linecap="round" stroke-linejoin="round"/><path d="m12.773 35.46-.54.12a.868.868 0 0 1-1.05-.63l-2.16-8.91c-.11-.46.18-.92.65-1.02l.54-.12c.47-.11.94.18 1.05.63l2.16 8.91c.11.46-.18.92-.65 1.02Z" stroke="#102345" stroke-width=".94" stroke-miterlimit="10"/><path d="M20.073 30.25s3.68-.11 5.87-1.54c3.02-1.95 5.45-3.33 5.78-3.41.33-.08.82-.25 1.52.58.7.83.41 1.75.21 2.04-.21.29-8.22 4.7-9.11 5.28-.89.58-2.38 1.58-3.49 1.54-1.11-.04-2.92-.75-3.79-.83-.86-.08-3.37-.17-3.91.14m-1.87-8.02s3.48-1.52 3.94-1.56c.45-.04 1.73.07 2.6.78.86.71 2.18 1.3 2.84 1.3.66 0 2.96-.75 3.46-.75s2.55.12 1.84 2.7" stroke="#102345" stroke-width=".94" stroke-linecap="round" stroke-linejoin="round"/></symbol><symbol fill="currentColor" viewBox="0 0 42 42" id="pilotage-lumiere"><path d="M17.51 12.382c.47.23.79.7.79 1.26 0 .77-.62 1.4-1.39 1.4-.77 0-1.23-.64-1.39-1.4-.14-.64.01-1.1.01-1.1.36-1.54 1.89-2.5 3.44-2.15 1.54.36 2.5 1.9 2.15 3.44-.16.68-.96 1.74-1.34 2.26-1.06 1.43-2.3 2.9-3.47 4.19-.66.74-1.42 1.42-1.66 2.46-.51 2.23.87 4.45 3.1 4.96 1.23.28 2.46-.01 3.4-.71" stroke="#102345" stroke-width=".76" stroke-linecap="round" stroke-linejoin="round"/><path d="m22.42 23.222-.59 1.27-1.31.06 1.02 1.06-.32 1.42 1.25-.73 1.17.69-.22-1.41.94-.98-1.37-.13-.57-1.25Z" stroke="#102345" stroke-width=".51" stroke-linecap="round" stroke-linejoin="round"/><path d="m21.98 18.682-2.11 1.09-1.82-1.28.26 2.47-1.91 1.56 2.43.34.85 2.14 1.17-2.12 2.28-.32-1.69-1.6.54-2.28Z" stroke="#102345" stroke-width=".76" stroke-linecap="round" stroke-linejoin="round"/><path d="m22.29 13.422.07 2.8-2.31 1.27 2.76 1 .68 2.84 1.61-2.41 2.71.2-1.64-2.34.84-2.58-2.58.97-2.14-1.75Z" stroke="#102345" stroke-width=".76" stroke-linecap="round" stroke-linejoin="round"/><path d="M34.68 31.112h-.86v-14.75c0-1.27-1.03-2.3-2.29-2.3h-3.04a.56.56 0 1 0 0 1.12h3.04c.65 0 1.18.53 1.18 1.18v14.75h-7.69c-.26 0-.49.19-.55.45-.17.86-1.08.97-1.21.98h-4.92c-1.49 0-1.56-.79-1.56-.87a.56.56 0 0 0-.56-.56H8.58v-14.75c0-.65.53-1.18 1.18-1.18h4.56a.56.56 0 1 0 0-1.12H9.76c-1.26 0-2.29 1.03-2.29 2.3v14.75h-.91a.56.56 0 0 0-.56.56v.68c0 2.12 1.72 3.84 3.84 3.84h21.55c2.12 0 3.84-1.72 3.84-3.84v-.68a.56.56 0 0 0-.56-.56m-3.27 3.96H9.85c-1.5 0-2.73-1.22-2.73-2.73v-.12h8.66c.22.59.83 1.43 2.56 1.43h4.97c.59-.03 1.68-.37 2.12-1.43h8.69v.12c0 1.5-1.22 2.73-2.73 2.73M28.72 9.502c.55.4 1.06.87 1.58 1.43.18.19.39.29.61.29.21 0 .4-.11.54-.29.14-.17.31-.54-.1-.99a11.894 11.894 0 0 0-4.1-2.95c-1.59-.68-3.25-1.02-4.91-.99-.45 0-.74.14-.85.41-.04.09-.06.19-.06.31 0 .21.06.37.19.5.2.2.5.23.74.23 2.34 0 4.48.69 6.37 2.06"/><path d="M26.55 9.172c-1-.46-1.78-.7-2.63-.82-.42-.06-.8-.08-1.18-.07-.29 0-.49.21-.5.49 0 .29.19.49.49.51h.14c1.66.03 3.18.57 4.5 1.62.35.27.67.58.98.95.18.22.39.22.52.18a.47.47 0 0 0 .33-.28l.03-.09c.07-.25-.08-.42-.17-.51-.61-.7-1.31-1.26-2.06-1.73l-.48-.25h.03Z"/><path d="M25.15 10.472s-.42-.12-.64-.17c-.36-.08-.73-.13-1.1-.13-.25 0-.42.15-.42.38 0 .18.1.38.41.39H23.51a4.38 4.38 0 0 1 3.18 1.53c.22.26.44.16.52.1.07-.04.12-.1.15-.16.01-.03.03-.06.03-.1.01-.08 0-.21-.12-.35-.47-.55-1.05-1-1.72-1.32l-.39-.19-.01.02Z"/></symbol><symbol viewBox="0 0 42 42" xml:space="preserve" fill="currentColor" id="plus"><path d="M25.2 20.3h-3.5v-3.5h-1.4v3.5h-3.5v1.4h3.5v3.5h1.4v-3.5h3.5z"/></symbol><symbol viewBox="0 0 42 42" xml:space="preserve" fill="currentColor" id="search"><path d="m32.8 32.3-5.2-5.2c1.8-1.9 2.9-4.4 2.9-7.2 0-5.8-4.7-10.5-10.5-10.5S9.4 14.2 9.4 20s4.7 10.5 10.5 10.5c2.2 0 4.3-.7 6-1.9l5.3 5.3 1.6-1.6zM11.6 20c0-4.6 3.8-8.4 8.4-8.4s8.4 3.8 8.4 8.4-3.8 8.4-8.4 8.4-8.4-3.8-8.4-8.4z"/></symbol><symbol viewBox="0 0 42 42" xml:space="preserve" fill="currentColor" id="times"><path d="m22.1 21 5.9-5.9c.3-.3.3-.8 0-1.1-.3-.3-.8-.3-1.1 0L21 19.9 15.1 14c-.3-.3-.8-.3-1.1 0-.3.3-.3.8 0 1.1l5.9 5.9-5.9 5.9c-.3.3-.3.8 0 1.1.2.2.4.2.6.2s.4-.1.6-.2l5.9-5.9L27 28c.2.2.4.2.6.2s.4-.1.6-.2c.3-.3.3-.8 0-1.1L22.1 21z"/></symbol><symbol viewBox="0 0 24 24" xml:space="preserve" fill="currentColor" id="vimeo"><path d="M24 6.4c-.1 2.3-1.7 5.5-4.9 9.6-3.3 4.2-6 6.3-8.3 6.3-1.4 0-2.6-1.3-3.5-3.9l-1.9-7.1C4.6 8.8 3.8 7.5 3 7.5c-.2 0-.8.4-1.9 1.1L0 7.2 3.5 4C5.1 2.7 6.2 2 7 1.9c1.9-.2 3 1.1 3.4 3.9l1 5.5c.5 2.4 1.1 3.7 1.8 3.7.5 0 1.3-.8 2.3-2.4S17 9.8 17.1 9c.1-1.4-.4-2-1.6-2-.6 0-1.2.1-1.8.4 1.2-3.8 3.4-5.7 6.8-5.6 2.5-.1 3.6 1.5 3.5 4.6z"/></symbol><symbol viewBox="0 0 24 24" xml:space="preserve" fill="currentColor" id="x"><path d="M19 1.2h3.7l-8.1 9.2L24 22.8h-7.4l-5.8-7.6-6.6 7.6H.5L9 13 0 1.2h7.6l5.2 6.9L19 1.2zm-1.3 19.5h2L6.5 3.2H4.3l13.4 17.5z"/><script/></symbol><symbol viewBox="0 0 24 24" xml:space="preserve" fill="currentColor" id="youtube"><path d="M22.2 6.9c.5 1.6.5 5.2.5 5.2s0 3.5-.5 5.2c-.2.9-1 1.6-1.9 1.9-1.7.4-8.3.4-8.3.4s-6.7 0-8.4-.4c-.9-.2-1.6-.9-1.9-1.9-.4-1.8-.4-5.3-.4-5.3s0-3.5.5-5.2c.2-.9 1-1.6 1.9-1.8 1.6-.5 8.3-.5 8.3-.5s6.6 0 8.3.5c.9.2 1.7.9 1.9 1.9zM9.8 15.2l5.5-3.2-5.5-3.1v6.3z"/></symbol></svg>