<svg width="39" height="46" viewBox="0 0 39 46" fill="none" xmlns="http://www.w3.org/2000/svg">
<path d="M0 38.3243V32.314H2.20704V38.3243C2.20704 40.9154 4.2864 43.0298 6.84456 43.0298H12.5491V45.2692H6.84456C3.06888 45.2692 0 42.1507 0 38.3243Z" fill="#98FFA5"/>
<path d="M24.6468 13.7927V37.2463C24.6468 38.9443 24.0677 39.791 22.718 39.791C22.0112 39.791 21.2405 39.5319 19.9546 37.4406L9.4438 20.4785V39.2358H6.16516V15.6203C6.16516 14.0888 6.80812 13.2698 7.96636 13.2698C8.64124 13.2698 9.2842 13.5613 9.92716 14.607L21.3408 33.2301V13.7927H24.6514H24.6468Z" fill="#F0F3EC"/>
<path d="M38.8146 21.5843H36.7671V14.7782C36.7671 7.77313 31.1492 2.07284 24.2454 2.07284H17.4191V0H24.2454C32.2801 0 38.8146 6.6303 38.8146 14.7828V21.589V21.5843Z" fill="#98FFA5"/>
<path d="M34.3641 21.5843H33.0007V15.9211C33.0007 10.2531 28.4589 5.64479 22.8729 5.64479H17.4237V4.26135H22.8729C29.2113 4.26135 34.3687 9.49434 34.3687 15.9257V21.589L34.3641 21.5843Z" fill="#98FFA5"/>
<path d="M30.0503 21.5843H29.3663V17.3045C29.3663 12.9228 25.8551 9.36014 21.5367 9.36014H17.4191V8.66611H21.5367C26.229 8.66611 30.0457 12.5388 30.0457 17.2998V21.5797L30.0503 21.5843Z" fill="#98FFA5"/>
</svg>
