<svg width="178" height="53" viewBox="0 0 178 53" fill="none" xmlns="http://www.w3.org/2000/svg">
<path d="M0 44.6669V37.6872H2.5822V44.6669C2.5822 47.6758 5.01501 50.1314 8.00802 50.1314H14.6823V52.732H8.00802C3.59054 52.732 0 49.1105 0 44.6669Z" fill="#98FFA5"/>
<path d="M28.831 16.1785V43.4149C28.831 45.3869 28.1534 46.3701 26.5743 46.3701C25.7473 46.3701 24.8457 46.0693 23.3412 43.6406L11.0437 23.9427V45.7254H7.20776V18.3009C7.20776 16.5224 7.96002 15.5713 9.31514 15.5713C10.1047 15.5713 10.857 15.9099 11.6092 17.1242L24.963 38.751V16.1785H28.8363H28.831Z" fill="#F0F3EC"/>
<path d="M37.5593 32.7654V38.6758C37.5593 41.0991 38.8024 42.0072 40.9417 42.0072H52.9778V45.72H39.7787C36.1668 45.72 33.7233 44.0543 33.7233 40.2287V21.8579C33.7233 18.0322 36.1668 16.1785 39.7787 16.1785H52.9778V19.929H40.9417C38.797 19.929 37.5593 20.7994 37.5593 23.2227V29.0579H52.7164V32.7707H37.5593V32.7654Z" fill="#F0F3EC"/>
<path d="M59.1878 45.72H54.6743L64.0748 30.9869L54.6743 16.1785H59.1505L66.3316 27.3546L73.5126 16.1785H77.9888L68.5883 30.9869L78.0261 45.72H73.5126L66.3316 34.6191L59.1878 45.72Z" fill="#F0F3EC"/>
<path d="M84.503 45.72H80.6671V16.1785H84.503V45.7254V45.72Z" fill="#F0F3EC"/>
<path d="M111.013 40.2287C111.013 44.0543 108.532 45.72 104.92 45.72H95.4453C91.8334 45.72 89.39 43.9039 89.39 40.0782V21.8579C89.39 18.0322 91.8334 16.1785 95.4453 16.1785H104.92C108.532 16.1785 111.013 18.0322 111.013 21.8579V40.2287ZM93.2259 38.6758C93.2259 41.0991 94.469 42.0072 96.7631 42.0072H103.757C105.902 42.0072 107.14 41.0991 107.14 38.6758V23.2227C107.14 20.7994 105.897 19.929 103.757 19.929H96.7631C94.469 19.929 93.2259 20.7994 93.2259 23.2227V38.6758Z" fill="#F0F3EC"/>
<path d="M115.906 16.1785H131.591C135.203 16.1785 137.683 18.0322 137.683 21.8579V40.2287C137.683 44.0543 135.203 45.72 131.591 45.72H115.906V16.1785ZM119.741 19.929V42.0125H130.422C132.567 42.0125 133.81 41.1045 133.81 38.6812V23.2281C133.81 20.8048 132.567 19.9343 130.422 19.9343H119.741V19.929Z" fill="#F0F3EC"/>
<path d="M146.033 32.7654V38.6758C146.033 41.0991 147.276 42.0072 149.415 42.0072H161.451V45.72H148.252C144.64 45.72 142.197 44.0543 142.197 40.2287V21.8579C142.197 18.0322 144.64 16.1785 148.252 16.1785H161.451V19.929H149.415C147.271 19.929 146.033 20.7994 146.033 23.2227V29.0579H161.19V32.7707H146.033V32.7654Z" fill="#F0F3EC"/>
<path d="M177.75 25.0657H175.355V17.1618C175.355 9.02688 168.782 2.40718 160.705 2.40718H152.718V1.14441e-05H160.705C170.105 1.14441e-05 177.75 7.69971 177.75 17.1672V25.0711V25.0657Z" fill="#98FFA5"/>
<path d="M172.543 25.0657H170.948V18.489C170.948 11.9069 165.634 6.55524 159.099 6.55524H152.723V4.94868H159.099C166.514 4.94868 172.549 11.0257 172.549 18.4943V25.0711L172.543 25.0657Z" fill="#98FFA5"/>
<path d="M167.496 25.0657H166.696V20.0955C166.696 15.0072 162.588 10.8699 157.535 10.8699H152.718V10.0639H157.535C163.025 10.0639 167.491 14.5612 167.491 20.0901V25.0603L167.496 25.0657Z" fill="#98FFA5"/>
</svg>
