<svg id="Calque_1" data-name="Calque 1" xmlns="http://www.w3.org/2000/svg" viewBox="0 0 500 148.9"><defs></defs><path d="M383.46,384.75a62.64,62.64,0,0,0-24.89,26.14C352.72,422.19,350,435.15,350,450c0,15.06,2.72,28,8.57,39.32a60.92,60.92,0,0,0,24.89,25.93c10.87,6.27,23.63,9.2,38.27,9.2,11.29,0,21.54-2.09,30.74-6.69a56.47,56.47,0,0,0,22-18.82,61.76,61.76,0,0,0,10-28H453.1c-1.88,8.37-5.65,15.06-11.5,19.87s-13,7.11-21.54,7.11c-11.71,0-21.12-4.39-27.82-13.18C385.34,475.93,382,464.22,382,450s3.34-25.93,10.24-34.72c6.7-8.78,16.11-13.17,27.82-13.17,8.57,0,15.68,2.51,21.54,7.32s9.62,11.29,11.5,19.66h31.37a63.59,63.59,0,0,0-10-28,60.08,60.08,0,0,0-22-18.82,70.53,70.53,0,0,0-30.74-6.69C407.09,375.55,394.33,378.69,383.46,384.75ZM850,523.19V496.64H835.57a8.62,8.62,0,0,1-4.81-1.05c9.2-13,13.8-28,13.8-45.59a79.34,79.34,0,0,0-9.2-38.06,70.33,70.33,0,0,0-25.72-26.77A75.21,75.21,0,0,0,772,375.55c-14.22,0-26.77,3.35-37.65,9.62a67.45,67.45,0,0,0-25.72,26.77c-6.27,11.29-9.2,24.05-9.2,38.06,0,14.22,2.93,27,9.2,38.27a65.58,65.58,0,0,0,25.72,26.56c10.88,6.48,23.43,9.62,37.65,9.62,15,0,28.44-3.56,40.15-11.09a23.07,23.07,0,0,0,9,7.53c3.35,1.68,8,2.3,13.8,2.3Zm-99.33-31.36a39.7,39.7,0,0,1-14.23-17.15,57.9,57.9,0,0,1-5-24.68,58.58,58.58,0,0,1,5-24.68,40.35,40.35,0,0,1,14.23-16.94,39.06,39.06,0,0,1,42.45,0,42,42,0,0,1,14.22,16.94,58.58,58.58,0,0,1,5,24.68A62.81,62.81,0,0,1,809,470.49l-3.34-4.39a31.3,31.3,0,0,0-8.79-8.15c-2.93-1.68-7.32-2.51-12.75-2.51h-15.9V482h13.6a10.45,10.45,0,0,1,5.64,1.67,25.83,25.83,0,0,1,4.81,4.81l2.09,2.51a38.29,38.29,0,0,1-22.37,6.9C763.84,497.89,756.73,496,750.67,491.83Zm-191.82-115V523.19H589.6V431l62.11,92.22h28.65V376.81h-31V469L587.3,376.81Zm-56.16,0h31.37V523.19H502.69Z" transform="translate(-350 -375.55)"/></svg>
